<?xml version="1.0" encoding="UTF-8" standalone="no"?>
<!-- Created with Inkscape (http://www.inkscape.org/) -->

<svg
   xmlns:dc="http://purl.org/dc/elements/1.1/"
   xmlns:cc="http://creativecommons.org/ns#"
   xmlns:rdf="http://www.w3.org/1999/02/22-rdf-syntax-ns#"
   xmlns:svg="http://www.w3.org/2000/svg"
   xmlns="http://www.w3.org/2000/svg"
   xmlns:sodipodi="http://sodipodi.sourceforge.net/DTD/sodipodi-0.dtd"
   xmlns:inkscape="http://www.inkscape.org/namespaces/inkscape"
   width="1080px"
   height="1080px"
   viewBox="0 0 1080 1080"
   version="1.1"
   id="SVGRoot"
   inkscape:version="0.92.4 (5da689c313, 2019-01-14)"
   sodipodi:docname="motiv-ctverec.svg">
  <defs
     id="defs4452" />
  <sodipodi:namedview
     id="base"
     pagecolor="#ffffff"
     bordercolor="#666666"
     borderopacity="1.0"
     inkscape:pageopacity="0.0"
     inkscape:pageshadow="2"
     inkscape:zoom="0.335221"
     inkscape:cx="-225.5065"
     inkscape:cy="736.21526"
     inkscape:document-units="px"
     inkscape:current-layer="layer1"
     showgrid="false"
     inkscape:window-width="1920"
     inkscape:window-height="1017"
     inkscape:window-x="-8"
     inkscape:window-y="-8"
     inkscape:window-maximized="1"
     showguides="false" />
  <metadata
     id="metadata4455">
    <rdf:RDF>
      <cc:Work
         rdf:about="">
        <dc:format>image/svg+xml</dc:format>
        <dc:type
           rdf:resource="http://purl.org/dc/dcmitype/StillImage" />
        <dc:title></dc:title>
      </cc:Work>
    </rdf:RDF>
  </metadata>
  <g
     inkscape:label="Vrstva 1"
     inkscape:groupmode="layer"
     id="layer1">
    <rect
       style="opacity:1;fill:#ffffff;fill-opacity:1;stroke:none;stroke-width:1.00392163;stroke-opacity:1"
       id="rect5128"
       width="1080"
       height="1080"
       x="0"
       y="0"
       inkscape:export-xdpi="96"
       inkscape:export-ydpi="96" />
    <rect
       style="opacity:0.5;fill:#0000ff;fill-opacity:1;stroke:none;stroke-opacity:1"
       id="rect5124"
       width="111.79688"
       height="780.46875"
       x="-1723.8531"
       y="577.85419"
       transform="rotate(6.0206884)" />
    <rect
       style="opacity:0.5;fill:#0000ff;fill-opacity:1;stroke:none;stroke-opacity:1"
       id="rect5126"
       width="1033.3241"
       height="51.342876"
       x="-2064.5896"
       y="786.07898" />
    <g
       id="g922"
       transform="matrix(1.076424,0,0,1.076424,-50.889986,-20.48515)">
      <g
         id="g5115"
         transform="matrix(1.0768121,0,0,1.0768121,153.34271,-1013.0221)"
         inkscape:export-xdpi="96"
         inkscape:export-ydpi="96"
         style="fill:#ffff00">
        <path
           inkscape:connector-curvature="0"
           d="m 19.161251,1473.2367 q -17.4528378,0 -15.9737425,-9.4659 L 23.006772,1274.4522 q 0.887965,-9.4659 18.044498,-9.4659 h 7.691042 q 5.620393,0 8.874254,1.7749 3.549745,1.4789 5.620393,6.5078 l 42.300941,99.3922 q 4.1413,9.7617 7.69104,23.0732 l 1.18322,-0.592 q -0.59198,-9.4659 -0.59198,-14.1988 0,-3.254 0.59198,-9.1702 l 10.945,-97.3215 q 0.88797,-9.4659 18.0444,-9.4659 h 7.09949 q 17.15695,0 16.26951,9.4659 l -19.81926,189.3186 q -1.47909,9.4659 -18.34027,9.4659 h -5.6204 q -5.91617,0 -9.46591,-1.7749 -3.54974,-1.7749 -5.62039,-6.5078 L 62.941183,1361.4201 q -2.070649,-4.4372 -3.845521,-10.3534 -1.479096,-6.212 -2.070649,-8.5784 l -1.774872,0.8879 q 0.295988,2.3664 0.591976,5.6204 0.295988,2.9581 0.295988,7.0994 0,2.6623 -0.591976,7.3953 L 44.60112,1463.771 q -0.887965,9.4659 -18.340169,9.4659 z"
           style="font-style:italic;font-variant:normal;font-weight:bold;font-stretch:normal;font-size:27.98316765px;line-height:0.89999998;font-family:'Asap Condensed';-inkscape-font-specification:'Asap Condensed, Bold Italic';letter-spacing:-0.30068088px;word-spacing:0px;fill:#1a2026;fill-opacity:1;stroke:none;stroke-width:3.46652675"
           id="path2865" />
        <path
           inkscape:connector-curvature="0"
           d="m 173.01179,1473.2367 q -13.60721,0 -13.60721,-6.5078 0,-0.888 0.88691,-3.254 0.88796,-2.3664 1.47909,-4.4371 l 65.37407,-185.7688 q 2.95809,-8.2827 18.93183,-8.2827 h 16.5654 q 16.26952,0 17.45284,8.2827 l 27.51031,188.1353 q 0.29598,0.8869 0.29598,2.958 0,1.4791 -0.29598,2.3666 -0.59198,6.5078 -13.31144,6.5078 h -14.49475 q -13.90299,0 -15.08631,-6.212 l -3.84552,-36.0889 h -46.14636 l -11.83244,36.0889 q -1.4791,6.212 -14.49465,6.212 z m 85.48922,-78.3897 -6.21206,-62.7118 q -1.18321,-14.7905 -1.18321,-22.4816 h -1.47909 q -3.84552,15.9738 -5.91617,22.4816 l -20.11515,62.7118 z"
           style="font-style:italic;font-variant:normal;font-weight:bold;font-stretch:normal;font-size:27.98316765px;line-height:0.89999998;font-family:'Asap Condensed';-inkscape-font-specification:'Asap Condensed, Bold Italic';letter-spacing:-0.30068088px;word-spacing:0px;fill:#1a2026;fill-opacity:1;stroke:none;stroke-width:3.46652675"
           id="path2867" />
      </g>
      <g
         id="g5122"
         transform="matrix(1.0768121,0,0,1.0768121,-266.85963,-766.02697)"
         inkscape:export-xdpi="96"
         inkscape:export-ydpi="96"
         style="fill:#ffff00">
        <path
           inkscape:connector-curvature="0"
           d="m 379.05013,1472.645 q -5.91628,0 -8.2827,-2.6623 -2.07076,-2.958 -1.4791,-9.1701 l 19.52349,-183.4023 q 0.59197,-6.2121 3.54974,-8.8743 2.95809,-2.9582 8.57848,-2.9582 h 50.28776 q 37.56788,0 54.42906,21.2984 16.86118,21.2984 16.86118,68.3321 0,52.3585 -21.59414,84.8976 -21.29836,32.5391 -65.66984,32.5391 z m 58.86624,-38.751 q 19.81926,0 28.69351,-23.6649 8.87436,-23.9606 8.87436,-55.3165 0,-19.5235 -2.95808,-30.4685 -2.95819,-10.9449 -9.46591,-15.3821 -6.50783,-4.733 -17.45284,-4.733 h -13.01566 l -13.60732,129.565 z"
           style="font-style:italic;font-variant:normal;font-weight:bold;font-stretch:normal;font-size:27.98316765px;line-height:0.89999998;font-family:'Asap Condensed';-inkscape-font-specification:'Asap Condensed, Bold Italic';letter-spacing:-0.30068088px;word-spacing:0px;fill:#ed3b38;fill-opacity:1;stroke:none;stroke-width:3.46652675"
           id="path2869" />
        <path
           inkscape:connector-curvature="0"
           d="m 543.35106,1472.645 q -5.91627,0 -8.2827,-2.6623 -2.07065,-2.958 -1.4791,-9.1701 l 19.81927,-186.3604 q 0.88796,-9.4659 18.0445,-9.4659 h 11.83234 q 17.15706,0 16.26962,9.4659 l -16.86118,159.4418 h 44.07571 q 4.1413,0 5.91617,2.6622 1.77487,2.3665 1.77487,7.9869 l -0.29599,4.1413 -1.18321,9.1701 q -0.59198,7.6912 -3.25397,11.2408 -2.36642,3.5497 -7.09938,3.5497 z"
           style="font-style:italic;font-variant:normal;font-weight:bold;font-stretch:normal;font-size:27.98316765px;line-height:0.89999998;font-family:'Asap Condensed';-inkscape-font-specification:'Asap Condensed, Bold Italic';letter-spacing:-0.30068088px;word-spacing:0px;fill:#ed3b38;fill-opacity:1;stroke:none;stroke-width:3.46652675"
           id="path2871" />
        <path
           inkscape:connector-curvature="0"
           d="m 716.97531,1475.0116 q -31.06005,0 -48.21701,-14.199 -17.15706,-14.1989 -17.15706,-40.2302 0,-2.6622 0.59197,-8.5785 l 14.49465,-137.5517 q 0.88691,-9.4659 18.0445,-9.4659 h 11.83234 q 17.15706,0 16.26962,9.4659 l -14.19887,134.5937 q -0.29598,1.479 -0.29598,4.1412 0,10.3535 5.91627,16.8612 6.21195,6.2121 16.5653,6.2121 12.12822,0 19.22771,-6.8036 7.39526,-6.8036 8.87436,-20.4109 l 14.19887,-134.5937 q 0.88691,-9.4659 18.04439,-9.4659 h 11.53656 q 17.15707,0 16.26963,9.4659 l -14.49475,137.5517 q -2.95809,29.8769 -23.66479,46.4423 -20.7067,16.5654 -53.8375,16.5654 z"
           style="font-style:italic;font-variant:normal;font-weight:bold;font-stretch:normal;font-size:27.98316765px;line-height:0.89999998;font-family:'Asap Condensed';-inkscape-font-specification:'Asap Condensed, Bold Italic';letter-spacing:-0.30068088px;word-spacing:0px;fill:#ed3b38;fill-opacity:1;stroke:none;stroke-width:3.46652675"
           id="path2873" />
        <path
           inkscape:connector-curvature="0"
           d="m 834.48283,1473.2367 q -17.15696,0 -16.26952,-9.4659 l 20.11504,-189.3186 q 0.88691,-9.4659 18.04439,-9.4659 h 12.42411 q 16.86118,0 15.97374,9.4659 l -7.69104,73.0651 h 50.58354 l 7.69104,-73.0651 q 0.88796,-9.4659 18.04439,-9.4659 h 12.12822 q 17.15706,0 16.26963,9.4659 l -20.11515,189.3186 q -0.88796,9.4659 -18.04439,9.4659 h -12.12822 q -17.15706,0 -16.26963,-9.4659 l 8.2827,-77.2065 h -50.58353 l -8.28271,77.2065 q -0.88796,9.4659 -17.74861,9.4659 z"
           style="font-style:italic;font-variant:normal;font-weight:bold;font-stretch:normal;font-size:27.98316765px;line-height:0.89999998;font-family:'Asap Condensed';-inkscape-font-specification:'Asap Condensed, Bold Italic';letter-spacing:-0.30068088px;word-spacing:0px;fill:#ed3b38;fill-opacity:1;stroke:none;stroke-width:3.46652675"
           id="path2875" />
        <path
           inkscape:connector-curvature="0"
           d="m 1013.9856,1406.9752 q -9.17,0 -12.1282,-2.0706 -2.95809,-2.3666 -2.36644,-7.3953 l 13.01564,-122.4654 q 0.592,-5.0289 4.733,-7.3953 4.4372,-2.6623 13.3114,-2.6623 h 13.6073 q 8.2827,0 12.7198,2.3664 4.4372,2.3665 3.254,7.0995 l -27.8062,123.0571 q -1.1832,5.3245 -4.1413,7.3953 -2.9582,2.0706 -11.8325,2.0706 z m -11.2408,66.2615 q -17.45271,0 -15.97372,-9.4659 l 2.66231,-27.2146 q 0.59198,-4.733 5.02874,-7.0994 4.43718,-2.3666 13.31157,-2.3666 h 9.7617 q 17.4528,0 15.9737,9.466 l -2.6623,27.2146 q -0.592,4.7329 -5.0287,7.0994 -4.4372,2.3665 -13.3115,2.3665 z"
           style="font-style:italic;font-variant:normal;font-weight:bold;font-stretch:normal;font-size:27.98316765px;line-height:0.89999998;font-family:'Asap Condensed';-inkscape-font-specification:'Asap Condensed, Bold Italic';letter-spacing:-0.30068088px;word-spacing:0px;fill:#1a2026;fill-opacity:1;stroke:none;stroke-width:3.46652675"
           id="path2877" />
      </g>
      <g
         id="g5104"
         transform="matrix(1.0768121,0,0,1.0768121,733.81031,-1584.7183)"
         inkscape:export-xdpi="96"
         inkscape:export-ydpi="96"
         style="fill:#ffff00">
        <path
           id="path309"
           d="m -59.03255,1662.6282 c -30.18131,-0.1353 -55.98294,22.5016 -59.21732,53.1861 l -19.92559,189.0549 c -3.45,32.73 20.1195,61.8574 52.84961,65.3074 l 153.60768,16.1884 c 32.73009,3.4502 61.8573,-20.1191 65.30723,-52.8493 l 19.9289,-189.0552 c 3.45005,-32.7299 -20.12297,-61.8573 -52.85303,-65.3072 l -153.60737,-16.1918 c -2.04569,-0.2251 -4.07801,-0.3266 -6.09011,-0.3329 z"
           style="opacity:1;fill:#529643;fill-opacity:1;stroke-width:0.71277076"
           inkscape:connector-curvature="0"
           sodipodi:nodetypes="ccccccccccc" />
        <path
           inkscape:export-ydpi="96"
           inkscape:export-xdpi="96"
           inkscape:connector-curvature="0"
           id="path280"
           d="m -66.99531,1649.4115 c -32.98228,-0.1575 -61.18044,24.5922 -64.7149,58.1241 l -21.77401,206.5991 c -3.77016,35.7675 21.98689,67.5987 57.75444,71.3689 l 167.86265,17.6897 c 35.76756,3.7702 67.5988,-21.9868 71.36895,-57.7545 l 21.7769,-206.5991 c 3.77027,-35.7674 -21.9898,-67.5986 -57.75738,-71.3689 l -167.86271,-17.6927 c -2.23551,-0.2369 -4.45509,-0.3594 -6.65394,-0.3668 z m 38.64626,43.0282 v 0.01 c 0.88046,0.01 1.76597,0.074 2.65975,0.1353 l 12.92914,1.3765 103.31006,10.8525 12.88708,1.3794 c 14.30704,1.5091 24.61367,14.2412 23.10537,28.5482 l -9.86669,93.6147 -2.04359,19.3787 -9.8667,93.6176 c -1.50907,14.3072 -14.24115,24.6106 -28.54811,23.1023 l -12.97127,-1.3798 -103.25898,-10.8524 -12.89908,-1.3765 c -14.30721,-1.5091 -24.60757,-14.2412 -23.09936,-28.5481 l 9.86966,-93.6146 2.03763,-19.3848 9.86969,-93.6148 c 1.41303,-13.4129 12.69225,-23.3048 25.8854,-23.2467 z m 12.61057,29.612 c -0.18851,1.7884 -0.006,3.5276 0.48077,5.1421 -0.4886,-1.6144 -0.66925,-3.3537 -0.48077,-5.1421 z m 0.90467,6.3263 c 0.4793,1.1606 1.1224,2.2422 1.90542,3.2098 -0.78277,-0.9673 -1.42634,-2.0492 -1.90542,-3.2098 z m 2.7349,4.1383 c 1.16377,1.1854 2.5569102,2.15 4.1233802,2.8222 -1.56627,-0.6723 -2.9599202,-1.6369 -4.1233802,-2.8222 z m 91.71534,11.0719 c -0.77357,0.3193 -1.58333,0.5645 -2.41941,0.7305 0.83586,-0.1651 1.64559,-0.4112 2.41941,-0.7305 z m -53.93462,41.9252 a 42.847239,42.847239 0 0 0 -0.11467,0.01 c 0.0708,2e-4 0.13425,-4e-4 0.20165,0 a 42.847239,42.847239 0 0 0 -0.0887,-0.01 z m -7.85309,0.7251 a 42.847239,42.847239 0 0 0 -1.28935,0.2526 c 0.42729,-0.095 0.85807,-0.1745 1.28935,-0.2526 z m 18.16751,0.5952 c 0.0445,0.01 0.0962,0.032 0.14377,0.032 a 42.847239,42.847239 0 0 0 -0.14377,-0.032 z m -22.20675,0.352 a 42.847239,42.847239 0 0 0 -1.14209,0.3245 c 0.37666,-0.1194 0.76123,-0.2156 1.14209,-0.3245 z m -4.2285998,1.4397 a 42.847239,42.847239 0 0 0 -0.68225,0.259 c 0.22375,-0.095 0.45679,-0.1681 0.68225,-0.259 z m -4.25863,1.9684 a 42.847239,42.847239 0 0 0 -0.91661,0.5317 c 0.30719,-0.1745 0.6052,-0.3647 0.91661,-0.5317 z m 42.2977598,1.1121 c 0.29577,0.1798 0.58002,0.3752 0.87138,0.5623 a 42.847239,42.847239 0 0 0 -0.87138,-0.5623 z m -45.7028598,0.9344 a 42.847239,42.847239 0 0 0 -1.14506003,0.7992 c 0.38002003,-0.2696 0.75657003,-0.5423 1.14506003,-0.7992 z m 48.9547198,1.2562 c 0.37484,0.2769 0.74344,0.5613 1.10894,0.8499 a 42.847239,42.847239 0 0 0 -1.10894,-0.851 z m -52.2005098,1.13 a 42.847239,42.847239 0 0 0 -1.09396,0.9049 c 0.35857,-0.3087 0.72569,-0.6078 1.09396,-0.9049 z m 55.3531598,1.4457 c 0.33392,0.2992 0.67061,0.5952 0.99483,0.9049 a 42.847239,42.847239 0 0 0 -0.99483,-0.9049 z m -58.4366998,1.2982 a 42.847239,42.847239 0 0 0 -0.91661,0.8986 c 0.29715,-0.3087 0.61068,-0.5994 0.91661,-0.8986 z m 61.5923398,1.8363 c 0.18935,0.2092 0.39165,0.406 0.5774,0.6195 a 42.847239,42.847239 0 0 0 -0.5774,-0.6195 z m -64.9523598,1.8213 a 42.847239,42.847239 0 0 0 -0.16809,0.1955 c 0.054,-0.074 0.11439,-0.1278 0.16809,-0.1955 z m 68.0389198,1.9625 c 0.10461,0.146 0.19439,0.3034 0.29757,0.4514 a 42.847239,42.847239 0 0 0 -0.29757,-0.4514 z m -70.65062,1.623 a 42.847239,42.847239 0 0 0 -0.10264,0.1628 c 0.035,-0.053 0.0677,-0.1088 0.10264,-0.1628 z m 34.84746,0 c -0.69811,0.032 -1.38553,0.1068 -2.07072,0.1977 a 23.37122,23.37122 0 0 1 2.07072,-0.1977 z m 2.33822,0.01 v 0 a 23.37122,23.37122 0 0 1 1.13602,0.095 23.37122,23.37122 0 0 1 2.08874,0.3308 c -0.68743,-0.1373 -1.38241,-0.2578 -2.08874,-0.333 -0.37834,-0.032 -0.75676,-0.063 -1.13602,-0.095 z m -4.87479,0.2525 c -0.66441,0.1058 -1.3232,0.2294 -1.97152,0.388 a 23.37122,23.37122 0 0 1 1.97152,-0.388 z m 8.63443,0.2886 a 23.37122,23.37122 0 0 1 1.61692,0.4239 c -0.53206,-0.1597 -1.07091,-0.3012 -1.61692,-0.4239 z m -10.95758,0.1955 c -0.59336,0.1544 -1.17884,0.332 -1.75512,0.5318 a 23.37122,23.37122 0 0 1 1.75512,-0.5318 z m 13.05537,0.369 a 23.37122,23.37122 0 0 1 1.99255,0.7452 c -0.65022,-0.2791 -1.31466,-0.5254 -1.99255,-0.7452 z m -15.16214,0.2823 c -0.64217,0.2346 -1.26997,0.4978 -1.88736,0.7875 a 23.37122,23.37122 0 0 1 1.88736,-0.7875 z m 44.94551,0.3583 c 0.1804,0.3087 0.34461,0.6269 0.51693,0.9408 a 42.847239,42.847239 0 0 0 -0.51693,-0.9408 z m -27.61042,0.1891 a 23.37122,23.37122 0 0 1 1.69801,0.8298 c -0.5534,-0.2981 -1.11977,-0.5751 -1.69801,-0.8298 z m -19.56806,0.4059 c -0.6351,0.3097 -1.25948,0.6417 -1.86339,1.0064 a 23.37122,23.37122 0 0 1 1.86339,-1.0064 z m -1.86339,1.0064 c -0.61017,0.37 -1.19876,0.7748 -1.77316,1.1992 a 23.37122,23.37122 0 0 1 1.77316,-1.1992 z m 23.60429,-0.3214 a 23.37122,23.37122 0 0 1 1.72209,1.0728 c -0.55603,-0.3837 -1.13328,-0.7378 -1.72209,-1.0728 z m -49.48966,0.5772 a 42.847239,42.847239 0 0 0 -0.14432,0.276 c 0.0476,-0.095 0.0962,-0.184 0.14432,-0.276 z m 51.26886,0.5317 a 23.37122,23.37122 0 0 1 1.66204,1.2803 c -0.53648,-0.4493 -1.08683,-0.8806 -1.66204,-1.2803 z m -27.43013,0.6131 c -0.54534,0.4144 -1.07278,0.8531 -1.5808398,1.3163 a 23.37122,23.37122 0 0 1 1.5808398,-1.3163 z m 52.92784,0.5381 c 0.18488,0.3975 0.36237,0.8002 0.53466,1.2051 a 42.847239,42.847239 0 0 0 -0.53466,-1.2051 z m -23.39991,0.5106 a 23.37122,23.37122 0 0 1 1.22317,1.154 c -0.39347,-0.4006 -0.80204,-0.7833 -1.22317,-1.154 z m -31.4063098,0.5539 c -0.44957,0.425 -0.88489,0.8636 -1.30132,1.3253 a 23.37122,23.37122 0 0 1 1.30132,-1.3253 z m 32.9270098,0.8986 a 23.37122,23.37122 0 0 1 1.3795,1.5928 c -0.43702,-0.5529 -0.89622,-1.0838 -1.3795,-1.5928 z m -34.4176798,0.631 c -0.45402,0.5138 -0.88248,1.054 -1.29228,1.6108 a 23.37122,23.37122 0 0 1 1.29228,-1.6108 z m 36.0435598,1.2893 a 23.37122,23.37122 0 0 1 0.98278,1.3914 c -0.31088,-0.4757 -0.63955,-0.9408 -0.98278,-1.3914 z m 22.0715,0.6342 c 0.008,0.032 0.0252,0.074 0.0361,0.1058 a 42.847239,42.847239 0 0 0 -0.0361,-0.1058 z m -59.6538398,0.032 c -0.40337,0.5698 -0.79365,1.1511 -1.14802,1.7612 a 23.37122,23.37122 0 0 1 0.002,0 23.37122,23.37122 0 0 1 1.14506,-1.7612 z m 38.8836798,1.2201 a 23.37122,23.37122 0 0 1 0.97073,1.7192 c -0.29843,-0.5909 -0.62623,-1.1604 -0.97073,-1.7192 z m 1.03089,1.8275 a 23.37122,23.37122 0 0 1 0.84112,1.9233 c -0.25676,-0.6554 -0.53024,-1.3006 -0.84112,-1.9233 z m 20.86939,0.9799 c 0.0168,0.063 0.0252,0.132 0.0445,0.1977 a 42.847239,42.847239 0 0 0 -0.0445,-0.1977 z M 3.4058902,1836.011 c 0.014,0.042 0.0338,0.084 0.0475,0.1205 a 23.37122,23.37122 0 0 1 -0.0456,-0.1205 z m 0.37263,0.9588 c 0.212,0.5349 0.44281,1.0583 0.69123,1.5718 a 23.37122,23.37122 0 0 1 -0.69123,-1.5718 z m -20.0278802,0.9471 a 42.847239,42.847239 0 0 0 0.0867,0.3584 c -0.0285,-0.1194 -0.0593,-0.2377 -0.0867,-0.3584 z m 20.9084302,1.0275 c 0.31725,0.6258 0.66206,1.2324 1.03089,1.8213 a 23.37122,23.37122 0 0 1 -1.03078,-1.8214 z m 40.7800398,1.4967 a 23.37122,23.37122 0 0 1 -1.16002,1.7222 c 0.40774,-0.556 0.79939,-1.1246 1.16002,-1.7222 z m -39.5387998,0.6427 c 0.32022,0.4926 0.65817,0.9715 1.01282,1.4366 a 23.37122,23.37122 0 0 1 -1.01282,-1.4366 z m -21.0827602,0.6194 a 42.847239,42.847239 0 0 0 0.45383,1.2774 c -0.15383,-0.425 -0.31281,-0.8468 -0.45383,-1.2774 z m 81.01016,0.887 c -0.1804,0.5116 -0.37305,1.0137 -0.57116,1.5146 a 42.847239,42.847239 0 0 0 0.57116,-1.5146 z m -21.92133,0.063 a 23.37122,23.37122 0 0 1 -1.06087,1.2712 c 0.36681,-0.4101 0.72211,-0.833 1.06087,-1.2712 z m -36.6686698,0.2885 c 0.43405,0.5434 0.88542,1.0711 1.36442,1.5717 a 23.37122,23.37122 0 0 1 -1.36436,-1.5693 z m 35.3102398,1.3193 a 23.37122,23.37122 0 0 1 -1.47266,1.4567 c 0.51164,-0.4609 1.00107,-0.9472 1.47266,-1.4546 z m -33.7985398,0.3975 c 0.43562,0.4471 0.89208,0.8721 1.3614598,1.2833 a 23.37122,23.37122 0 0 1 -1.3614298,-1.2833 z m -22.4652402,0.8626 a 42.847239,42.847239 0 0 0 0.53796,1.1901 c -0.18628,-0.3922 -0.36332,-0.7908 -0.53796,-1.1901 z m 54.43051,0.5021 a 23.37122,23.37122 0 0 1 -1.31041,1.0518 c 0.44854,-0.3351 0.88556,-0.685 1.31041,-1.0518 z m -30.15001,0.3065 c 0.47958,0.3986 0.97145,0.7802 1.48161,1.1391 a 23.37122,23.37122 0 0 1 -1.48161,-1.1391 z m 28.40988,1.064 a 23.37122,23.37122 0 0 1 -1.74009,1.1331 c 0.59778,-0.3499 1.17431,-0.7315 1.74009,-1.1331 z m -26.76298,0.1978 c 0.56671,0.3921 1.15764,0.7505 1.75814,1.091 a 23.37122,23.37122 0 0 1 -1.75814,-1.091 z m 51.33501,0.2949 c -0.0168,0.042 -0.0445,0.084 -0.0624,0.1258 a 42.847239,42.847239 0 0 0 0.0624,-0.1258 z m -26.49546,0.7389 a 23.37122,23.37122 0 0 1 -1.69507,0.8774 c 0.57644,-0.2707 1.14243,-0.5603 1.69507,-0.8774 z m -22.59749,0.3214 c 0.50454,0.2707 1.01724,0.5243 1.54177,0.7579 a 23.37122,23.37122 0 0 1 -1.54177,-0.7579 z m -26.31514,0.3002 a 42.847239,42.847239 0 0 0 0.56797,1.019 c -0.19858,-0.333 -0.37831,-0.6797 -0.56797,-1.019 z m 46.73971,0.4714 a 23.37122,23.37122 0 0 1 -1.73708,0.6914 c 0.58889,-0.2062 1.16763,-0.4398 1.73708,-0.6914 z m -18.51011,0.1533 c 0.63775,0.2707 1.28943,0.5138 1.95345,0.7273 a 23.37122,23.37122 0 0 1 -1.95345,-0.7273 z m 16.53258,0.6279 a 23.37122,23.37122 0 0 1 -1.97753,0.5624 c 0.66799,-0.1616 1.32876,-0.3425 1.97753,-0.5624 z m -14.14035,0.2283 c 0.53743,0.1616 1.0807,0.3034 1.63194,0.427 a 23.37122,23.37122 0 0 1 -1.63194,-0.427 z m 43.00404,0.2495 c -0.18292,0.2938 -0.35435,0.5951 -0.54356,0.8837 a 42.847239,42.847239 0 0 0 0.54356,-0.8837 z m -31.39725,0.2072 a 23.37122,23.37122 0 0 1 -1.63787,0.2949 c 0.55063,-0.084 1.0967,-0.1776 1.63787,-0.2949 z m -9.41882,0.095 c 0.6813,0.1354 1.36811,0.2537 2.06767,0.3277 0.0445,0.01 0.092,0.01 0.13873,0.01 a 23.37122,23.37122 0 0 1 -0.13509,-0.01 23.37122,23.37122 0 0 1 -2.0707,-0.3245 z m 7.30903,0.2738 a 23.37122,23.37122 0 0 1 -2.07965,0.1586 c 0.69811,-0.022 1.392,-0.074 2.07965,-0.1586 z m -4.2105,0.1236 c 0.58892,0.032 1.17423,0.042 1.75814,0.032 a 23.37122,23.37122 0 0 1 -1.75814,-0.032 z m -33.4018498,1.5568 a 42.847239,42.847239 0 0 0 0.25256,0.3753 c -0.0887,-0.1217 -0.16473,-0.2526 -0.25256,-0.3753 z m 2.71989,3.4381 a 42.847239,42.847239 0 0 0 0.83541,0.8901 c -0.27746,-0.297 -0.56629,-0.5846 -0.83541,-0.8901 z m 62.8305598,1.4727 c -0.24081,0.2484 -0.49832,0.4789 -0.74526,0.7209 a 42.847239,42.847239 0 0 0 0.74526,-0.7209 z m -60.0445798,1.3945 a 42.847239,42.847239 0 0 0 1.0459,0.9408 c -0.35171,-0.3097 -0.70465,-0.6194 -1.0459,-0.9408 z m 57.1623898,1.3044 c -0.35887,0.3076 -0.72568,0.6036 -1.09392,0.8985 a 42.847239,42.847239 0 0 0 1.09392,-0.8985 z m -54.10891983,1.3013 a 42.847239,42.847239 0 0 0 1.12399,0.8562 c -0.38108,-0.2769 -0.75253,-0.5666 -1.12399,-0.8562 z m 50.93825983,1.1631 c -0.38374,0.2707 -0.7647,0.5433 -1.15708,0.8023 a 42.847239,42.847239 0 0 0 1.15708,-0.8023 z m -47.4069098,1.3133 a 42.847239,42.847239 0 0 0 0.88363,0.5624 c -0.30056,-0.1787 -0.58797,-0.3753 -0.88363,-0.5624 z m 43.7733898,0.9916 c -0.30646,0.1734 -0.60308,0.3636 -0.91364,0.5296 a 42.847239,42.847239 0 0 0 0.91364,-0.5296 z m -39.3644998,1.4636 a 42.847239,42.847239 0 0 0 0.32452,0.1385 c -0.10628,-0.053 -0.21872,-0.084 -0.32452,-0.1385 z m 34.8534098,0.7876 c -0.12782,0.053 -0.26207,0.095 -0.39081,0.1438 a 42.847239,42.847239 0 0 0 0.39081,-0.1438 z m -31.18683,0.7336 a 42.847239,42.847239 0 0 0 1.21713,0.4028 c -0.40591,-0.1354 -0.81714,-0.2568 -1.21713,-0.4028 z m 27.46014,0.6163 c -0.38997,0.1225 -0.78691,0.2221 -1.18105,0.333 a 42.847239,42.847239 0 0 0 1.18105,-0.333 z m -23.15041,0.7146 a 42.847239,42.847239 0 0 0 0.18936,0.053 c -0.0624,-0.022 -0.12615,-0.032 -0.18936,-0.053 z m 19.24945,0.3002 c -0.43257,0.095 -0.86777,0.1754 -1.30434,0.256 a 42.847239,42.847239 0 0 0 1.30434,-0.256 z m -15.01788,0.5349 a 42.847239,42.847239 0 0 0 1.62285,0.2103 c -0.54451,-0.063 -1.0847,-0.132 -1.62285,-0.2103 z m 11.02668,0.1175 c -0.45561,0.053 -0.91112,0.1121 -1.37035,0.1502 a 42.847239,42.847239 0 0 0 1.37035,-0.1502 z m -5.26535,0.315 a 42.847239,42.847239 0 0 0 0.32421,0 c -0.10824,0 -0.21592,8e-4 -0.32421,0 z m -50.51151,41.3397 c -0.0889,0.01 -0.17341,0.032 -0.26151,0.032 0.0962,-0.01 0.18935,-0.032 0.28551,-0.032 -0.006,8e-4 -0.0168,-7e-4 -0.0252,0 z m 2.6357,0.022 77.47575,8.1686 c 0.38637,0.042 0.76566,0.1057 1.13913,0.1765 -0.37484,-0.074 -0.75234,-0.1396 -1.13913,-0.1807 z m -3.83485,0.1586 c -0.14208,0.032 -0.28025,0.074 -0.42074,0.095 0.14069,-0.032 0.27857,-0.074 0.42074,-0.095 z m -1.2232,0.3002 c -0.11887,0.032 -0.2341,0.085 -0.35169,0.1172 0.11775,-0.032 0.23243,-0.085 0.35169,-0.1172 z m -1.17809,0.4112 c -0.10656,0.042 -0.21005,0.095 -0.31555,0.1384 0.10573,-0.042 0.20921,-0.095 0.31555,-0.1384 z m -1.09698,0.5043 c -0.12446,0.063 -0.24445,0.1364 -0.3667,0.2038 0.12223,-0.074 0.24221,-0.1395 0.3667,-0.2038 z m -1.03088,0.5983 c -0.14181,0.095 -0.27969,0.186 -0.41775,0.2822 0.13761,-0.095 0.27634,-0.1924 0.41775,-0.2822 z m -0.96175,0.6818 c -0.14879,0.1152 -0.29535,0.2327 -0.43881,0.3541 0.14377,-0.1216 0.28999,-0.2388 0.43881,-0.3541 z m -0.91059,0.778 c -0.13873,0.1301 -0.27577,0.261 -0.40877,0.3964 0.13314,-0.1365 0.27018,-0.2662 0.40877,-0.3964 z m -0.84145,0.8647 c -0.12558,0.1418 -0.25032,0.2823 -0.36967,0.4303 0.11887,-0.1469 0.24473,-0.2886 0.36967,-0.4303 z m -0.77539,0.9673 c -0.10768,0.1479 -0.21704,0.2949 -0.31859,0.4471 0.10152,-0.1532 0.21088,-0.3002 0.31859,-0.4471 z m -0.66122,1.0032 c -0.0973,0.165 -0.19494,0.3266 -0.2855,0.4957 0.0909,-0.1692 0.18795,-0.3308 0.2855,-0.4957 z m -0.56796,1.0729 c -0.0856,0.1807 -0.17509,0.3584 -0.25257,0.5434 0.0772,-0.186 0.16726,-0.3637 0.25257,-0.5434 z m -0.46586,1.121 c -0.073,0.2008 -0.15327,0.3985 -0.21648,0.6036 0.0635,-0.2062 0.14376,-0.4038 0.21648,-0.6036 z m -0.36673,1.1841 c -0.0551,0.2137 -0.11803,0.4218 -0.1625,0.6407 0.0445,-0.2179 0.1074,-0.4271 0.1625,-0.6407 z"
           style="display:inline;opacity:1;fill:#1a2026;fill-opacity:1;stroke-width:0.77891845" />
        <path
           id="rect282"
           d="m 212.81457,1776.5636 12.91242,1.3611 c 7.15349,0.754 12.30546,7.12 11.55144,14.2735 l -12.24966,116.2123 c -0.75405,7.1535 -7.1201,12.3055 -14.2736,11.5514 l -12.91242,-1.361 c -7.15352,-0.7541 -12.30546,-7.1201 -11.55144,-14.2736 l 12.24966,-116.2123 c 0.75405,-7.1536 7.12008,-12.3054 14.2736,-11.5514 z"
           style="display:inline;opacity:1;fill:#1a2026;fill-opacity:1;stroke-width:2.59680247"
           inkscape:connector-curvature="0" />
        <path
           inkscape:export-ydpi="96"
           inkscape:export-xdpi="96"
           sodipodi:nodetypes="ccccccccccccccccccccccccccccccccccccccccccaca"
           inkscape:connector-curvature="0"
           id="path337"
           d="m -12.75895,1693.9622 c -1.02667,9.3581 -1.99079,18.7258 -2.97832,28.0883 -0.7536,7.1535 4.39599,13.5184 11.5496802,14.2726 l 77.4757798,8.1685 c 7.15353,0.7527 13.51877,-4.3993 14.27259,-11.5527 l 2.72282,-25.8252 0.26739,-2.2992 z m -53.38165,134.7223 49.16209,5.1812 c 2.54284,19.6612 18.2415402,35.0107 37.95502,37.1105 19.7163,2.0533 38.2671,-9.6857 44.85235,-28.3829 l 48.80444,5.1423 2.04362,-19.3787 -48.71128,-5.1332 C 65.57809,1803.4 49.81438,1787.8532 29.9596,1785.7404 c -19.85407,-2.0667 -38.5051398,9.8501 -44.97258,28.7347 l -49.08995,-5.1754 z m 90.58534,-23.6675 c 0.77896,-0.032 1.55944,-0.032 2.33813,0.01 0.37929,0.032 0.75763,0.053 1.13605,0.095 9.14624,0.9788 16.86795,7.2309 19.72741,15.9736 l -42.3669598,-4.466 c 3.99589,-6.8799 11.2172398,-11.2543 19.1653698,-11.6099 z m -21.0377398,30.9975 42.0333398,4.43 c -4.68054,7.7511 -13.41706,12.1013 -22.42315,11.1651 -9.00634,-0.9598 -16.6474998,-7.036 -19.6101898,-15.5951 z m -27.4992402,76.463 c -6.59635,-0.032 -12.23428,4.9216 -12.9412,11.6278 l -2.72285,25.8253 -0.25536,2.2932 103.25898,10.8524 0.29757,-2.26 2.72285,-25.8222 c 0.75318,-7.1537 -4.39935,-13.519 -11.5527,-14.2726 l -77.47579,-8.1687 c -0.44717,-0.042 -0.89168,-0.074 -1.33139,-0.074 z m -47.77059,26.8862 c 0.91638,1.3852 1.96514,2.6796 3.1286,3.865 -1.16346,-1.1854 -2.21222,-2.4798 -3.1286,-3.865 z m 9.0943,8.3971 c 2.95405,1.6294 6.28086,2.7091 9.85766,3.0865 -3.5768,-0.3774 -6.90361,-1.4571 -9.85766,-3.0865 z"
           style="display:inline;opacity:1;fill:#ffffff;stroke:none;stroke-width:0.7127707" />
      </g>
      <text
         xml:space="preserve"
         style="font-style:italic;font-variant:normal;font-weight:bold;font-stretch:normal;font-size:134.3807373px;line-height:1.25;font-family:'Asap Condensed';-inkscape-font-specification:'Asap Condensed, Bold Italic';letter-spacing:0px;word-spacing:0px;fill:#1a2026;fill-opacity:1;stroke:none;stroke-width:1.57477427"
         x="178.41559"
         y="323.69394"
         id="text837"><tspan
           sodipodi:role="line"
           id="tspan835"
           x="178.41559"
           y="323.69394"
           style="font-style:italic;font-variant:normal;font-weight:bold;font-stretch:normal;font-family:'Asap Condensed';-inkscape-font-specification:'Asap Condensed, Bold Italic';fill:#1a2026;fill-opacity:1;stroke-width:1.57477427">NECHCI</tspan></text>
    </g>
  </g>
</svg>
