<?xml version="1.0" encoding="UTF-8" standalone="no"?>
<!-- Created with Inkscape (http://www.inkscape.org/) -->

<svg
   xmlns:dc="http://purl.org/dc/elements/1.1/"
   xmlns:cc="http://creativecommons.org/ns#"
   xmlns:rdf="http://www.w3.org/1999/02/22-rdf-syntax-ns#"
   xmlns:svg="http://www.w3.org/2000/svg"
   xmlns="http://www.w3.org/2000/svg"
   xmlns:sodipodi="http://sodipodi.sourceforge.net/DTD/sodipodi-0.dtd"
   xmlns:inkscape="http://www.inkscape.org/namespaces/inkscape"
   width="297mm"
   height="210mm"
   viewBox="0 0 297 210"
   version="1.1"
   id="SVGRoot"
   inkscape:version="0.92.4 (5da689c313, 2019-01-14)"
   sodipodi:docname="plakat-podpisove misto-cb.svg">
  <defs
     id="defs5146" />
  <sodipodi:namedview
     id="base"
     pagecolor="#ffffff"
     bordercolor="#666666"
     borderopacity="1.0"
     inkscape:pageopacity="0.0"
     inkscape:pageshadow="2"
     inkscape:zoom="0.35"
     inkscape:cx="518.50308"
     inkscape:cy="19.472796"
     inkscape:document-units="mm"
     inkscape:current-layer="g5940"
     showgrid="false"
     inkscape:window-width="1920"
     inkscape:window-height="1017"
     inkscape:window-x="-8"
     inkscape:window-y="-8"
     inkscape:window-maximized="1" />
  <metadata
     id="metadata5149">
    <rdf:RDF>
      <cc:Work
         rdf:about="">
        <dc:format>image/svg+xml</dc:format>
        <dc:type
           rdf:resource="http://purl.org/dc/dcmitype/StillImage" />
        <dc:title></dc:title>
      </cc:Work>
    </rdf:RDF>
  </metadata>
  <g
     inkscape:label="Vrstva 1"
     inkscape:groupmode="layer"
     id="layer1"
     transform="translate(0,-87)">
    <rect
       style="opacity:1;fill:#ffffff;fill-opacity:1;stroke:none;stroke-width:0.26458332;stroke-opacity:1"
       id="rect5702"
       width="210"
       height="297"
       x="87"
       y="-297"
       transform="rotate(90)" />
    <text
       id="text5948"
       y="301.73193"
       x="39.860744"
       style="font-style:italic;font-variant:normal;font-weight:bold;font-stretch:normal;font-size:39.2760849px;line-height:1.25;font-family:'Asap Condensed';-inkscape-font-specification:'Asap Condensed,  Bold Italic';letter-spacing:0px;word-spacing:0px;fill:#000000;fill-opacity:1;stroke:none;stroke-width:0.46026665"
       xml:space="preserve"><tspan
         style="font-style:italic;font-variant:normal;font-weight:bold;font-stretch:normal;font-family:'Asap Condensed';-inkscape-font-specification:'Asap Condensed,  Bold Italic';stroke-width:0.46026665"
         y="338.65179"
         x="39.860744"
         id="tspan5946"
         sodipodi:role="line" /></text>
    <g
       id="g5940"
       transform="matrix(1.4274126,0,0,1.4274126,-0.5899692,75.340242)">
      <path
         sodipodi:nodetypes="ccccccccccc"
         inkscape:connector-curvature="0"
         style="opacity:1;fill:#96999c;fill-opacity:1;stroke-width:0.0708839"
         d="m 37.289909,21.217147 c -3.001487,-0.01202 -5.567417,2.237749 -5.889074,5.289284 l -1.981584,18.801211 c -0.34309,3.25493 2.000875,6.15161 5.255805,6.4947 l 15.27606,1.6099 c 3.254931,0.343123 6.151589,-2.000809 6.494701,-5.255772 l 1.98189,-18.80121 c 0.343111,-3.254963 -2.001214,-6.151622 -5.256144,-6.494701 L 37.895535,21.250287 c -0.20346,-0.02109 -0.405543,-0.03246 -0.605626,-0.03311 z"
         id="path1381" />
      <path
         style="opacity:1;fill:#1a2026;fill-opacity:1;stroke-width:0.0774622"
         d="m 36.498025,19.902715 c -3.280058,-0.01803 -6.084315,2.445701 -6.435799,5.780386 l -2.165392,20.545955 c -0.374929,3.557 2.186553,6.722545 5.743586,7.097506 l 16.693692,1.759215 c 3.557022,0.374929 6.722567,-2.186552 7.097496,-5.743575 l 2.165698,-20.545985 c 0.374929,-3.55699 -2.186858,-6.722568 -5.743913,-7.097465 L 37.159734,19.9392 C 36.93731,19.91515 36.716689,19.90335 36.498025,19.9028 Z m 3.843287,4.279075 v 9.97e-4 c 0.08755,8.75e-4 0.175481,0.0065 0.26457,0.01202 l 1.285807,0.136647 10.274005,1.079274 1.281587,0.136952 c 1.422824,0.150188 2.447777,1.41631 2.297797,2.839102 l -0.981222,9.309778 -0.203461,1.927196 -0.981223,9.310116 c -0.150188,1.422846 -1.416255,2.447504 -2.839068,2.297524 L 49.450133,51.094443 39.181189,50.015202 37.898421,49.878556 c -1.422879,-0.150189 -2.447198,-1.416255 -2.297218,-2.839047 l 0.981518,-9.309844 0.202564,-1.927764 0.981518,-9.309843 c 0.140559,-1.333909 1.26222,-2.317635 2.574269,-2.311853 z m 1.254121,2.944903 c -0.01803,0.177874 -7.76e-4,0.350785 0.04787,0.511389 -0.04842,-0.160725 -0.06657,-0.333483 -0.04787,-0.511389 z m 0.08995,0.629137 c 0.04787,0.115573 0.111661,0.223025 0.189613,0.319329 -0.07761,-0.09596 -0.141761,-0.203756 -0.189613,-0.319329 z m 0.27208,0.411588 c 0.115583,0.117977 0.254033,0.213384 0.410057,0.280505 -0.155609,-0.06678 -0.294354,-0.162822 -0.410057,-0.280505 z m 9.120919,1.101036 c -0.07705,0.03039 -0.157413,0.05629 -0.240776,0.07258 0.08306,-0.01803 0.16373,-0.04066 0.240776,-0.07258 z m -5.363684,4.169426 a 4.2610892,4.2610892 0 0 0 -0.0087,6.01e-4 c 0.0065,0 0.01202,-5.5e-5 0.02109,0 a 4.2610892,4.2610892 0 0 0 -0.0087,-6.01e-4 z m -0.780975,0.07225 a 4.2610892,4.2610892 0 0 0 -0.128219,0.02404 c 0.04273,-0.0065 0.08514,-0.01803 0.128219,-0.02404 z m 1.806716,0.05924 c 0.0065,8.75e-4 0.01202,0.0022 0.01202,0.0022 a 4.2610892,4.2610892 0 0 0 -0.01202,-0.0022 z m -2.208435,0.03486 a 4.2610892,4.2610892 0 0 0 -0.113462,0.03367 c 0.0376,-0.0087 0.07586,-0.02109 0.113462,-0.03367 z m -0.420495,0.14327 a 4.2610892,4.2610892 0 0 0 -0.06776,0.0271 c 0.02109,-0.0087 0.04547,-0.01803 0.06776,-0.0271 z m -0.423535,0.195634 a 4.2610892,4.2610892 0 0 0 -0.09115,0.05301 c 0.03039,-0.01804 0.06022,-0.0364 0.09115,-0.05301 z m 4.206446,0.110764 c 0.03006,0.01803 0.05782,0.03727 0.08667,0.05596 a 4.2610892,4.2610892 0 0 0 -0.08667,-0.05596 z m -4.545077,0.09301 a 4.2610892,4.2610892 0 0 0 -0.113769,0.07946 c 0.03793,-0.0271 0.0752,-0.05388 0.113769,-0.07946 z m 4.868482,0.124908 c 0.03727,0.0271 0.074,0.05596 0.110458,0.08492 a 4.2610892,4.2610892 0 0 0 -0.110458,-0.08492 z m -5.191286,0.112567 a 4.2610892,4.2610892 0 0 0 -0.108971,0.08995 c 0.03585,-0.03039 0.07225,-0.06023 0.108971,-0.08995 z m 5.504811,0.143859 c 0.03311,0.03039 0.06678,0.05924 0.09902,0.08995 a 4.2610892,4.2610892 0 0 0 -0.09902,-0.08995 z m -5.81145,0.129422 a 4.2610892,4.2610892 0 0 0 -0.09116,0.08941 c 0.03006,-0.03039 0.06045,-0.05957 0.09116,-0.08941 z m 6.12528,0.182694 c 0.01803,0.02109 0.0388,0.04 0.05749,0.06164 a 4.2610892,4.2610892 0 0 0 -0.05749,-0.06164 z m -6.459418,0.181196 a 4.2610892,4.2610892 0 0 0 -0.01508,0.01803 c 0.0065,-0.0065 0.01202,-0.01202 0.01508,-0.01803 z m 6.766364,0.195033 c 0.0087,0.01202 0.01803,0.03039 0.03006,0.04481 a 4.2610892,4.2610892 0 0 0 -0.03006,-0.04481 z m -7.026081,0.161326 a 4.2610892,4.2610892 0 0 0 -0.01202,0.01803 c 0.0022,-0.0065 0.0065,-0.0087 0.01202,-0.01803 z m 3.465495,3.27e-4 c -0.06951,0.0022 -0.137541,0.0087 -0.205864,0.01803 a 2.3242305,2.3242305 0 0 1 0.205864,-0.01803 z m 0.23236,8.75e-4 v 2.95e-4 a 2.3242305,2.3242305 0 0 1 0.113168,0.0065 2.3242305,2.3242305 0 0 1 0.207974,0.03366 c -0.06832,-0.01202 -0.137542,-0.0271 -0.207974,-0.03366 -0.0376,-0.0022 -0.0752,-0.0065 -0.113168,-0.0065 z m -0.484787,0.02404 c -0.06624,0.0087 -0.13153,0.02405 -0.19594,0.03858 a 2.3242305,2.3242305 0 0 1 0.19594,-0.03858 z m 0.858688,0.0271 a 2.3242305,2.3242305 0 0 1 0.160725,0.04219 c -0.05301,-0.01803 -0.106567,-0.03039 -0.160725,-0.04219 z m -1.089723,0.01803 c -0.05902,0.01803 -0.117378,0.03378 -0.174562,0.05301 a 2.3242305,2.3242305 0 0 1 0.174562,-0.05301 z m 1.298332,0.03672 a 2.3242305,2.3242305 0 0 1 0.198049,0.074 c -0.06471,-0.0271 -0.130929,-0.05202 -0.198049,-0.074 z m -1.507838,0.0271 c -0.06383,0.02404 -0.126415,0.04941 -0.187808,0.07858 a 2.3242305,2.3242305 0 0 1 0.187808,-0.07858 z m 4.469747,0.03552 c 0.01803,0.03039 0.03399,0.06263 0.05148,0.09356 a 4.2610892,4.2610892 0 0 0 -0.05148,-0.09356 z m -2.745803,0.0211 a 2.3242305,2.3242305 0 0 1 0.168846,0.08252 c -0.05509,-0.03039 -0.111355,-0.05716 -0.168846,-0.08252 z m -1.946007,0.04 c -0.06285,0.03039 -0.125213,0.06383 -0.185404,0.0999 a 2.3242305,2.3242305 0 0 1 0.185404,-0.0999 z m -0.185404,0.0999 c -0.06077,0.03672 -0.119191,0.07705 -0.176376,0.119191 a 2.3242305,2.3242305 0 0 1 0.176376,-0.119191 z m 2.347397,-0.03367 a 2.3242305,2.3242305 0 0 1 0.17125,0.106895 C 46.954332,35.7436 46.89689,35.7084 46.838502,35.674955 Z m -4.921633,0.05749 a 4.2610892,4.2610892 0 0 0 -0.01202,0.0271 c 0.0065,-0.0087 0.01202,-0.01803 0.01202,-0.0271 z m 5.098577,0.05301 a 2.3242305,2.3242305 0 0 1 0.165239,0.127311 c -0.05356,-0.04481 -0.108097,-0.08755 -0.165239,-0.127311 z m -2.727889,0.0611 c -0.05421,0.04154 -0.106895,0.08492 -0.157413,0.130929 a 2.3242305,2.3242305 0 0 1 0.157413,-0.130929 z m 5.263598,0.05356 c 0.01803,0.03946 0.03618,0.07979 0.05323,0.120087 a 4.2610892,4.2610892 0 0 0 -0.05323,-0.120087 z m -2.3271,0.05082 a 2.3242305,2.3242305 0 0 1 0.121891,0.114983 c -0.03912,-0.03968 -0.07979,-0.07793 -0.121891,-0.114983 z m -3.12329,0.05542 c -0.04481,0.04241 -0.08788,0.0858 -0.129421,0.131825 a 2.3242305,2.3242305 0 0 1 0.129421,-0.131825 z m 3.274527,0.08941 a 2.3242305,2.3242305 0 0 1 0.137247,0.158309 c -0.04329,-0.05509 -0.08941,-0.107769 -0.137247,-0.158309 z m -3.422759,0.06263 c -0.04514,0.05116 -0.08755,0.104709 -0.128514,0.16043 a 2.3242305,2.3242305 0 0 1 0.128514,-0.16043 z m 3.584479,0.127924 a 2.3242305,2.3242305 0 0 1 0.09782,0.138449 c -0.03104,-0.04755 -0.0635,-0.09334 -0.09782,-0.138449 z m 2.194945,0.06285 c 0.0011,0.0022 0.0022,0.0065 0.0022,0.0087 a 4.2610892,4.2610892 0 0 0 -0.0022,-0.0087 z m -5.932475,0.0022 c -0.04,0.05661 -0.0788,0.114666 -0.114065,0.175163 a 2.3242305,2.3242305 0 0 1 2.95e-4,0 2.3242305,2.3242305 0 0 1 0.11377,-0.175163 z m 3.866918,0.121289 a 2.3242305,2.3242305 0 0 1 0.09662,0.170955 c -0.03006,-0.05902 -0.0623,-0.115573 -0.09662,-0.170955 z m 0.102304,0.181491 a 2.3242305,2.3242305 0 0 1 0.08362,0.191121 c -0.02711,-0.06503 -0.05269,-0.129421 -0.08362,-0.191121 z m 2.075427,0.0975 c 0.0011,0.0065 0.0022,0.01202 0.0065,0.02109 a 4.2610892,4.2610892 0 0 0 -0.0065,-0.02109 z m -6.345233,1.703023 c 0.0011,0.0065 0.0022,0.0065 0.0065,0.01202 a 2.3242305,2.3242305 0 0 1 -0.0065,-0.01202 z m 0.03705,0.09542 c 0.0211,0.05323 0.04394,0.105037 0.06897,0.156199 a 2.3242305,2.3242305 0 0 1 -0.06897,-0.156199 z m -1.991726,0.09422 a 4.2610892,4.2610892 0 0 0 0.0087,0.03553 c -0.0022,-0.0087 -0.0065,-0.02405 -0.0087,-0.03553 z m 2.079308,0.102086 c 0.03158,0.0623 0.0659,0.122502 0.102632,0.181185 A 2.3242305,2.3242305 0 0 1 43.62386,38.746375 Z m 4.055514,0.148985 a 2.3242305,2.3242305 0 0 1 -0.115584,0.17125 c 0.04066,-0.05541 0.07946,-0.111955 0.115584,-0.17125 z m -3.932083,0.06383 c 0.03159,0.04875 0.06536,0.09662 0.100556,0.143259 a 2.3242305,2.3242305 0 0 1 -0.100556,-0.143259 z m -2.096642,0.06164 a 4.2610892,4.2610892 0 0 0 0.04481,0.127006 c -0.01508,-0.04219 -0.03104,-0.08427 -0.04481,-0.127006 z m 8.056323,0.0882 c -0.01803,0.05083 -0.03705,0.100883 -0.05684,0.150493 a 4.2610892,4.2610892 0 0 0 0.05684,-0.150493 z m -2.180049,0.0065 a 2.3242305,2.3242305 0 0 1 -0.105582,0.126711 c 0.0364,-0.04066 0.07159,-0.08274 0.105582,-0.126711 z m -3.646625,0.0271 c 0.04307,0.05388 0.0882,0.106567 0.135738,0.156211 A 2.3242305,2.3242305 0 0 1 43.87997,39.142666 Z m 3.511543,0.131224 a 2.3242305,2.3242305 0 0 1 -0.146568,0.144536 c 0.05082,-0.0458 0.09957,-0.09422 0.146571,-0.144472 z m -3.36118,0.03946 c 0.0434,0.04459 0.08875,0.087 0.135148,0.127617 a 2.3242305,2.3242305 0 0 1 -0.135148,-0.127617 z m -2.234131,0.0858 a 4.2610892,4.2610892 0 0 0 0.05356,0.118284 c -0.01803,-0.03913 -0.03618,-0.07859 -0.05356,-0.118284 z m 5.413043,0.05028 a 2.3242305,2.3242305 0 0 1 -0.130328,0.104381 c 0.04459,-0.03367 0.0882,-0.06799 0.130328,-0.104381 z m -2.998415,0.03039 c 0.04787,0.03968 0.09662,0.07738 0.147488,0.113168 A 2.3242305,2.3242305 0 0 1 44.21083,39.479814 Z m 2.825318,0.105692 a 2.3242305,2.3242305 0 0 1 -0.173065,0.112874 c 0.05957,-0.03465 0.116787,-0.07279 0.173065,-0.112874 z m -2.66149,0.01803 c 0.05629,0.0388 0.115278,0.07498 0.174868,0.108315 A 2.3242305,2.3242305 0 0 1 44.37466,39.6036 Z m 5.105136,0.03039 c -0.0022,0.0065 -0.0065,0.0065 -0.0087,0.01202 a 4.2610892,4.2610892 0 0 0 0.0087,-0.01202 z m -2.63492,0.07378 a 2.3242305,2.3242305 0 0 1 -0.168539,0.08733 c 0.05716,-0.0271 0.113463,-0.05596 0.168539,-0.08733 z m -2.247278,0.03366 c 0.04995,0.0271 0.101101,0.05203 0.153193,0.07553 a 2.3242305,2.3242305 0 0 1 -0.153193,-0.07553 z m -2.616984,0.03039 a 4.2610892,4.2610892 0 0 0 0.05629,0.10143 c -0.01803,-0.03367 -0.0376,-0.06744 -0.05629,-0.10143 z m 4.648167,0.047 a 2.3242305,2.3242305 0 0 1 -0.172769,0.06831 c 0.0587,-0.0211 0.116185,-0.04361 0.172769,-0.06831 z m -1.840817,0.01803 c 0.0635,0.0271 0.128219,0.05115 0.194432,0.07258 a 2.3242305,2.3242305 0 0 1 -0.194432,-0.07258 z m 1.644155,0.0623 a 2.3242305,2.3242305 0 0 1 -0.196837,0.05596 c 0.06657,-0.01803 0.132121,-0.03399 0.196837,-0.05596 z m -1.406233,0.02405 c 0.05356,0.01803 0.107441,0.03039 0.162223,0.04273 a 2.3242305,2.3242305 0 0 1 -0.162223,-0.04273 z m 4.276692,0.02404 c -0.01803,0.03039 -0.03519,0.05924 -0.05388,0.08788 a 4.2610892,4.2610892 0 0 0 0.05388,-0.08788 z m -3.122405,0.02109 a 2.3242305,2.3242305 0 0 1 -0.162834,0.03039 c 0.05476,-0.0065 0.108972,-0.01803 0.162834,-0.03039 z m -0.936683,0.0054 c 0.06776,0.01202 0.136045,0.0271 0.205876,0.03378 0.0054,4.81e-4 0.01202,4.81e-4 0.01202,8.63e-4 a 2.3242305,2.3242305 0 0 1 -0.01202,-8.63e-4 2.3242305,2.3242305 0 0 1 -0.205876,-0.03378 z m 0.726862,0.0271 a 2.3242305,2.3242305 0 0 1 -0.206772,0.01803 c 0.06951,-0.0022 0.13846,-0.0065 0.206772,-0.01803 z m -0.418714,0.01202 c 0.0587,0.0022 0.116775,0.0065 0.174867,0.0022 a 2.3242305,2.3242305 0 0 1 -0.174865,-0.0021 z m -3.321787,0.155097 a 4.2610892,4.2610892 0 0 0 0.0271,0.03728 c -0.0087,-0.01202 -0.01508,-0.0271 -0.0271,-0.03728 z m 0.270582,0.341943 a 4.2610892,4.2610892 0 0 0 0.08306,0.08853 c -0.0271,-0.03039 -0.05629,-0.05782 -0.08306,-0.08853 z m 6.248416,0.14657 c -0.02405,0.02405 -0.04962,0.04787 -0.074,0.07159 a 4.2610892,4.2610892 0 0 0 0.074,-0.07159 z m -5.971332,0.138755 a 4.2610892,4.2610892 0 0 0 0.104162,0.09334 c -0.03487,-0.03039 -0.07017,-0.06142 -0.104162,-0.09334 z m 5.684706,0.129717 c -0.03585,0.03039 -0.07225,0.05989 -0.108972,0.08941 a 4.2610892,4.2610892 0 0 0 0.108972,-0.08941 z m -5.38105,0.129421 a 4.2610892,4.2610892 0 0 0 0.111659,0.08514 c -0.03793,-0.0271 -0.07498,-0.05629 -0.111659,-0.08514 z m 5.065711,0.115583 c -0.03825,0.02711 -0.07586,0.05421 -0.115267,0.07979 a 4.2610892,4.2610892 0 0 0 0.115267,-0.07979 z m -4.714523,0.130318 a 4.2610892,4.2610892 0 0 0 0.08788,0.05596 c -0.03006,-0.0211 -0.0587,-0.03728 -0.08788,-0.05596 z m 4.353202,0.0987 c -0.03039,0.01803 -0.06022,0.0364 -0.09094,0.05269 a 4.2610892,4.2610892 0 0 0 0.09094,-0.05269 z m -3.914737,0.145379 a 4.2610892,4.2610892 0 0 0 0.03224,0.01202 c -0.0087,-0.0065 -0.02109,-0.0065 -0.03224,-0.01202 z m 3.466129,0.07859 c -0.01202,0.0065 -0.0271,0.0065 -0.0388,0.01202 a 4.2610892,4.2610892 0 0 0 0.0388,-0.01202 z m -3.101496,0.07312 a 4.2610892,4.2610892 0 0 0 0.120994,0.04 c -0.04033,-0.01202 -0.0812,-0.0271 -0.120994,-0.04 z m 2.730874,0.06142 c -0.03858,0.01202 -0.07826,0.0211 -0.117683,0.03366 a 4.2610892,4.2610892 0 0 0 0.117683,-0.03366 z m -2.302279,0.07104 a 4.2610892,4.2610892 0 0 0 0.01803,0.0065 c -0.0065,-0.0022 -0.01202,-0.0022 -0.01803,-0.0065 z m 1.91431,0.03039 c -0.04307,0.0065 -0.08635,0.01803 -0.129717,0.0271 a 4.2610892,4.2610892 0 0 0 0.129717,-0.0271 z m -1.493486,0.05323 a 4.2610892,4.2610892 0 0 0 0.161632,0.02109 c -0.05388,-0.0065 -0.107769,-0.01202 -0.161632,-0.02109 z m 1.096588,0.0087 c -0.04514,0.0065 -0.09061,0.0087 -0.13634,0.01803 a 4.2610892,4.2610892 0 0 0 0.13634,-0.01803 z m -0.523642,0.03039 a 4.2610892,4.2610892 0 0 0 0.03224,0 c -0.0087,0 -0.0211,8.7e-5 -0.03224,0 z m -5.023303,4.11106 c -0.0087,8.74e-4 -0.01508,0.0022 -0.0271,0.0022 0.0087,-8.74e-4 0.01803,-0.0022 0.0271,-0.0022 -7.54e-4,9.8e-5 -0.0011,-2.2e-5 -0.0022,0 z m 0.262153,0.0022 7.70484,0.812377 c 0.03825,0.0065 0.07651,0.0087 0.113168,0.01803 -0.03727,-0.0065 -0.07498,-0.01202 -0.113168,-0.01803 z m -0.381377,0.01804 c -0.01202,0.0022 -0.0271,0.0065 -0.04186,0.0087 0.01202,-0.0022 0.0271,-0.0065 0.04186,-0.0087 z m -0.121891,0.03039 c -0.01202,0.0022 -0.02404,0.0054 -0.03486,0.0087 0.0087,-0.0022 0.02405,-0.0065 0.03486,-0.0087 z m -0.117387,0.04121 c -0.0087,0.0065 -0.02109,0.0065 -0.03126,0.01202 0.01202,-0.0065 0.02109,-0.0087 0.03126,-0.01202 z m -0.108971,0.05027 c -0.01202,0.0065 -0.02405,0.01202 -0.0364,0.02109 0.01202,-0.0065 0.02404,-0.01202 0.0364,-0.02109 z m -0.102632,0.05924 c -0.01202,0.0065 -0.0271,0.01803 -0.04154,0.0271 0.01202,-0.0087 0.0271,-0.01803 0.04154,-0.0271 z m -0.09542,0.06776 c -0.01508,0.0087 -0.03006,0.02404 -0.04361,0.03553 0.01202,-0.01202 0.03006,-0.02404 0.04361,-0.03553 z m -0.09061,0.07705 c -0.01202,0.01202 -0.0271,0.0271 -0.04066,0.03946 0.01202,-0.01202 0.0271,-0.0271 0.04066,-0.03946 z m -0.08373,0.08613 c -0.01202,0.01202 -0.02405,0.0271 -0.03672,0.04273 0.01202,-0.01803 0.02404,-0.02711 0.03672,-0.04273 z m -0.07705,0.09629 c -0.01202,0.01803 -0.02109,0.03039 -0.03158,0.04459 0.01202,-0.01803 0.02109,-0.03039 0.03158,-0.04459 z m -0.06558,0.09957 c -0.01202,0.01803 -0.01803,0.03378 -0.02711,0.04908 0.0087,-0.01803 0.01803,-0.03367 0.02711,-0.04908 z m -0.05629,0.106895 c -0.0087,0.01803 -0.01804,0.03585 -0.0271,0.05388 0.0087,-0.01803 0.01508,-0.0364 0.0271,-0.05388 z m -0.04634,0.111365 c -0.0087,0.02109 -0.01508,0.03946 -0.0211,0.05989 0.0065,-0.0211 0.01202,-0.04033 0.0211,-0.05989 z m -0.0364,0.117978 c -0.0065,0.02109 -0.01202,0.04219 -0.01508,0.06415 0.0065,-0.0211 0.01202,-0.04273 0.01508,-0.06415 z"
         id="path1385"
         inkscape:connector-curvature="0" />
      <path
         id="rect1387"
         d="m 64.324661,32.547824 1.284091,0.135443 c 0.711428,0.07498 1.223778,0.708084 1.148777,1.41948 l -1.218215,11.557101 c -0.07498,0.711428 -0.708052,1.223746 -1.419469,1.148778 L 62.83571,46.673182 c -0.711384,-0.07498 -1.223747,-0.708084 -1.148767,-1.41948 L 62.905148,33.69657 c 0.07498,-0.711385 0.708084,-1.223715 1.419513,-1.148746 z"
         style="opacity:1;fill:#1a2026;fill-opacity:1;stroke-width:0.25824782"
         inkscape:connector-curvature="0" />
      <g
         id="text1391"
         style="font-style:italic;font-variant:normal;font-weight:bold;font-stretch:normal;font-size:5.5690589px;line-height:0.89999998;font-family:'Asap Condensed';-inkscape-font-specification:'Asap Condensed, Bold Italic';letter-spacing:-0.0598399px;word-spacing:0px;opacity:1;fill:#1a2026;fill-opacity:1;stroke:none;stroke-width:0.06526242"
         aria-label="NECHCI STADION"
         transform="matrix(3.0097875,0,0,3.0097875,-84.554507,-528.6793)">
        <path
           id="path2740"
           style="font-style:italic;font-variant:normal;font-weight:bold;font-stretch:normal;line-height:0.89999998;font-family:'Asap Condensed';-inkscape-font-specification:'Asap Condensed, Bold Italic';letter-spacing:-0.0598399px;fill:#1a2026;fill-opacity:1;stroke-width:0.06526242"
           d="m 51.854265,186.89485 q -0.328575,0 -0.300729,-0.17821 l 0.373127,-3.5642 q 0.01671,-0.17821 0.339712,-0.17821 h 0.144796 q 0.105812,0 0.167072,0.0334 0.06683,0.0278 0.105812,0.12252 l 0.796375,1.8712 q 0.07797,0.18378 0.144796,0.43439 l 0.02228,-0.0111 q -0.01114,-0.17821 -0.01114,-0.26732 0,-0.0613 0.01114,-0.17264 l 0.206055,-1.83222 q 0.01671,-0.17821 0.339713,-0.17821 h 0.133657 q 0.323005,0 0.306298,0.17821 l -0.373127,3.5642 q -0.02784,0.17821 -0.345281,0.17821 h -0.105812 q -0.111382,0 -0.17821,-0.0334 -0.06683,-0.0334 -0.105812,-0.12252 l -0.846497,-1.94917 q -0.03898,-0.0835 -0.0724,-0.19492 -0.02784,-0.11695 -0.03898,-0.1615 l -0.03341,0.0167 q 0.0056,0.0446 0.01114,0.10582 0.0056,0.0557 0.0056,0.13365 0,0.0501 -0.01114,0.13923 l -0.206055,1.88791 q -0.01671,0.17821 -0.345282,0.17821 z"
           inkscape:connector-curvature="0" />
        <path
           id="path2742"
           style="font-style:italic;font-variant:normal;font-weight:bold;font-stretch:normal;line-height:0.89999998;font-family:'Asap Condensed';-inkscape-font-specification:'Asap Condensed, Bold Italic';letter-spacing:-0.0598399px;fill:#1a2026;fill-opacity:1;stroke-width:0.06526242"
           d="m 54.995764,186.88371 q -0.111381,0 -0.155934,-0.0501 -0.03898,-0.0557 -0.02784,-0.17264 l 0.367558,-3.45282 q 0.01114,-0.11695 0.06683,-0.16707 0.05569,-0.0557 0.161503,-0.0557 h 1.642872 q 0.139227,0 0.139227,0.20049 l -0.0056,0.078 -0.01671,0.17265 q -0.02228,0.27845 -0.194917,0.27845 h -0.980155 l -0.08354,0.80751 h 0.868774 q 0.139226,0 0.139226,0.20049 l -0.0056,0.078 -0.01671,0.17265 q -0.02228,0.27845 -0.194917,0.27845 h -0.868773 l -0.09467,0.90219 h 0.985723 q 0.0724,0 0.100243,0.0501 0.03341,0.0446 0.03341,0.14479 l -0.0056,0.0835 -0.01671,0.17264 q -0.02228,0.27845 -0.189348,0.27845 z"
           inkscape:connector-curvature="0" />
        <path
           id="path2744"
           style="font-style:italic;font-variant:normal;font-weight:bold;font-stretch:normal;line-height:0.89999998;font-family:'Asap Condensed';-inkscape-font-specification:'Asap Condensed, Bold Italic';letter-spacing:-0.0598399px;fill:#1a2026;fill-opacity:1;stroke-width:0.06526242"
           d="m 58.635281,186.92827 q -0.679426,0 -0.996862,-0.36199 -0.311867,-0.36199 -0.311867,-1.11938 0,-1.21963 0.445525,-1.86007 0.451093,-0.64601 1.308728,-0.64601 0.256177,0 0.478939,0.0613 0.150365,0.0445 0.150365,0.20048 0,0.039 -0.0056,0.0557 -0.03341,0.21719 -0.122519,0.37312 -0.0891,0.15037 -0.194917,0.11695 -0.167072,-0.0557 -0.345282,-0.0557 -0.378696,0 -0.601458,0.43996 -0.217194,0.43438 -0.217194,1.18621 0,0.42325 0.139227,0.64044 0.144795,0.21162 0.445525,0.21162 0.161502,0 0.373126,-0.0613 0.01671,-0.006 0.05569,-0.006 0.08354,0 0.128088,0.0947 0.04455,0.0891 0.04455,0.25618 0,0.18934 -0.04455,0.27288 -0.03898,0.078 -0.150364,0.11695 -0.100243,0.0334 -0.256177,0.0557 -0.155934,0.0279 -0.323005,0.0279 z"
           inkscape:connector-curvature="0" />
        <path
           id="path2746"
           style="font-style:italic;font-variant:normal;font-weight:bold;font-stretch:normal;line-height:0.89999998;font-family:'Asap Condensed';-inkscape-font-specification:'Asap Condensed, Bold Italic';letter-spacing:-0.0598399px;fill:#1a2026;fill-opacity:1;stroke-width:0.06526242"
           d="m 60.079,186.89485 q -0.323006,0 -0.306299,-0.17821 l 0.378696,-3.5642 q 0.01671,-0.17821 0.339713,-0.17821 h 0.233901 q 0.317436,0 0.300729,0.17821 l -0.144796,1.37556 h 0.952309 l 0.144796,-1.37556 q 0.01671,-0.17821 0.339712,-0.17821 h 0.228332 q 0.323005,0 0.306298,0.17821 l -0.378696,3.5642 q -0.01671,0.17821 -0.339713,0.17821 h -0.228331 q -0.323005,0 -0.306298,-0.17821 l 0.155933,-1.45352 h -0.952309 l -0.155933,1.45352 q -0.01671,0.17821 -0.334144,0.17821 z"
           inkscape:connector-curvature="0" />
        <path
           id="path2748"
           style="font-style:italic;font-variant:normal;font-weight:bold;font-stretch:normal;line-height:0.89999998;font-family:'Asap Condensed';-inkscape-font-specification:'Asap Condensed, Bold Italic';letter-spacing:-0.0598399px;fill:#1a2026;fill-opacity:1;stroke-width:0.06526242"
           d="m 64.368448,186.92827 q -0.679425,0 -0.996861,-0.36199 -0.311868,-0.36199 -0.311868,-1.11938 0,-1.21963 0.445525,-1.86007 0.451094,-0.64601 1.308729,-0.64601 0.256177,0 0.478939,0.0613 0.150365,0.0445 0.150365,0.20048 0,0.039 -0.0056,0.0557 -0.03342,0.21719 -0.12252,0.37312 -0.08911,0.15037 -0.194917,0.11695 -0.167071,-0.0557 -0.345281,-0.0557 -0.378696,0 -0.601459,0.43996 -0.217193,0.43438 -0.217193,1.18621 0,0.42325 0.139226,0.64044 0.144796,0.21162 0.445525,0.21162 0.161503,0 0.373127,-0.0613 0.01671,-0.006 0.05569,-0.006 0.08354,0 0.128088,0.0947 0.04455,0.0891 0.04455,0.25618 0,0.18934 -0.04455,0.27288 -0.03898,0.078 -0.150365,0.11695 -0.100243,0.0334 -0.256176,0.0557 -0.155934,0.0279 -0.323006,0.0279 z"
           inkscape:connector-curvature="0" />
        <path
           id="path2750"
           style="font-style:italic;font-variant:normal;font-weight:bold;font-stretch:normal;line-height:0.89999998;font-family:'Asap Condensed';-inkscape-font-specification:'Asap Condensed, Bold Italic';letter-spacing:-0.0598399px;fill:#1a2026;fill-opacity:1;stroke-width:0.06526242"
           d="m 65.784322,186.90042 q -0.323005,0 -0.306298,-0.18378 l 0.378696,-3.5642 q 0.01671,-0.18378 0.339712,-0.18378 h 0.233901 q 0.317436,0 0.300729,0.18378 l -0.378696,3.5642 q -0.01671,0.18378 -0.334143,0.18378 z"
           inkscape:connector-curvature="0" />
        <path
           id="path2752"
           style="font-style:italic;font-variant:normal;font-weight:bold;font-stretch:normal;line-height:0.89999998;font-family:'Asap Condensed';-inkscape-font-specification:'Asap Condensed, Bold Italic';letter-spacing:-0.0598399px;fill:#1a2026;fill-opacity:1;stroke-width:0.06526242"
           d="m 68.487439,186.92827 q -0.300729,0 -0.556906,-0.0891 -0.150364,-0.0557 -0.261746,-0.13923 -0.105812,-0.0835 -0.105812,-0.18378 -0.0056,-0.1615 0.07797,-0.35085 0.08354,-0.18934 0.194917,-0.18934 0.04455,0 0.133658,0.0501 0.0891,0.0445 0.139226,0.0724 0.211624,0.10024 0.406541,0.10024 0.183779,0 0.317437,-0.0947 0.133657,-0.10024 0.133657,-0.30629 0,-0.17821 -0.111381,-0.29516 -0.105812,-0.11695 -0.334144,-0.26732 -0.217193,-0.14479 -0.356419,-0.26731 -0.139227,-0.12252 -0.23947,-0.32858 -0.09467,-0.20605 -0.09467,-0.49564 0,-0.35642 0.161503,-0.62931 0.167072,-0.27845 0.451094,-0.42325 0.284022,-0.15036 0.634872,-0.15036 0.17821,0 0.367558,0.0445 0.194917,0.039 0.317437,0.11138 0.133657,0.078 0.133657,0.19492 0,0.15036 -0.0724,0.32857 -0.0724,0.17265 -0.17821,0.17265 -0.05012,0 -0.167071,-0.039 -0.211625,-0.078 -0.350851,-0.078 -0.261746,0 -0.345282,0.12252 -0.08354,0.12252 -0.08354,0.25618 0,0.17821 0.100243,0.28959 0.100243,0.10581 0.228332,0.18935 0.128088,0.078 0.167071,0.10581 0.328575,0.21163 0.484509,0.44553 0.155933,0.22833 0.155933,0.57361 0,0.59032 -0.361989,0.93003 -0.361988,0.33972 -0.985723,0.33972 z"
           inkscape:connector-curvature="0" />
        <path
           id="path2754"
           style="font-style:italic;font-variant:normal;font-weight:bold;font-stretch:normal;line-height:0.89999998;font-family:'Asap Condensed';-inkscape-font-specification:'Asap Condensed, Bold Italic';letter-spacing:-0.0598399px;fill:#1a2026;fill-opacity:1;stroke-width:0.06526242"
           d="m 70.908615,186.89485 q -0.323006,0 -0.306299,-0.17821 l 0.317437,-3.00172 h -0.618166 q -0.0724,0 -0.105812,-0.0446 -0.03341,-0.0446 -0.03341,-0.1448 0,-0.0557 0.0056,-0.0891 l 0.02228,-0.17265 q 0.01671,-0.14479 0.06126,-0.21162 0.04455,-0.0668 0.128088,-0.0668 h 2.116242 q 0.07797,0 0.111382,0.0446 0.03341,0.0446 0.03341,0.1448 0,0.0557 -0.0056,0.0891 l -0.02228,0.17265 q -0.01671,0.14479 -0.06126,0.21162 -0.04455,0.0668 -0.133657,0.0668 h -0.623735 l -0.317436,3.00172 q -0.01671,0.17821 -0.339713,0.17821 z"
           inkscape:connector-curvature="0" />
        <path
           id="path2756"
           style="font-style:italic;font-variant:normal;font-weight:bold;font-stretch:normal;line-height:0.89999998;font-family:'Asap Condensed';-inkscape-font-specification:'Asap Condensed, Bold Italic';letter-spacing:-0.0598399px;fill:#1a2026;fill-opacity:1;stroke-width:0.06526242"
           d="m 72.367648,186.89485 q -0.256177,0 -0.256177,-0.12252 0,-0.0167 0.01671,-0.0613 0.01671,-0.0446 0.02784,-0.0835 l 1.230762,-3.49737 q 0.05569,-0.15594 0.35642,-0.15594 h 0.311867 q 0.306299,0 0.328575,0.15594 l 0.517922,3.54192 q 0.0056,0.0167 0.0056,0.0557 0,0.0278 -0.0056,0.0446 -0.01114,0.12252 -0.250607,0.12252 h -0.272884 q -0.261746,0 -0.284022,-0.11695 l -0.0724,-0.67942 h -0.868773 l -0.222763,0.67942 q -0.02784,0.11695 -0.272883,0.11695 z m 1.609458,-1.4758 -0.116951,-1.18064 q -0.02228,-0.27845 -0.02228,-0.42325 h -0.02784 q -0.0724,0.30073 -0.111381,0.42325 l -0.378696,1.18064 z"
           inkscape:connector-curvature="0" />
        <path
           id="path2758"
           style="font-style:italic;font-variant:normal;font-weight:bold;font-stretch:normal;line-height:0.89999998;font-family:'Asap Condensed';-inkscape-font-specification:'Asap Condensed, Bold Italic';letter-spacing:-0.0598399px;fill:#1a2026;fill-opacity:1;stroke-width:0.06526242"
           d="m 75.425697,186.88371 q -0.111381,0 -0.155934,-0.0501 -0.03898,-0.0557 -0.02784,-0.17264 l 0.367558,-3.45282 q 0.01114,-0.11695 0.06683,-0.16707 0.05569,-0.0557 0.161502,-0.0557 h 0.94674 q 0.707271,0 1.024707,0.40097 0.317437,0.40098 0.317437,1.28646 0,0.98572 -0.406542,1.59832 -0.400972,0.61259 -1.236331,0.61259 z m 1.108243,-0.72954 q 0.373127,0 0.540199,-0.44553 0.167071,-0.45109 0.167071,-1.04141 0,-0.36756 -0.05569,-0.57362 -0.05569,-0.20605 -0.17821,-0.28959 -0.122519,-0.0891 -0.328575,-0.0891 h -0.245038 l -0.256177,2.43925 z"
           inkscape:connector-curvature="0" />
        <path
           id="path2760"
           style="font-style:italic;font-variant:normal;font-weight:bold;font-stretch:normal;line-height:0.89999998;font-family:'Asap Condensed';-inkscape-font-specification:'Asap Condensed, Bold Italic';letter-spacing:-0.0598399px;fill:#1a2026;fill-opacity:1;stroke-width:0.06526242"
           d="m 78.608007,186.90042 q -0.323006,0 -0.306299,-0.18378 l 0.378696,-3.5642 q 0.01671,-0.18378 0.339713,-0.18378 h 0.233901 q 0.317436,0 0.300729,0.18378 l -0.378696,3.5642 q -0.01671,0.18378 -0.334144,0.18378 z"
           inkscape:connector-curvature="0" />
        <path
           id="path2762"
           style="font-style:italic;font-variant:normal;font-weight:bold;font-stretch:normal;line-height:0.89999998;font-family:'Asap Condensed';-inkscape-font-specification:'Asap Condensed, Bold Italic';letter-spacing:-0.0598399px;fill:#1a2026;fill-opacity:1;stroke-width:0.06526242"
           d="m 81.035971,186.92827 q -1.258608,0 -1.258608,-1.6206 0,-0.67386 0.183779,-1.20849 0.183779,-0.53463 0.568044,-0.84649 0.389834,-0.31187 0.969016,-0.31187 1.258608,0 1.258608,1.61503 0,0.67385 -0.183779,1.21405 -0.183779,0.53463 -0.573613,0.8465 -0.384265,0.31187 -0.963447,0.31187 z m 0.09467,-0.72955 q 0.395403,0 0.573613,-0.48451 0.178209,-0.49008 0.178209,-1.16393 0,-0.4678 -0.11695,-0.66829 -0.111381,-0.20606 -0.345281,-0.20606 -0.400973,0 -0.584752,0.48451 -0.178209,0.47894 -0.178209,1.14723 0,0.47894 0.11695,0.68499 0.11695,0.20606 0.35642,0.20606 z"
           inkscape:connector-curvature="0" />
        <path
           id="path2764"
           style="font-style:italic;font-variant:normal;font-weight:bold;font-stretch:normal;line-height:0.89999998;font-family:'Asap Condensed';-inkscape-font-specification:'Asap Condensed, Bold Italic';letter-spacing:-0.0598399px;fill:#1a2026;fill-opacity:1;stroke-width:0.06526242"
           d="m 83.279546,186.89485 q -0.328574,0 -0.300729,-0.17821 l 0.373127,-3.5642 q 0.01671,-0.17821 0.339713,-0.17821 h 0.144795 q 0.105812,0 0.167072,0.0334 0.06683,0.0278 0.105812,0.12252 l 0.796376,1.8712 q 0.07797,0.18378 0.144795,0.43439 l 0.02228,-0.0111 q -0.01114,-0.17821 -0.01114,-0.26732 0,-0.0613 0.01114,-0.17264 l 0.206056,-1.83222 q 0.01671,-0.17821 0.339712,-0.17821 h 0.133658 q 0.323005,0 0.306298,0.17821 l -0.373127,3.5642 q -0.02784,0.17821 -0.345282,0.17821 H 85.23429 q -0.111381,0 -0.17821,-0.0334 -0.06683,-0.0334 -0.105812,-0.12252 l -0.846497,-1.94917 q -0.03898,-0.0835 -0.0724,-0.19492 -0.02784,-0.11695 -0.03898,-0.1615 l -0.03341,0.0167 q 0.0056,0.0446 0.01114,0.10582 0.0056,0.0557 0.0056,0.13365 0,0.0501 -0.01114,0.13923 l -0.206055,1.88791 q -0.01671,0.17821 -0.345282,0.17821 z"
           inkscape:connector-curvature="0" />
      </g>
      <g
         id="text1395"
         style="font-style:italic;font-variant:normal;font-weight:bold;font-stretch:normal;font-size:9.77406406px;line-height:0.89999998;font-family:'Asap Condensed';-inkscape-font-specification:'Asap Condensed, Bold Italic';letter-spacing:-0.10502294px;word-spacing:0px;opacity:1;fill:#1a2026;fill-opacity:1;stroke:none;stroke-width:0.11453982"
         aria-label="NA DLUH!"
         transform="matrix(3.0097875,0,0,3.0097875,-84.554507,-528.6793)">
        <path
           id="path2767"
           style="font-style:italic;font-variant:normal;font-weight:bold;font-stretch:normal;line-height:0.89999998;font-family:'Asap Condensed';-inkscape-font-specification:'Asap Condensed, Bold Italic';letter-spacing:-0.10502294px;fill:#1a2026;fill-opacity:1;stroke-width:0.11453982"
           d="m 51.29067,194.7056 q -0.57667,0 -0.527799,-0.31277 l 0.654862,-6.2554 q 0.02932,-0.31277 0.596218,-0.31277 h 0.254125 q 0.185708,0 0.293222,0.0586 0.117289,0.0489 0.185708,0.21503 l 1.397691,3.28409 q 0.136837,0.32254 0.254125,0.76237 l 0.0391,-0.0195 q -0.01955,-0.31277 -0.01955,-0.46916 0,-0.10751 0.01955,-0.303 l 0.36164,-3.21566 q 0.02932,-0.31277 0.596218,-0.31277 h 0.234577 q 0.566896,0 0.537574,0.31277 l -0.654862,6.2554 q -0.04887,0.31277 -0.605992,0.31277 H 54.72137 q -0.195482,0 -0.312771,-0.0587 -0.117288,-0.0586 -0.185707,-0.21503 l -1.48566,-3.42087 q -0.06842,-0.14661 -0.127063,-0.34209 -0.04887,-0.20526 -0.06842,-0.28345 l -0.05864,0.0293 q 0.0098,0.0782 0.01955,0.18571 0.0098,0.0977 0.0098,0.23458 0,0.088 -0.01955,0.24435 l -0.36164,3.31341 q -0.02932,0.31277 -0.605992,0.31277 z"
           inkscape:connector-curvature="0" />
        <path
           id="path2769"
           style="font-style:italic;font-variant:normal;font-weight:bold;font-stretch:normal;line-height:0.89999998;font-family:'Asap Condensed';-inkscape-font-specification:'Asap Condensed, Bold Italic';letter-spacing:-0.10502294px;fill:#1a2026;fill-opacity:1;stroke-width:0.11453982"
           d="m 56.374148,194.7056 q -0.449607,0 -0.449607,-0.21503 0,-0.0293 0.02932,-0.10752 0.02932,-0.0782 0.04887,-0.14661 l 2.160069,-6.13811 q 0.09774,-0.27367 0.62554,-0.27367 h 0.547347 q 0.537574,0 0.57667,0.27367 l 0.908988,6.21631 q 0.0098,0.0293 0.0098,0.0977 0,0.0489 -0.0098,0.0782 -0.01955,0.21503 -0.439833,0.21503 h -0.478929 q -0.459381,0 -0.498477,-0.20526 l -0.127063,-1.19243 h -1.524754 l -0.390963,1.19243 q -0.04887,0.20526 -0.478929,0.20526 z m 2.824704,-2.59013 -0.205255,-2.0721 q -0.0391,-0.4887 -0.0391,-0.74283 h -0.04887 q -0.127063,0.5278 -0.195482,0.74283 l -0.664636,2.0721 z"
           inkscape:connector-curvature="0" />
        <path
           id="path2771"
           style="fill:#1a2026;fill-opacity:1;stroke-width:0.11453982"
           d="m 63.181996,194.68605 q -0.195482,0 -0.273674,-0.088 -0.06842,-0.0977 -0.04887,-0.30299 l 0.645088,-6.05992 q 0.01955,-0.20526 0.117289,-0.29322 0.09774,-0.0977 0.283447,-0.0977 h 1.661591 q 1.241307,0 1.798428,0.70373 0.557122,0.70373 0.557122,2.25781 0,1.73001 -0.713507,2.80515 -0.703732,1.07515 -2.169842,1.07515 z m 1.945038,-1.2804 q 0.654863,0 0.948085,-0.78193 0.293222,-0.7917 0.293222,-1.82775 0,-0.64509 -0.09774,-1.00673 -0.09774,-0.36164 -0.31277,-0.50825 -0.215029,-0.15638 -0.57667,-0.15638 h -0.430059 l -0.449607,4.28104 z"
           inkscape:connector-curvature="0" />
        <path
           id="path2773"
           style="fill:#1a2026;fill-opacity:1;stroke-width:0.11453982"
           d="m 68.610774,194.68605 q -0.195481,0 -0.273674,-0.088 -0.06842,-0.0977 -0.04887,-0.30299 l 0.654862,-6.15766 q 0.02932,-0.31277 0.596218,-0.31277 h 0.390963 q 0.566895,0 0.537573,0.31277 l -0.557122,5.26822 h 1.456336 q 0.136837,0 0.195481,0.088 0.05864,0.0782 0.05864,0.2639 l -0.0098,0.13684 -0.0391,0.303 q -0.01955,0.25412 -0.107514,0.37141 -0.07819,0.11729 -0.234578,0.11729 z"
           inkscape:connector-curvature="0" />
        <path
           id="path2775"
           style="fill:#1a2026;fill-opacity:1;stroke-width:0.11453982"
           d="m 74.347611,194.76424 q -1.026277,0 -1.593173,-0.46915 -0.566896,-0.46916 -0.566896,-1.32927 0,-0.088 0.01955,-0.28345 l 0.478929,-4.54494 q 0.02932,-0.31277 0.596218,-0.31277 H 73.6732 q 0.566896,0 0.537574,0.31277 l -0.469155,4.4472 q -0.0098,0.0489 -0.0098,0.13683 0,0.3421 0.195481,0.55713 0.205255,0.20525 0.547347,0.20525 0.400737,0 0.635315,-0.2248 0.244351,-0.22481 0.293222,-0.67441 l 0.469155,-4.4472 q 0.02932,-0.31277 0.596218,-0.31277 h 0.381188 q 0.566896,0 0.537574,0.31277 l -0.47893,4.54494 q -0.09774,0.98718 -0.781925,1.53453 -0.684184,0.54734 -1.778879,0.54734 z"
           inkscape:connector-curvature="0" />
        <path
           id="path2777"
           style="fill:#1a2026;fill-opacity:1;stroke-width:0.11453982"
           d="m 78.230254,194.7056 q -0.566896,0 -0.537574,-0.31277 l 0.664637,-6.2554 q 0.02932,-0.31277 0.596218,-0.31277 h 0.41051 q 0.557122,0 0.5278,0.31277 l -0.254126,2.41419 h 1.671365 l 0.254126,-2.41419 q 0.02932,-0.31277 0.596218,-0.31277 h 0.400736 q 0.566896,0 0.537574,0.31277 l -0.664637,6.2554 q -0.02932,0.31277 -0.596217,0.31277 h -0.400737 q -0.566896,0 -0.537574,-0.31277 l 0.273674,-2.55103 h -1.671365 l -0.273674,2.55103 q -0.02932,0.31277 -0.586443,0.31277 z"
           inkscape:connector-curvature="0" />
        <path
           id="path2779"
           style="font-style:italic;font-variant:normal;font-weight:bold;font-stretch:normal;line-height:0.89999998;font-family:'Asap Condensed';-inkscape-font-specification:'Asap Condensed, Bold Italic';letter-spacing:-0.10502294px;fill:#1a2026;fill-opacity:1;stroke-width:0.11453982"
           d="m 84.161324,192.51621 q -0.302996,0 -0.400737,-0.0684 -0.09774,-0.0782 -0.07819,-0.24435 l 0.430059,-4.04646 q 0.01955,-0.16616 0.156385,-0.24436 0.14661,-0.088 0.439832,-0.088 h 0.449607 q 0.273674,0 0.420285,0.0782 0.146611,0.0782 0.107515,0.23458 l -0.918762,4.06601 q -0.0391,0.17593 -0.136837,0.24435 -0.09774,0.0684 -0.390963,0.0684 z m -0.371415,2.18939 q -0.576669,0 -0.527799,-0.31277 l 0.08797,-0.89922 q 0.01955,-0.15638 0.166159,-0.23457 0.146611,-0.0782 0.439832,-0.0782 h 0.322545 q 0.576669,0 0.527799,0.31277 l -0.08797,0.89922 q -0.01955,0.15638 -0.166159,0.23458 -0.146611,0.0782 -0.439832,0.0782 z"
           inkscape:connector-curvature="0" />
      </g>
      <path
         style="opacity:1;fill:#ffffff;stroke:none;stroke-width:0.0708839"
         d="m 41.891722,24.333213 c -0.102304,0.930694 -0.19805,1.862283 -0.296168,2.79336 -0.07498,0.711417 0.437207,1.344379 1.148625,1.419381 l 7.70485,0.812377 c 0.711385,0.07465 1.34438,-0.437536 1.419382,-1.148931 l 0.270887,-2.568247 0.0271,-0.228753 z m -5.308728,13.397917 4.889095,0.515281 c 0.252831,1.955275 1.814093,3.48178 3.774583,3.690596 1.960751,0.204061 3.805601,-0.963188 4.4605,-2.82264 l 4.853529,0.511399 0.20346,-1.927163 -4.844282,-0.510526 c -0.237474,-1.971408 -1.80512,-3.51751 -3.779632,-3.727616 -1.974457,-0.20557 -3.829297,0.979561 -4.472458,2.857606 l -4.881902,-0.514701 z m 9.00856,-2.353649 c 0.07771,-0.0022 0.155314,-0.0022 0.232359,8.75e-4 0.03793,0.0022 0.07552,0.0054 0.113169,0.0054 0.909621,0.09695 1.677502,0.719102 1.961865,1.588566 l -4.21333,-0.444148 c 0.397412,-0.684192 1.11554,-1.119191 1.90597,-1.154561 z m -2.092162,3.082653 4.180181,0.440542 c -0.465494,0.770832 -1.334335,1.20346 -2.229988,1.11037 -0.895652,-0.09542 -1.655566,-0.699744 -1.950193,-1.550912 z m -2.734752,7.604142 c -0.655982,-0.0022 -1.216676,0.489453 -1.286977,1.156353 l -0.270887,2.568291 -0.0271,0.22814 10.268943,1.079274 0.03006,-0.224828 0.270887,-2.567985 c 0.07498,-0.71145 -0.437502,-1.344467 -1.148898,-1.419413 l -7.704839,-0.812367 c -0.04459,-0.0065 -0.08875,-0.0065 -0.132438,-0.0065 z m -4.75068,2.673742 c 0.09116,0.137849 0.19534,0.266363 0.311099,0.384351 -0.115584,-0.117988 -0.220019,-0.246502 -0.311099,-0.384351 z m 0.904419,0.835068 c 0.293752,0.161927 0.62459,0.269368 0.980315,0.306868 -0.355725,-0.0376 -0.686596,-0.144766 -0.980315,-0.306868 z"
         id="path1397"
         inkscape:connector-curvature="0"
         sodipodi:nodetypes="ccccccccccccccccccccccccccccccccccccccccccaca" />
      <g
         id="text1401"
         style="font-style:italic;font-variant:normal;font-weight:bold;font-stretch:normal;font-size:3.20408988px;line-height:0.89999998;font-family:'Asap Condensed';-inkscape-font-specification:'Asap Condensed, Bold Italic';letter-spacing:-0.03442814px;word-spacing:0px;opacity:1;fill:#1a2026;fill-opacity:1;stroke:none;stroke-width:0.03754793"
         aria-label="www.nechcistadionnadluh.cz"
         transform="matrix(3.0097875,0,0,3.0097875,-84.554507,-528.6793)">
        <path
           id="path2782"
           style="font-style:italic;font-variant:normal;font-weight:normal;font-stretch:normal;line-height:0.89999998;font-family:'Asap Condensed';-inkscape-font-specification:'Asap Condensed, Italic';letter-spacing:-0.03442814px;fill:#1a2026;fill-opacity:1;stroke-width:0.03754793"
           d="m 50.803975,198.11856 q -0.102531,0 -0.112143,-0.0577 l -0.179429,-1.57001 q -0.0064,-0.0609 0.118551,-0.0609 h 0.04806 q 0.108939,0 0.112143,0.0513 l 0.08651,1.02211 q 0.0096,0.14097 0.01602,0.30759 h 0.01602 q 0.06088,-0.23711 0.08331,-0.3108 l 0.317205,-1.0157 q 0.01282,-0.0545 0.118551,-0.0545 h 0.06088 q 0.05127,0 0.0769,0.0128 0.02884,0.0128 0.03204,0.0416 l 0.108939,1.0157 q 0.0064,0.10253 0.0064,0.13457 l 0.0096,0.17302 h 0.01602 q 0.0096,-0.0385 0.02243,-0.0993 0.01282,-0.0417 0.02563,-0.0929 0.01282,-0.0545 0.02884,-0.11214 l 0.301185,-1.02211 q 0.01602,-0.0513 0.105735,-0.0513 h 0.04806 q 0.06088,0 0.08971,0.016 0.02884,0.016 0.02884,0.0384 0,0.016 -0.01282,0.0545 l -0.503042,1.52835 q -0.01282,0.0513 -0.121756,0.0513 h -0.108939 q -0.105735,0 -0.108939,-0.0513 l -0.108939,-0.9452 q -0.0064,-0.16021 -0.0064,-0.25312 h -0.01282 l -0.05767,0.25312 -0.310797,0.9452 q -0.01602,0.0513 -0.121755,0.0513 z"
           inkscape:connector-curvature="0" />
        <path
           id="path2784"
           style="font-style:italic;font-variant:normal;font-weight:normal;font-stretch:normal;line-height:0.89999998;font-family:'Asap Condensed';-inkscape-font-specification:'Asap Condensed, Italic';letter-spacing:-0.03442814px;fill:#1a2026;fill-opacity:1;stroke-width:0.03754793"
           d="m 52.740813,198.11856 q -0.102531,0 -0.112143,-0.0577 l -0.179429,-1.57001 q -0.0064,-0.0609 0.118551,-0.0609 h 0.04806 q 0.108939,0 0.112144,0.0513 l 0.08651,1.02211 q 0.0096,0.14097 0.01602,0.30759 h 0.01602 q 0.06088,-0.23711 0.08331,-0.3108 l 0.317205,-1.0157 q 0.01282,-0.0545 0.118551,-0.0545 h 0.06088 q 0.05127,0 0.0769,0.0128 0.02884,0.0128 0.03204,0.0416 l 0.108939,1.0157 q 0.0064,0.10253 0.0064,0.13457 l 0.0096,0.17302 h 0.01602 q 0.0096,-0.0385 0.02243,-0.0993 0.01282,-0.0417 0.02563,-0.0929 0.01282,-0.0545 0.02884,-0.11214 l 0.301185,-1.02211 q 0.01602,-0.0513 0.105735,-0.0513 h 0.04806 q 0.06088,0 0.08971,0.016 0.02884,0.016 0.02884,0.0384 0,0.016 -0.01282,0.0545 l -0.503042,1.52835 q -0.01282,0.0513 -0.121756,0.0513 h -0.108939 q -0.105735,0 -0.108939,-0.0513 l -0.108939,-0.9452 q -0.0064,-0.16021 -0.0064,-0.25312 h -0.01282 l -0.05767,0.25312 -0.310797,0.9452 q -0.01602,0.0513 -0.121755,0.0513 z"
           inkscape:connector-curvature="0" />
        <path
           id="path2786"
           style="font-style:italic;font-variant:normal;font-weight:normal;font-stretch:normal;line-height:0.89999998;font-family:'Asap Condensed';-inkscape-font-specification:'Asap Condensed, Italic';letter-spacing:-0.03442814px;fill:#1a2026;fill-opacity:1;stroke-width:0.03754793"
           d="m 54.677651,198.11856 q -0.102531,0 -0.112143,-0.0577 l -0.179429,-1.57001 q -0.0064,-0.0609 0.118551,-0.0609 h 0.04806 q 0.108939,0 0.112143,0.0513 l 0.08651,1.02211 q 0.0096,0.14097 0.01602,0.30759 h 0.01602 q 0.06088,-0.23711 0.08331,-0.3108 l 0.317205,-1.0157 q 0.01282,-0.0545 0.118552,-0.0545 h 0.06088 q 0.05127,0 0.0769,0.0128 0.02884,0.0128 0.03204,0.0416 l 0.108939,1.0157 q 0.0064,0.10253 0.0064,0.13457 l 0.0096,0.17302 h 0.01602 q 0.0096,-0.0385 0.02243,-0.0993 0.01282,-0.0417 0.02563,-0.0929 0.01282,-0.0545 0.02884,-0.11214 l 0.301185,-1.02211 q 0.01602,-0.0513 0.105735,-0.0513 h 0.04806 q 0.06088,0 0.08971,0.016 0.02884,0.016 0.02884,0.0384 0,0.016 -0.01282,0.0545 l -0.503042,1.52835 q -0.01282,0.0513 -0.121755,0.0513 h -0.108939 q -0.105735,0 -0.108939,-0.0513 l -0.10894,-0.9452 q -0.0064,-0.16021 -0.0064,-0.25312 h -0.01282 l -0.05767,0.25312 -0.310796,0.9452 q -0.01602,0.0513 -0.121756,0.0513 z"
           inkscape:connector-curvature="0" />
        <path
           id="path2788"
           style="font-style:italic;font-variant:normal;font-weight:normal;font-stretch:normal;line-height:0.89999998;font-family:'Asap Condensed';-inkscape-font-specification:'Asap Condensed, Italic';letter-spacing:-0.03442814px;fill:#1a2026;fill-opacity:1;stroke-width:0.03754793"
           d="m 56.280313,198.11856 q -0.121756,0 -0.112143,-0.0705 l 0.02243,-0.21147 q 0.0064,-0.0705 0.128164,-0.0705 h 0.05767 q 0.121756,0 0.115348,0.0705 l -0.02243,0.21147 q -0.0096,0.0705 -0.131368,0.0705 z"
           inkscape:connector-curvature="0" />
        <path
           id="path2790"
           style="font-style:italic;font-variant:normal;font-weight:normal;font-stretch:normal;line-height:0.89999998;font-family:'Asap Condensed';-inkscape-font-specification:'Asap Condensed, Italic';letter-spacing:-0.03442814px;fill:#1a2026;fill-opacity:1;stroke-width:0.03754793"
           d="m 58.089838,197.88466 q 0.01922,0 0.01922,0.0288 0,0.032 -0.0096,0.0801 -0.0064,0.0449 -0.01602,0.0641 -0.01282,0.0288 -0.06729,0.0513 -0.05447,0.0224 -0.115347,0.0224 -0.09933,0 -0.182633,-0.0673 -0.08331,-0.0705 -0.08331,-0.24351 0,-0.0449 0.0032,-0.0705 l 0.0801,-0.80743 q 0.0032,-0.0224 0.0032,-0.0641 0,-0.22749 -0.192246,-0.22749 -0.08331,0 -0.166612,0.0609 -0.0801,0.0609 -0.137776,0.16341 l -0.12496,1.1727 q -0.0064,0.0705 -0.128163,0.0705 h -0.03525 q -0.118552,0 -0.108939,-0.0769 l 0.115347,-1.10541 q 0.01602,-0.16982 0.01602,-0.27555 0,-0.0609 -0.0032,-0.0961 -0.0032,-0.0353 0,-0.0513 0.0032,-0.0384 0.07369,-0.0545 0.07049,-0.0192 0.118552,-0.0192 0.04486,0 0.05767,0.0417 0.01602,0.0417 0.01602,0.11535 0,0.0513 -0.0032,0.0737 0.08331,-0.11855 0.195449,-0.18584 0.112143,-0.0673 0.230695,-0.0673 0.173021,0 0.265939,0.10894 0.09612,0.10894 0.09612,0.30118 0,0.0256 -0.0064,0.0897 l -0.08971,0.84908 -0.0032,0.0385 q 0,0.0961 0.0801,0.0961 0.02884,0 0.05767,-0.006 0.02884,-0.01 0.04486,-0.01 z"
           inkscape:connector-curvature="0" />
        <path
           id="path2792"
           style="font-style:italic;font-variant:normal;font-weight:normal;font-stretch:normal;line-height:0.89999998;font-family:'Asap Condensed';-inkscape-font-specification:'Asap Condensed, Italic';letter-spacing:-0.03442814px;fill:#1a2026;fill-opacity:1;stroke-width:0.03754793"
           d="m 59.376847,197.74368 q 0.02563,0 0.02563,0.0673 0,0.0481 -0.01282,0.0961 -0.0096,0.0449 -0.03524,0.0705 -0.06729,0.0737 -0.195449,0.11535 -0.12496,0.0385 -0.224287,0.0385 -0.605573,0 -0.605573,-0.64082 0,-0.30439 0.08331,-0.5447 0.08331,-0.24351 0.253123,-0.38449 0.173021,-0.14418 0.426144,-0.14418 0.160204,0 0.259531,0.0705 0.102531,0.0673 0.144184,0.16661 0.04486,0.0961 0.04486,0.18904 0,0.28517 -0.198653,0.43576 -0.198654,0.15059 -0.519063,0.15059 -0.105735,0 -0.214674,-0.0192 v 0.0288 q -0.0064,0.25313 0.08331,0.35886 0.08972,0.10253 0.26594,0.10253 0.105735,0 0.179429,-0.032 0.0769,-0.032 0.166613,-0.0865 0.05447,-0.0384 0.07369,-0.0384 z m -0.314001,-1.0958 q -0.198654,0 -0.304389,0.1506 -0.102531,0.15059 -0.134571,0.40051 h 0.169816 q 0.19545,0 0.333226,-0.0769 0.137776,-0.0801 0.137776,-0.25633 0,-0.0929 -0.05447,-0.1538 -0.05447,-0.0641 -0.147388,-0.0641 z"
           inkscape:connector-curvature="0" />
        <path
           id="path2794"
           style="font-style:italic;font-variant:normal;font-weight:normal;font-stretch:normal;line-height:0.89999998;font-family:'Asap Condensed';-inkscape-font-specification:'Asap Condensed, Italic';letter-spacing:-0.03442814px;fill:#1a2026;fill-opacity:1;stroke-width:0.03754793"
           d="m 60.257486,198.13138 q -0.29798,0 -0.445368,-0.1538 -0.147388,-0.157 -0.147388,-0.49984 0,-0.52226 0.195449,-0.79141 0.198654,-0.26914 0.570328,-0.26914 0.144184,0 0.262736,0.0449 0.121755,0.0417 0.121755,0.0993 0,0.0352 -0.04806,0.10574 -0.04486,0.0705 -0.07049,0.0705 -0.0064,0 -0.03204,-0.0128 -0.0096,-0.003 -0.05127,-0.0256 -0.03845,-0.0224 -0.09292,-0.0352 -0.05127,-0.016 -0.108939,-0.016 -0.221082,0 -0.339634,0.21147 -0.115347,0.20827 -0.115347,0.60878 0,0.22429 0.0801,0.33002 0.0801,0.10253 0.253123,0.10253 0.09292,0 0.153797,-0.0192 0.06088,-0.0192 0.118551,-0.0513 0.01602,-0.006 0.02563,-0.016 0.01282,-0.01 0.01922,-0.01 0.02884,0 0.05767,0.0577 0.03204,0.0577 0.03204,0.0993 0,0.0385 -0.07369,0.0801 -0.07049,0.0384 -0.176225,0.0641 -0.102531,0.0256 -0.189042,0.0256 z"
           inkscape:connector-curvature="0" />
        <path
           id="path2796"
           style="font-style:italic;font-variant:normal;font-weight:normal;font-stretch:normal;line-height:0.89999998;font-family:'Asap Condensed';-inkscape-font-specification:'Asap Condensed, Italic';letter-spacing:-0.03442814px;fill:#1a2026;fill-opacity:1;stroke-width:0.03754793"
           d="m 62.040429,198.13138 q -0.09933,0 -0.182634,-0.0673 -0.08331,-0.0705 -0.08331,-0.24031 0,-0.0448 0.0032,-0.0705 l 0.0801,-0.81063 q 0.0064,-0.0641 0.0064,-0.0897 0,-0.10893 -0.04486,-0.15379 -0.04165,-0.0481 -0.14098,-0.0481 -0.118551,0 -0.214674,0.0769 -0.09292,0.0737 -0.124959,0.14738 l -0.121756,1.1727 q -0.0096,0.0705 -0.131367,0.0705 h -0.03204 q -0.121756,0 -0.112143,-0.0705 l 0.237102,-2.2749 q 0.0096,-0.0705 0.131368,-0.0705 h 0.03524 q 0.118551,0 0.108939,0.0705 l -0.08971,0.85869 q 0.0769,-0.0993 0.182633,-0.157 0.108939,-0.0577 0.230694,-0.0577 0.160205,0 0.259532,0.10253 0.10253,0.10253 0.10253,0.3108 0,0.0545 -0.0032,0.0865 l -0.08651,0.84908 q -0.0032,0.016 -0.0032,0.0449 0,0.0481 0.01602,0.0705 0.01602,0.0192 0.05767,0.0192 0.03845,0 0.06729,-0.006 0.02884,-0.01 0.04165,-0.01 0.01922,0 0.01922,0.0288 0,0.032 -0.0096,0.0801 -0.0064,0.0449 -0.01602,0.0641 -0.01282,0.032 -0.06729,0.0545 -0.05447,0.0192 -0.115347,0.0192 z"
           inkscape:connector-curvature="0" />
        <path
           id="path2798"
           style="font-style:italic;font-variant:normal;font-weight:normal;font-stretch:normal;line-height:0.89999998;font-family:'Asap Condensed';-inkscape-font-specification:'Asap Condensed, Italic';letter-spacing:-0.03442814px;fill:#1a2026;fill-opacity:1;stroke-width:0.03754793"
           d="m 63.048531,198.13138 q -0.297981,0 -0.445369,-0.1538 -0.147388,-0.157 -0.147388,-0.49984 0,-0.52226 0.19545,-0.79141 0.198653,-0.26914 0.570328,-0.26914 0.144184,0 0.262735,0.0449 0.121755,0.0417 0.121755,0.0993 0,0.0352 -0.04806,0.10574 -0.04486,0.0705 -0.07049,0.0705 -0.0064,0 -0.03204,-0.0128 -0.0096,-0.003 -0.05127,-0.0256 -0.03845,-0.0224 -0.09292,-0.0352 -0.05127,-0.016 -0.108939,-0.016 -0.221082,0 -0.339634,0.21147 -0.115347,0.20827 -0.115347,0.60878 0,0.22429 0.0801,0.33002 0.0801,0.10253 0.253124,0.10253 0.09292,0 0.153796,-0.0192 0.06088,-0.0192 0.118551,-0.0513 0.01602,-0.006 0.02563,-0.016 0.01282,-0.01 0.01922,-0.01 0.02884,0 0.05767,0.0577 0.03204,0.0577 0.03204,0.0993 0,0.0385 -0.07369,0.0801 -0.07049,0.0384 -0.176225,0.0641 -0.102531,0.0256 -0.189041,0.0256 z"
           inkscape:connector-curvature="0" />
        <path
           id="path2800"
           style="font-style:italic;font-variant:normal;font-weight:normal;font-stretch:normal;line-height:0.89999998;font-family:'Asap Condensed';-inkscape-font-specification:'Asap Condensed, Italic';letter-spacing:-0.03442814px;fill:#1a2026;fill-opacity:1;stroke-width:0.03754793"
           d="m 64.056083,198.13138 q -0.09933,0 -0.182633,-0.0673 -0.08331,-0.0705 -0.08331,-0.24031 0,-0.0448 0.0032,-0.0705 l 0.128163,-1.2528 q 0.0032,-0.0384 0.03524,-0.0545 0.03525,-0.016 0.09933,-0.016 h 0.01282 q 0.06729,0 0.09612,0.0192 0.02884,0.0192 0.02563,0.0641 l -0.12496,1.2528 q -0.0032,0.016 -0.0032,0.0449 0,0.0481 0.01602,0.0705 0.01602,0.0192 0.05767,0.0192 0.03845,0 0.06729,-0.006 0.02884,-0.01 0.04165,-0.01 0.01922,0 0.01922,0.0288 0,0.0352 -0.0096,0.0801 -0.0064,0.0449 -0.01602,0.0641 -0.01282,0.032 -0.06729,0.0545 -0.05447,0.0192 -0.115347,0.0192 z m 0.03204,-1.92566 q -0.14098,0 -0.134572,-0.0705 l 0.01922,-0.19225 q 0.0064,-0.0705 0.150592,-0.0705 0.07369,0 0.102531,0.0192 0.03204,0.016 0.02884,0.0513 l -0.01923,0.19225 q -0.0064,0.0705 -0.147388,0.0705 z"
           inkscape:connector-curvature="0" />
        <path
           id="path2802"
           style="font-style:italic;font-variant:normal;font-weight:normal;font-stretch:normal;line-height:0.89999998;font-family:'Asap Condensed';-inkscape-font-specification:'Asap Condensed, Italic';letter-spacing:-0.03442814px;fill:#1a2026;fill-opacity:1;stroke-width:0.03754793"
           d="m 64.812764,198.14099 q -0.115347,0 -0.21147,-0.032 -0.09292,-0.032 -0.150592,-0.0769 -0.05447,-0.0481 -0.05447,-0.0865 0,-0.0256 0.04165,-0.0865 0.04486,-0.0609 0.07049,-0.0609 0.0096,0 0.06088,0.032 0.05447,0.0288 0.112143,0.0513 0.06088,0.0224 0.14098,0.0224 0.131367,0 0.201857,-0.0705 0.07049,-0.0705 0.07049,-0.17943 0,-0.10253 -0.05767,-0.16341 -0.05767,-0.0609 -0.182633,-0.14098 -0.137776,-0.0897 -0.224287,-0.19545 -0.08331,-0.10894 -0.08331,-0.26274 0,-0.22108 0.147388,-0.34924 0.150592,-0.12817 0.381287,-0.12817 0.124959,0 0.230694,0.0417 0.105735,0.0417 0.102531,0.0961 -0.0032,0.0352 -0.04165,0.0929 -0.03845,0.0577 -0.07049,0.0577 -0.01282,0 -0.08331,-0.0288 -0.06729,-0.0288 -0.150593,-0.0288 -0.128163,0 -0.189041,0.0577 -0.06088,0.0577 -0.06088,0.15059 0,0.0929 0.05447,0.1506 0.05447,0.0577 0.157,0.12496 0.153797,0.0961 0.243511,0.20185 0.08971,0.10574 0.08971,0.28837 0,0.24351 -0.150593,0.38449 -0.147388,0.13778 -0.394103,0.13778 z"
           inkscape:connector-curvature="0" />
        <path
           id="path2804"
           style="font-style:italic;font-variant:normal;font-weight:normal;font-stretch:normal;line-height:0.89999998;font-family:'Asap Condensed';-inkscape-font-specification:'Asap Condensed, Italic';letter-spacing:-0.03442814px;fill:#1a2026;fill-opacity:1;stroke-width:0.03754793"
           d="m 66.068032,198.13138 q -0.150592,0 -0.249919,-0.0769 -0.09933,-0.0769 -0.09933,-0.26915 0,-0.0481 0.0032,-0.0769 l 0.102531,-1.04133 h -0.12496 q -0.03204,0 -0.04486,-0.0192 -0.01282,-0.0224 -0.0096,-0.0673 l 0.0032,-0.0481 q 0.0032,-0.0961 0.0769,-0.0961 h 0.128163 l 0.06729,-0.33643 q 0.01282,-0.0705 0.09612,-0.0705 h 0.06088 q 0.08331,0 0.07369,0.0865 l -0.03524,0.32041 h 0.192245 q 0.03845,0 0.05447,0.0224 0.01602,0.0224 0.0096,0.0737 l -0.0032,0.0384 q -0.0096,0.0961 -0.07369,0.0961 h -0.201858 l -0.105735,1.03492 q -0.0032,0.0192 -0.0032,0.0545 0,0.0865 0.03525,0.11535 0.03525,0.0288 0.102531,0.0288 0.05127,0 0.08651,-0.006 0.03525,-0.01 0.04806,-0.01 0.01922,0 0.01922,0.0288 0,0.0801 -0.01922,0.12496 -0.01602,0.0449 -0.07049,0.0705 -0.05127,0.0224 -0.118552,0.0224 z"
           inkscape:connector-curvature="0" />
        <path
           id="path2806"
           style="font-style:italic;font-variant:normal;font-weight:normal;font-stretch:normal;line-height:0.89999998;font-family:'Asap Condensed';-inkscape-font-specification:'Asap Condensed, Italic';letter-spacing:-0.03442814px;fill:#1a2026;fill-opacity:1;stroke-width:0.03754793"
           d="m 66.921337,198.13458 q -0.214674,0 -0.317204,-0.18904 -0.09933,-0.18904 -0.09933,-0.48382 0,-0.26914 0.07369,-0.50624 0.07369,-0.24031 0.217878,-0.3877 0.144184,-0.15059 0.349246,-0.15059 0.21147,0 0.346041,0.17302 0.02884,-0.0865 0.05447,-0.12176 0.02884,-0.0384 0.08971,-0.0384 h 0.01923 q 0.08971,0 0.0801,0.0673 l -0.153796,1.22076 q -0.0032,0.0224 -0.0032,0.0577 0,0.12496 0.09292,0.12496 0.03845,0 0.07049,-0.006 0.03204,-0.01 0.04486,-0.01 0.01922,0 0.01922,0.0288 0,0.032 -0.0096,0.0801 -0.0064,0.0449 -0.01602,0.0641 -0.01282,0.032 -0.06729,0.0545 -0.05447,0.0192 -0.115348,0.0192 -0.10253,0 -0.182633,-0.0609 -0.0801,-0.0641 -0.08651,-0.22429 -0.147388,0.28837 -0.40692,0.28837 z m 0.0769,-0.2339 q 0.10253,0 0.195449,-0.0993 0.09612,-0.10254 0.160205,-0.32362 l 0.06728,-0.54149 q 0.0096,-0.0993 0.02243,-0.1602 -0.05126,-0.0545 -0.108939,-0.0897 -0.05767,-0.0352 -0.147388,-0.0352 -0.214674,0 -0.314001,0.2371 -0.09612,0.2339 -0.09612,0.57674 0,0.19545 0.05127,0.3172 0.05127,0.11855 0.169817,0.11855 z"
           inkscape:connector-curvature="0" />
        <path
           id="path2808"
           style="font-style:italic;font-variant:normal;font-weight:normal;font-stretch:normal;line-height:0.89999998;font-family:'Asap Condensed';-inkscape-font-specification:'Asap Condensed, Italic';letter-spacing:-0.03442814px;fill:#1a2026;fill-opacity:1;stroke-width:0.03754793"
           d="m 68.442394,198.13138 q -0.208266,0 -0.323613,-0.19545 -0.112143,-0.19545 -0.112143,-0.53509 0,-0.26273 0.06729,-0.48702 0.06729,-0.22428 0.205062,-0.35886 0.14098,-0.13777 0.342837,-0.13777 0.112143,0 0.189042,0.0449 0.0801,0.0417 0.144184,0.11855 l 0.08651,-0.80743 q 0.0064,-0.0705 0.12496,-0.0705 h 0.03525 q 0.121755,0 0.115347,0.0705 l -0.205062,1.94488 q -0.0064,0.0513 -0.0064,0.0801 0,0.0481 0.01922,0.0769 0.01923,0.0256 0.07049,0.0256 0.02563,0 0.05447,-0.006 0.02884,-0.01 0.04486,-0.01 0.01923,0 0.01923,0.0288 0,0.032 -0.0096,0.0801 -0.0064,0.0481 -0.01602,0.0641 -0.01602,0.032 -0.06729,0.0545 -0.05127,0.0192 -0.115347,0.0192 -0.09612,0 -0.173021,-0.0545 -0.0769,-0.0545 -0.09292,-0.19545 -0.169816,0.24992 -0.397307,0.24992 z m 0.08651,-0.2339 q 0.07369,0 0.153796,-0.0577 0.08331,-0.0577 0.157,-0.1634 l 0.09292,-0.87792 q -0.102531,-0.14419 -0.262735,-0.14419 -0.201858,0 -0.291573,0.22108 -0.08971,0.21788 -0.08971,0.52547 0,0.49664 0.240307,0.49664 z"
           inkscape:connector-curvature="0" />
        <path
           id="path2810"
           style="font-style:italic;font-variant:normal;font-weight:normal;font-stretch:normal;line-height:0.89999998;font-family:'Asap Condensed';-inkscape-font-specification:'Asap Condensed, Italic';letter-spacing:-0.03442814px;fill:#1a2026;fill-opacity:1;stroke-width:0.03754793"
           d="m 69.835288,198.13138 q -0.09933,0 -0.182633,-0.0673 -0.08331,-0.0705 -0.08331,-0.24031 0,-0.0448 0.0032,-0.0705 l 0.128164,-1.2528 q 0.0032,-0.0384 0.03525,-0.0545 0.03525,-0.016 0.09933,-0.016 h 0.01282 q 0.06729,0 0.09612,0.0192 0.02884,0.0192 0.02563,0.0641 l -0.124959,1.2528 q -0.0032,0.016 -0.0032,0.0449 0,0.0481 0.01602,0.0705 0.01602,0.0192 0.05767,0.0192 0.03845,0 0.06729,-0.006 0.02884,-0.01 0.04165,-0.01 0.01922,0 0.01922,0.0288 0,0.0352 -0.0096,0.0801 -0.0064,0.0449 -0.01602,0.0641 -0.01282,0.032 -0.06729,0.0545 -0.05447,0.0192 -0.115348,0.0192 z m 0.03204,-1.92566 q -0.14098,0 -0.134571,-0.0705 l 0.01922,-0.19225 q 0.0064,-0.0705 0.150592,-0.0705 0.07369,0 0.102531,0.0192 0.03204,0.016 0.02884,0.0513 l -0.01922,0.19225 q -0.0064,0.0705 -0.147388,0.0705 z"
           inkscape:connector-curvature="0" />
        <path
           id="path2812"
           style="font-style:italic;font-variant:normal;font-weight:normal;font-stretch:normal;line-height:0.89999998;font-family:'Asap Condensed';-inkscape-font-specification:'Asap Condensed, Italic';letter-spacing:-0.03442814px;fill:#1a2026;fill-opacity:1;stroke-width:0.03754793"
           d="m 70.87393,198.13138 q -0.28196,0 -0.432552,-0.17943 -0.147389,-0.17943 -0.147389,-0.53188 0,-0.42615 0.166613,-0.71451 0.166613,-0.28837 0.506246,-0.28837 0.278756,0 0.426144,0.18584 0.147388,0.18263 0.147388,0.54149 0,0.42614 -0.163408,0.7081 -0.160205,0.27876 -0.503042,0.27876 z m 0.01602,-0.2307 q 0.208266,0 0.288368,-0.22428 0.08331,-0.22429 0.08331,-0.5447 0,-0.48382 -0.314001,-0.48382 -0.208266,0 -0.291572,0.22749 -0.0801,0.22749 -0.0801,0.5479 0,0.47741 0.314001,0.47741 z"
           inkscape:connector-curvature="0" />
        <path
           id="path2814"
           style="font-style:italic;font-variant:normal;font-weight:normal;font-stretch:normal;line-height:0.89999998;font-family:'Asap Condensed';-inkscape-font-specification:'Asap Condensed, Italic';letter-spacing:-0.03442814px;fill:#1a2026;fill-opacity:1;stroke-width:0.03754793"
           d="m 73.071351,197.88466 q 0.01922,0 0.01922,0.0288 0,0.032 -0.0096,0.0801 -0.0064,0.0449 -0.01602,0.0641 -0.01282,0.0288 -0.06729,0.0513 -0.05447,0.0224 -0.115348,0.0224 -0.09933,0 -0.182633,-0.0673 -0.08331,-0.0705 -0.08331,-0.24351 0,-0.0449 0.0032,-0.0705 l 0.0801,-0.80743 q 0.0032,-0.0224 0.0032,-0.0641 0,-0.22749 -0.192245,-0.22749 -0.08331,0 -0.166613,0.0609 -0.0801,0.0609 -0.137776,0.16341 l -0.124959,1.1727 q -0.0064,0.0705 -0.128164,0.0705 h -0.03525 q -0.118551,0 -0.108939,-0.0769 l 0.115348,-1.10541 q 0.01602,-0.16982 0.01602,-0.27555 0,-0.0609 -0.0032,-0.0961 -0.0032,-0.0353 0,-0.0513 0.0032,-0.0384 0.07369,-0.0545 0.07049,-0.0192 0.118551,-0.0192 0.04486,0 0.05767,0.0417 0.01602,0.0417 0.01602,0.11535 0,0.0513 -0.0032,0.0737 0.08331,-0.11855 0.19545,-0.18584 0.112143,-0.0673 0.230694,-0.0673 0.173021,0 0.26594,0.10894 0.09612,0.10894 0.09612,0.30118 0,0.0256 -0.0064,0.0897 l -0.08971,0.84908 -0.0032,0.0385 q 0,0.0961 0.0801,0.0961 0.02884,0 0.05767,-0.006 0.02884,-0.01 0.04486,-0.01 z"
           inkscape:connector-curvature="0" />
        <path
           id="path2816"
           style="font-style:italic;font-variant:normal;font-weight:normal;font-stretch:normal;line-height:0.89999998;font-family:'Asap Condensed';-inkscape-font-specification:'Asap Condensed, Italic';letter-spacing:-0.03442814px;fill:#1a2026;fill-opacity:1;stroke-width:0.03754793"
           d="m 74.582646,197.88466 q 0.01923,0 0.01923,0.0288 0,0.032 -0.0096,0.0801 -0.0064,0.0449 -0.01602,0.0641 -0.01282,0.0288 -0.06729,0.0513 -0.05447,0.0224 -0.115347,0.0224 -0.09933,0 -0.182633,-0.0673 -0.08331,-0.0705 -0.08331,-0.24351 0,-0.0449 0.0032,-0.0705 l 0.0801,-0.80743 q 0.0032,-0.0224 0.0032,-0.0641 0,-0.22749 -0.192246,-0.22749 -0.08331,0 -0.166612,0.0609 -0.0801,0.0609 -0.137776,0.16341 l -0.12496,1.1727 q -0.0064,0.0705 -0.128163,0.0705 h -0.03525 q -0.118552,0 -0.108939,-0.0769 l 0.115347,-1.10541 q 0.01602,-0.16982 0.01602,-0.27555 0,-0.0609 -0.0032,-0.0961 -0.0032,-0.0353 0,-0.0513 0.0032,-0.0384 0.07369,-0.0545 0.07049,-0.0192 0.118552,-0.0192 0.04486,0 0.05767,0.0417 0.01602,0.0417 0.01602,0.11535 0,0.0513 -0.0032,0.0737 0.08331,-0.11855 0.195449,-0.18584 0.112143,-0.0673 0.230695,-0.0673 0.17302,0 0.265939,0.10894 0.09612,0.10894 0.09612,0.30118 0,0.0256 -0.0064,0.0897 l -0.08971,0.84908 -0.0032,0.0385 q 0,0.0961 0.0801,0.0961 0.02884,0 0.05767,-0.006 0.02884,-0.01 0.04486,-0.01 z"
           inkscape:connector-curvature="0" />
        <path
           id="path2818"
           style="font-style:italic;font-variant:normal;font-weight:normal;font-stretch:normal;line-height:0.89999998;font-family:'Asap Condensed';-inkscape-font-specification:'Asap Condensed, Italic';letter-spacing:-0.03442814px;fill:#1a2026;fill-opacity:1;stroke-width:0.03754793"
           d="m 75.225633,198.13458 q -0.214674,0 -0.317205,-0.18904 -0.09933,-0.18904 -0.09933,-0.48382 0,-0.26914 0.07369,-0.50624 0.07369,-0.24031 0.217878,-0.3877 0.144185,-0.15059 0.349246,-0.15059 0.21147,0 0.346042,0.17302 0.02884,-0.0865 0.05447,-0.12176 0.02884,-0.0384 0.08971,-0.0384 h 0.01923 q 0.08971,0 0.0801,0.0673 l -0.153797,1.22076 q -0.0032,0.0224 -0.0032,0.0577 0,0.12496 0.09292,0.12496 0.03845,0 0.07049,-0.006 0.03204,-0.01 0.04486,-0.01 0.01922,0 0.01922,0.0288 0,0.032 -0.0096,0.0801 -0.0064,0.0449 -0.01602,0.0641 -0.01282,0.032 -0.06729,0.0545 -0.05447,0.0192 -0.115347,0.0192 -0.102531,0 -0.182633,-0.0609 -0.0801,-0.0641 -0.08651,-0.22429 -0.147388,0.28837 -0.406919,0.28837 z m 0.0769,-0.2339 q 0.102531,0 0.19545,-0.0993 0.09612,-0.10254 0.160204,-0.32362 l 0.06729,-0.54149 q 0.0096,-0.0993 0.02243,-0.1602 -0.05127,-0.0545 -0.108939,-0.0897 -0.05767,-0.0352 -0.147389,-0.0352 -0.214674,0 -0.314,0.2371 -0.09612,0.2339 -0.09612,0.57674 0,0.19545 0.05127,0.3172 0.05127,0.11855 0.169817,0.11855 z"
           inkscape:connector-curvature="0" />
        <path
           id="path2820"
           style="font-style:italic;font-variant:normal;font-weight:normal;font-stretch:normal;line-height:0.89999998;font-family:'Asap Condensed';-inkscape-font-specification:'Asap Condensed, Italic';letter-spacing:-0.03442814px;fill:#1a2026;fill-opacity:1;stroke-width:0.03754793"
           d="m 76.746691,198.13138 q -0.208266,0 -0.323613,-0.19545 -0.112143,-0.19545 -0.112143,-0.53509 0,-0.26273 0.06728,-0.48702 0.06729,-0.22428 0.205062,-0.35886 0.14098,-0.13777 0.342838,-0.13777 0.112143,0 0.189041,0.0449 0.0801,0.0417 0.144184,0.11855 l 0.08651,-0.80743 q 0.0064,-0.0705 0.124959,-0.0705 h 0.03525 q 0.121755,0 0.115347,0.0705 l -0.205061,1.94488 q -0.0064,0.0513 -0.0064,0.0801 0,0.0481 0.01923,0.0769 0.01922,0.0256 0.07049,0.0256 0.02563,0 0.05447,-0.006 0.02884,-0.01 0.04486,-0.01 0.01922,0 0.01922,0.0288 0,0.032 -0.0096,0.0801 -0.0064,0.0481 -0.01602,0.0641 -0.01602,0.032 -0.06728,0.0545 -0.05127,0.0192 -0.115348,0.0192 -0.09612,0 -0.173021,-0.0545 -0.0769,-0.0545 -0.09292,-0.19545 -0.169817,0.24992 -0.397307,0.24992 z m 0.08651,-0.2339 q 0.07369,0 0.153796,-0.0577 0.08331,-0.0577 0.157001,-0.1634 l 0.09292,-0.87792 q -0.10253,-0.14419 -0.262735,-0.14419 -0.201858,0 -0.291572,0.22108 -0.08971,0.21788 -0.08971,0.52547 0,0.49664 0.240307,0.49664 z"
           inkscape:connector-curvature="0" />
        <path
           id="path2822"
           style="font-style:italic;font-variant:normal;font-weight:normal;font-stretch:normal;line-height:0.89999998;font-family:'Asap Condensed';-inkscape-font-specification:'Asap Condensed, Italic';letter-spacing:-0.03442814px;fill:#1a2026;fill-opacity:1;stroke-width:0.03754793"
           d="m 78.181236,198.13138 q -0.118551,0 -0.21147,-0.0673 -0.08971,-0.0705 -0.08971,-0.24992 0,-0.0449 0.0032,-0.0705 l 0.208266,-1.97051 q 0.0064,-0.0705 0.134571,-0.0705 h 0.01282 q 0.128163,0 0.121755,0.0705 l -0.208266,1.97692 q -0.0032,0.0192 -0.0032,0.0481 0,0.0641 0.02563,0.0833 0.02563,0.0192 0.07369,0.0192 0.03845,0 0.07049,-0.006 0.03525,-0.01 0.05127,-0.01 0.01922,0 0.01922,0.0288 0,0.032 -0.0096,0.0801 -0.0064,0.0449 -0.01602,0.0641 -0.01282,0.032 -0.06729,0.0545 -0.05447,0.0192 -0.115347,0.0192 z"
           inkscape:connector-curvature="0" />
        <path
           id="path2824"
           style="font-style:italic;font-variant:normal;font-weight:normal;font-stretch:normal;line-height:0.89999998;font-family:'Asap Condensed';-inkscape-font-specification:'Asap Condensed, Italic';letter-spacing:-0.03442814px;fill:#1a2026;fill-opacity:1;stroke-width:0.03754793"
           d="m 79.926782,197.88466 q 0.01922,0 0.01922,0.0288 -0.0032,0.0288 -0.01282,0.0833 -0.0064,0.0513 -0.01282,0.0609 -0.01282,0.032 -0.06729,0.0545 -0.05447,0.0192 -0.115347,0.0192 -0.09292,0 -0.169817,-0.0545 -0.07369,-0.0577 -0.09292,-0.17943 -0.08331,0.11214 -0.198653,0.17622 -0.112144,0.0609 -0.230695,0.0609 -0.179429,0 -0.275552,-0.10253 -0.09612,-0.10253 -0.09612,-0.28516 0,-0.0513 0.0032,-0.0769 l 0.124959,-1.16629 q 0.0096,-0.0705 0.128164,-0.0705 h 0.03204 q 0.121755,0 0.115347,0.0705 l -0.118551,1.12463 q -0.0032,0.0192 -0.0032,0.0545 0,0.21788 0.201857,0.21788 0.08972,0 0.173021,-0.0609 0.08651,-0.0609 0.147388,-0.1634 l 0.12496,-1.1727 q 0.0064,-0.0705 0.128163,-0.0705 h 0.03204 q 0.121756,0 0.115347,0.0705 l -0.131367,1.26241 -0.0032,0.0385 q 0,0.0961 0.0801,0.0961 0.02884,0 0.05767,-0.006 0.02884,-0.01 0.04486,-0.01 z"
           inkscape:connector-curvature="0" />
        <path
           id="path2826"
           style="font-style:italic;font-variant:normal;font-weight:normal;font-stretch:normal;line-height:0.89999998;font-family:'Asap Condensed';-inkscape-font-specification:'Asap Condensed, Italic';letter-spacing:-0.03442814px;fill:#1a2026;fill-opacity:1;stroke-width:0.03754793"
           d="m 81.255442,198.13138 q -0.09933,0 -0.182633,-0.0673 -0.08331,-0.0705 -0.08331,-0.24031 0,-0.0448 0.0032,-0.0705 l 0.0801,-0.81063 q 0.0064,-0.0641 0.0064,-0.0897 0,-0.10893 -0.04486,-0.15379 -0.04165,-0.0481 -0.14098,-0.0481 -0.118551,0 -0.214674,0.0769 -0.09292,0.0737 -0.12496,0.14738 l -0.121755,1.1727 q -0.0096,0.0705 -0.131368,0.0705 h -0.03204 q -0.121755,0 -0.112143,-0.0705 l 0.237103,-2.2749 q 0.0096,-0.0705 0.131368,-0.0705 h 0.03524 q 0.118551,0 0.108939,0.0705 l -0.08971,0.85869 q 0.0769,-0.0993 0.182633,-0.157 0.108939,-0.0577 0.230695,-0.0577 0.160204,0 0.259531,0.10253 0.102531,0.10253 0.102531,0.3108 0,0.0545 -0.0032,0.0865 l -0.08651,0.84908 q -0.0032,0.016 -0.0032,0.0449 0,0.0481 0.01602,0.0705 0.01602,0.0192 0.05767,0.0192 0.03845,0 0.06729,-0.006 0.02884,-0.01 0.04165,-0.01 0.01922,0 0.01922,0.0288 0,0.032 -0.0096,0.0801 -0.0064,0.0449 -0.01602,0.0641 -0.01282,0.032 -0.06729,0.0545 -0.05447,0.0192 -0.115347,0.0192 z"
           inkscape:connector-curvature="0" />
        <path
           id="path2828"
           style="font-style:italic;font-variant:normal;font-weight:normal;font-stretch:normal;line-height:0.89999998;font-family:'Asap Condensed';-inkscape-font-specification:'Asap Condensed, Italic';letter-spacing:-0.03442814px;fill:#1a2026;fill-opacity:1;stroke-width:0.03754793"
           d="m 81.71885,198.11856 q -0.121756,0 -0.112143,-0.0705 l 0.02243,-0.21147 q 0.0064,-0.0705 0.128164,-0.0705 h 0.05767 q 0.121755,0 0.115347,0.0705 l -0.02243,0.21147 q -0.0096,0.0705 -0.131368,0.0705 z"
           inkscape:connector-curvature="0" />
        <path
           id="path2830"
           style="font-style:italic;font-variant:normal;font-weight:normal;font-stretch:normal;line-height:0.89999998;font-family:'Asap Condensed';-inkscape-font-specification:'Asap Condensed, Italic';letter-spacing:-0.03442814px;fill:#1a2026;fill-opacity:1;stroke-width:0.03754793"
           d="m 82.829885,198.13138 q -0.297981,0 -0.445369,-0.1538 -0.147388,-0.157 -0.147388,-0.49984 0,-0.52226 0.195449,-0.79141 0.198654,-0.26914 0.570328,-0.26914 0.144185,0 0.262736,0.0449 0.121755,0.0417 0.121755,0.0993 0,0.0352 -0.04806,0.10574 -0.04486,0.0705 -0.07049,0.0705 -0.0064,0 -0.03204,-0.0128 -0.0096,-0.003 -0.05127,-0.0256 -0.03845,-0.0224 -0.09292,-0.0352 -0.05127,-0.016 -0.108939,-0.016 -0.221082,0 -0.339634,0.21147 -0.115347,0.20827 -0.115347,0.60878 0,0.22429 0.0801,0.33002 0.0801,0.10253 0.253124,0.10253 0.09292,0 0.153796,-0.0192 0.06088,-0.0192 0.118551,-0.0513 0.01602,-0.006 0.02563,-0.016 0.01282,-0.01 0.01922,-0.01 0.02884,0 0.05767,0.0577 0.03204,0.0577 0.03204,0.0993 0,0.0385 -0.07369,0.0801 -0.07049,0.0384 -0.176225,0.0641 -0.102531,0.0256 -0.189041,0.0256 z"
           inkscape:connector-curvature="0" />
        <path
           id="path2832"
           style="font-style:italic;font-variant:normal;font-weight:normal;font-stretch:normal;line-height:0.89999998;font-family:'Asap Condensed';-inkscape-font-specification:'Asap Condensed, Italic';letter-spacing:-0.03442814px;fill:#1a2026;fill-opacity:1;stroke-width:0.03754793"
           d="m 83.494597,198.11215 q -0.02884,0 -0.04806,-0.0513 -0.01922,-0.0513 -0.01922,-0.0961 0,-0.032 0.02243,-0.0641 l 0.842676,-1.23357 h -0.621594 q -0.06088,0 -0.05127,-0.0961 l 0.0032,-0.0384 q 0.0064,-0.0513 0.02243,-0.0737 0.01602,-0.0224 0.04806,-0.0224 h 0.890737 q 0.02243,0 0.03845,0.0545 0.01602,0.0545 0.01602,0.0993 0,0.0288 -0.01923,0.0609 l -0.842676,1.23037 h 0.672859 q 0.06088,0 0.05127,0.0961 l -0.0032,0.0385 q -0.0064,0.0513 -0.02243,0.0737 -0.01602,0.0224 -0.04806,0.0224 z"
           inkscape:connector-curvature="0" />
      </g>
    </g>
    <text
       xml:space="preserve"
       style="font-style:italic;font-variant:normal;font-weight:bold;font-stretch:normal;font-size:33.96669388px;line-height:1.25;font-family:'Asap Condensed';-inkscape-font-specification:'Asap Condensed,  Bold Italic';letter-spacing:0px;word-spacing:0px;fill:#000000;fill-opacity:1;stroke:none;stroke-width:0.39804724"
       x="82.230316"
       y="273.25339"
       id="text5944"><tspan
         sodipodi:role="line"
         id="tspan5942"
         x="82.230316"
         y="273.25339"
         style="font-style:italic;font-variant:normal;font-weight:bold;font-stretch:normal;font-family:'Asap Condensed';-inkscape-font-specification:'Asap Condensed,  Bold Italic';stroke-width:0.39804724">Podepite zde</tspan></text>
    <g
       id="g5978"
       transform="matrix(0.96009685,0,0,0.96009685,16.698073,8.2507191)">
      <text
         xml:space="preserve"
         style="font-style:italic;font-variant:normal;font-weight:bold;font-stretch:normal;font-size:15.2037735px;line-height:1;font-family:'Asap Condensed';-inkscape-font-specification:'Asap Condensed, Bold Italic';letter-spacing:0px;word-spacing:0px;fill:#000000;fill-opacity:1;stroke:none;stroke-width:0.17816924"
         x="77.562881"
         y="201.54227"
         id="text5952"><tspan
           id="tspan5954"
           sodipodi:role="line"
           x="77.562881"
           y="201.54227"
           style="font-style:italic;font-variant:normal;font-weight:bold;font-stretch:normal;line-height:1;font-family:'Asap Condensed';-inkscape-font-specification:'Asap Condensed, Bold Italic';stroke-width:0.17816924">Petice za referendum</tspan></text>
      <text
         id="text5962"
         y="216.83528"
         x="76.335518"
         style="font-style:italic;font-variant:normal;font-weight:bold;font-stretch:normal;font-size:15.2037735px;line-height:1;font-family:'Asap Condensed';-inkscape-font-specification:'Asap Condensed, Bold Italic';letter-spacing:0px;word-spacing:0px;fill:#000000;fill-opacity:1;stroke:none;stroke-width:0.17816924"
         xml:space="preserve"><tspan
           id="tspan5964"
           style="font-style:italic;font-variant:normal;font-weight:bold;font-stretch:normal;line-height:1;font-family:'Asap Condensed';-inkscape-font-specification:'Asap Condensed, Bold Italic';stroke-width:0.17816924"
           y="216.83528"
           x="76.335518"
           sodipodi:role="line">o stavb fotbalovho stadionu</tspan></text>
      <text
         xml:space="preserve"
         style="font-style:italic;font-variant:normal;font-weight:bold;font-stretch:normal;font-size:15.2037735px;line-height:1;font-family:'Asap Condensed';-inkscape-font-specification:'Asap Condensed, Bold Italic';letter-spacing:0px;word-spacing:0px;fill:#000000;fill-opacity:1;stroke:none;stroke-width:0.17816924"
         x="74.73996"
         y="231.48973"
         id="text5970"><tspan
           sodipodi:role="line"
           x="74.73996"
           y="231.48973"
           style="font-style:italic;font-variant:normal;font-weight:bold;font-stretch:normal;line-height:1;font-family:'Asap Condensed';-inkscape-font-specification:'Asap Condensed, Bold Italic';stroke-width:0.17816924"
           id="tspan5968">za penze msta</tspan></text>
    </g>
  </g>
</svg>
