<?xml version="1.0" encoding="UTF-8" standalone="no"?>
<!-- Created with Inkscape (http://www.inkscape.org/) -->

<svg
   xmlns:dc="http://purl.org/dc/elements/1.1/"
   xmlns:cc="http://creativecommons.org/ns#"
   xmlns:rdf="http://www.w3.org/1999/02/22-rdf-syntax-ns#"
   xmlns:svg="http://www.w3.org/2000/svg"
   xmlns="http://www.w3.org/2000/svg"
   xmlns:sodipodi="http://sodipodi.sourceforge.net/DTD/sodipodi-0.dtd"
   xmlns:inkscape="http://www.inkscape.org/namespaces/inkscape"
   width="1080px"
   height="1080px"
   viewBox="0 0 1080 1080"
   version="1.1"
   id="SVGRoot"
   inkscape:version="0.92.4 (5da689c313, 2019-01-14)"
   sodipodi:docname="fb-longquote.svg"
   inkscape:export-filename="D:\Users\domin\Documents\Piráti\Grafika\Referendum\fb-šablony\fb-longquote.png"
   inkscape:export-xdpi="96"
   inkscape:export-ydpi="96">
  <defs
     id="defs497" />
  <sodipodi:namedview
     id="base"
     pagecolor="#ffffff"
     bordercolor="#666666"
     borderopacity="1.0"
     inkscape:pageopacity="0.0"
     inkscape:pageshadow="2"
     inkscape:zoom="0.47407407"
     inkscape:cx="825.94482"
     inkscape:cy="556.98473"
     inkscape:document-units="px"
     inkscape:current-layer="layer1"
     showgrid="false"
     inkscape:window-width="1920"
     inkscape:window-height="1017"
     inkscape:window-x="-8"
     inkscape:window-y="-8"
     inkscape:window-maximized="1" />
  <metadata
     id="metadata500">
    <rdf:RDF>
      <cc:Work
         rdf:about="">
        <dc:format>image/svg+xml</dc:format>
        <dc:type
           rdf:resource="http://purl.org/dc/dcmitype/StillImage" />
        <dc:title></dc:title>
      </cc:Work>
    </rdf:RDF>
  </metadata>
  <g
     inkscape:groupmode="layer"
     id="layer2"
     inkscape:label="bg"
     sodipodi:insensitive="true">
    <rect
       style="opacity:1;fill:#ffffff;fill-opacity:1;stroke:none;stroke-width:0.80902749;stroke-opacity:1"
       id="rect628"
       width="1080"
       height="1080"
       x="0"
       y="0" />
    <rect
       style="opacity:1;fill:#529643;fill-opacity:1;stroke:none;stroke-width:0.64413983;stroke-opacity:1"
       id="rect636"
       width="1080"
       height="40"
       x="0"
       y="0" />
  </g>
  <g
     inkscape:label="Vrstva 1"
     inkscape:groupmode="layer"
     id="layer1">
    <rect
       style="opacity:0.5;fill:#eaeaeb;fill-opacity:1;stroke:none;stroke-width:1.08578753;stroke-opacity:1"
       id="rect1499"
       width="1080"
       height="210"
       x="0"
       y="870" />
    <g
       id="g1480"
       transform="matrix(0.70790981,0,0,0.70790981,157.7287,314.57834)">
      <g
         transform="translate(942.89063,704.53125)"
         id="g626">
        <path
           sodipodi:nodetypes="ccccccccccc"
           inkscape:connector-curvature="0"
           style="opacity:1;fill:#529643;fill-opacity:1;stroke-width:0.25484201"
           d="m -632.5277,143.824 c -10.79094,-0.0484 -20.01598,8.04514 -21.17239,19.01598 l -7.12414,67.59417 c -1.2335,11.70217 7.19347,22.11632 18.8957,23.34981 l 54.92045,5.78796 c 11.70222,1.23357 22.11628,-7.19334 23.34976,-18.89559 l 7.12532,-67.59425 c 1.23352,-11.70217 -7.19471,-22.11628 -18.89692,-23.34977 l -54.92034,-5.78914 c -0.73141,-0.0805 -1.45804,-0.11679 -2.17744,-0.11905 z"
           id="path309" />
        <path
           style="display:inline;opacity:1;fill:#1a2026;fill-opacity:1;stroke-width:0.27849227"
           d="m -635.37468,139.09853 c -11.79239,-0.0563 -21.87428,8.79262 -23.13798,20.78151 l -7.78502,73.86686 c -1.34797,12.78822 7.86113,24.16906 20.64936,25.51703 l 60.01713,6.32474 c 12.78823,1.34797 24.16908,-7.86112 25.51705,-20.64938 l 7.78605,-73.86686 c 1.34801,-12.78818 -7.86217,-24.16902 -20.65041,-25.51703 l -60.01715,-6.32579 c -0.79928,-0.0847 -1.59286,-0.12851 -2.37903,-0.13115 z m 13.81747,15.38416 v 0.003 c 0.3148,0.003 0.6314,0.0265 0.95096,0.0484 l 4.62265,0.49213 36.93718,3.88018 4.60761,0.49319 c 5.1153,0.53956 8.8003,5.09174 8.26103,10.20703 l -3.52771,33.47074 -0.73066,6.92859 -3.52771,33.4718 c -0.53955,5.11533 -5.09174,8.7992 -10.20701,8.25993 l -4.63771,-0.49334 -36.91892,-3.88014 -4.6119,-0.49217 c -5.11536,-0.53953 -8.79812,-5.09174 -8.25888,-10.20699 l 3.52877,-33.47071 0.72853,-6.93078 3.52878,-33.47074 c 0.50521,-4.79562 4.53795,-8.33235 9.25499,-8.31156 z m 4.50875,10.5874 c -0.0674,0.63942 -0.003,1.26126 0.17189,1.83851 -0.17469,-0.57721 -0.23928,-1.19909 -0.17189,-1.83851 z m 0.32345,2.26189 c 0.17137,0.41496 0.4013,0.80168 0.68126,1.14762 -0.27987,-0.34583 -0.50997,-0.73266 -0.68126,-1.14762 z m 0.97783,1.47961 c 0.41609,0.4238 0.91419,0.76868 1.47426,1.00902 -0.56,-0.24037 -1.05828,-0.58526 -1.47426,-1.00902 z m 32.79164,3.9586 c -0.27658,0.11415 -0.5661,0.20183 -0.86503,0.26117 0.29885,-0.059 0.58836,-0.14702 0.86503,-0.26117 z m -19.28363,14.9898 a 15.319479,15.319479 0 0 0 -0.041,0.002 c 0.0253,8e-5 0.048,-1.1e-4 0.0721,0 a 15.319479,15.319479 0 0 0 -0.0318,-0.002 z m -2.80777,0.25928 a 15.319479,15.319479 0 0 0 -0.46099,0.0903 c 0.15277,-0.034 0.30679,-0.0624 0.46099,-0.0903 z m 6.49556,0.21278 c 0.0159,0.003 0.0344,0.0113 0.0514,0.0113 a 15.319479,15.319479 0 0 0 -0.0514,-0.0113 z m -7.93974,0.12586 a 15.319479,15.319479 0 0 0 -0.40834,0.11603 c 0.13467,-0.0427 0.27217,-0.0771 0.40834,-0.11603 z m -1.51188,0.51474 a 15.319479,15.319479 0 0 0 -0.24393,0.0926 c 0.08,-0.034 0.16332,-0.0601 0.24393,-0.0926 z m -1.52262,0.70378 a 15.319479,15.319479 0 0 0 -0.32772,0.19011 c 0.10983,-0.0624 0.21638,-0.13039 0.32772,-0.19011 z m 15.12302,0.39761 c 0.10575,0.0643 0.20738,0.13417 0.31155,0.20107 a 15.319479,15.319479 0 0 0 -0.31155,-0.20107 z m -16.34047,0.33411 a 15.319479,15.319479 0 0 0 -0.4094,0.28573 c 0.13587,-0.0964 0.2705,-0.19389 0.4094,-0.28573 z m 17.50313,0.44912 c 0.13402,0.099 0.26581,0.20069 0.39649,0.30387 a 15.319479,15.319479 0 0 0 -0.39649,-0.30425 z m -18.66362,0.40403 a 15.319479,15.319479 0 0 0 -0.39113,0.32353 c 0.1282,-0.11036 0.25946,-0.21732 0.39113,-0.32353 z m 19.79081,0.51689 c 0.11939,0.10696 0.23977,0.21279 0.35569,0.32353 a 15.319479,15.319479 0 0 0 -0.35569,-0.32353 z m -20.89329,0.46416 a 15.319479,15.319479 0 0 0 -0.32772,0.32126 c 0.10624,-0.11036 0.21834,-0.2143 0.32772,-0.32126 z m 22.02155,0.65654 c 0.0676,0.0748 0.14003,0.14514 0.20644,0.22148 a 15.319479,15.319479 0 0 0 -0.20644,-0.22148 z m -23.22288,0.65118 a 15.319479,15.319479 0 0 0 -0.0601,0.0699 c 0.0193,-0.0265 0.0409,-0.0457 0.0601,-0.0699 z m 24.32644,0.70167 c 0.0374,0.0522 0.0695,0.10847 0.10639,0.16138 a 15.319479,15.319479 0 0 0 -0.10639,-0.16138 z m -25.26022,0.58027 a 15.319479,15.319479 0 0 0 -0.0367,0.0582 c 0.0125,-0.0189 0.0242,-0.0389 0.0367,-0.0582 z m 12.45926,7.9e-4 c -0.2496,0.0113 -0.49538,0.0382 -0.74036,0.0707 a 8.356079,8.356079 0 0 1 0.74036,-0.0707 z m 0.836,0.003 v 8e-4 a 8.356079,8.356079 0 0 1 0.40617,0.034 8.356079,8.356079 0 0 1 0.7468,0.1183 c -0.24578,-0.0491 -0.49426,-0.0922 -0.7468,-0.11906 -0.13527,-0.0113 -0.27057,-0.0227 -0.40617,-0.034 z m -1.74292,0.0903 c -0.23755,0.0378 -0.47309,0.082 -0.70489,0.13871 a 8.356079,8.356079 0 0 1 0.70489,-0.13871 z m 3.08713,0.10318 a 8.356079,8.356079 0 0 1 0.57811,0.15156 c -0.19023,-0.0571 -0.38289,-0.10771 -0.57811,-0.15156 z m -3.91774,0.0699 c -0.21215,0.0552 -0.42148,0.11868 -0.62752,0.19012 a 8.356079,8.356079 0 0 1 0.62752,-0.19012 z m 4.66778,0.13191 a 8.356079,8.356079 0 0 1 0.71241,0.26646 c -0.23248,-0.0998 -0.47004,-0.18785 -0.71241,-0.26646 z m -5.42103,0.10093 c -0.2296,0.0839 -0.45406,0.17801 -0.6748,0.28157 a 8.356079,8.356079 0 0 1 0.6748,-0.28157 z m 16.06969,0.12812 c 0.0645,0.11037 0.12321,0.22413 0.18482,0.33638 a 15.319479,15.319479 0 0 0 -0.18482,-0.33638 z m -9.87175,0.0676 a 8.356079,8.356079 0 0 1 0.6071,0.2967 c -0.19786,-0.10658 -0.40036,-0.20561 -0.6071,-0.29669 z m -6.99631,0.14514 c -0.22707,0.11074 -0.45031,0.22941 -0.66623,0.35981 a 8.356079,8.356079 0 0 1 0.66623,-0.35981 z m -0.66623,0.35981 c -0.21816,0.13228 -0.4286,0.27704 -0.63397,0.42875 a 8.356079,8.356079 0 0 1 0.63397,-0.42875 z m 8.43941,-0.1149 a 8.356079,8.356079 0 0 1 0.61571,0.38358 c -0.1988,-0.13719 -0.40519,-0.2638 -0.61571,-0.38358 z m -17.69439,0.20636 a 15.319479,15.319479 0 0 0 -0.0516,0.0987 c 0.017,-0.034 0.0344,-0.0658 0.0516,-0.0987 z m 18.33052,0.19011 a 8.356079,8.356079 0 0 1 0.59424,0.45774 c -0.19181,-0.16063 -0.38858,-0.31483 -0.59424,-0.45774 z m -9.80729,0.21922 c -0.19498,0.14815 -0.38356,0.305 -0.56521,0.47062 a 8.356079,8.356079 0 0 1 0.56521,-0.47062 z m 18.92367,0.19237 c 0.0661,0.14211 0.12956,0.28611 0.19116,0.43087 a 15.319479,15.319479 0 0 0 -0.19116,-0.43086 z m -8.36634,0.18255 a 8.356079,8.356079 0 0 1 0.43733,0.41262 c -0.14068,-0.14324 -0.28676,-0.28006 -0.43733,-0.41261 z m -11.22892,0.19806 c -0.16074,0.15193 -0.31638,0.30878 -0.46527,0.47384 a 8.356079,8.356079 0 0 1 0.46527,-0.47384 z m 11.77263,0.32126 a 8.356079,8.356079 0 0 1 0.49322,0.56949 c -0.15625,-0.19766 -0.32043,-0.38747 -0.49322,-0.56949 z m -12.3056,0.22563 c -0.16233,0.18369 -0.31552,0.37682 -0.46204,0.57593 a 8.356079,8.356079 0 0 1 0.46204,-0.57593 z m 12.88691,0.46095 a 8.356079,8.356079 0 0 1 0.35138,0.4975 c -0.11115,-0.17007 -0.22866,-0.33637 -0.35138,-0.4975 z m 7.89138,0.22678 c 0.003,0.0113 0.009,0.0265 0.0129,0.0378 a 15.319479,15.319479 0 0 0 -0.0129,-0.0378 z m -21.32846,0.0113 c -0.14422,0.20371 -0.28376,0.41155 -0.41046,0.62967 a 8.356079,8.356079 0 0 1 8.4e-4,0 8.356079,8.356079 0 0 1 0.4094,-0.62967 z m 13.90236,0.43623 a 8.356079,8.356079 0 0 1 0.34707,0.61466 c -0.1067,-0.21127 -0.2239,-0.41488 -0.34707,-0.61466 z m 0.36858,0.65337 a 8.356079,8.356079 0 0 1 0.30073,0.68768 c -0.0918,-0.23433 -0.18958,-0.46503 -0.30073,-0.68768 z m 7.46158,0.35036 c 0.006,0.0227 0.009,0.0472 0.0159,0.0707 a 15.319479,15.319479 0 0 0 -0.0159,-0.0707 z m -22.81241,6.12264 c 0.005,0.0151 0.0121,0.0302 0.017,0.0431 a 8.356079,8.356079 0 0 1 -0.0162,-0.0431 z m 0.13323,0.34281 c 0.0758,0.19124 0.15832,0.3784 0.24714,0.56198 a 8.356079,8.356079 0 0 1 -0.24714,-0.56198 z m -7.16071,0.33864 a 15.319479,15.319479 0 0 0 0.031,0.12813 c -0.0102,-0.0427 -0.0212,-0.085 -0.031,-0.12813 z m 7.47554,0.36737 c 0.11343,0.22375 0.23671,0.44062 0.36858,0.65118 a 8.356079,8.356079 0 0 1 -0.36854,-0.65121 z m 14.58038,0.53511 a 8.356079,8.356079 0 0 1 -0.41475,0.61576 c 0.14578,-0.1988 0.28581,-0.4021 0.41475,-0.61576 z m -14.13659,0.22979 c 0.11449,0.17613 0.23532,0.34734 0.36212,0.51364 a 8.356079,8.356079 0 0 1 -0.36212,-0.51364 z m -7.53787,0.22148 a 15.319479,15.319479 0 0 0 0.16226,0.45669 c -0.055,-0.15194 -0.11184,-0.30274 -0.16226,-0.45669 z m 28.96414,0.31711 c -0.0645,0.18293 -0.13338,0.36245 -0.20421,0.54153 a 15.319479,15.319479 0 0 0 0.20421,-0.54153 z m -7.83769,0.0227 a 8.356079,8.356079 0 0 1 -0.3793,0.45452 c 0.13115,-0.14664 0.25818,-0.29782 0.3793,-0.45452 z m -13.11041,0.10317 c 0.15519,0.19427 0.31657,0.38295 0.48783,0.56194 a 8.356079,8.356079 0 0 1 -0.48781,-0.5611 z m 12.62472,0.47169 a 8.356079,8.356079 0 0 1 -0.52653,0.52082 c 0.18293,-0.16479 0.35792,-0.33865 0.52653,-0.52007 z m -12.08423,0.14211 c 0.15575,0.15987 0.31895,0.31181 0.48677,0.45883 a 8.356079,8.356079 0 0 1 -0.48676,-0.45883 z m -8.03216,0.30841 a 15.319479,15.319479 0 0 0 0.19234,0.4255 c -0.0666,-0.14022 -0.1299,-0.28271 -0.19234,-0.4255 z m 19.46093,0.17953 a 8.356079,8.356079 0 0 1 -0.46852,0.37606 c 0.16037,-0.11981 0.31662,-0.24491 0.46852,-0.37606 z m -10.77975,0.1096 c 0.17147,0.14249 0.34733,0.27893 0.52973,0.40725 a 8.356079,8.356079 0 0 1 -0.52973,-0.40725 z m 10.15759,0.38041 a 8.356079,8.356079 0 0 1 -0.62215,0.40513 c 0.21373,-0.1251 0.41986,-0.26154 0.62215,-0.40513 z m -9.56876,0.0707 c 0.20262,0.14022 0.4139,0.26835 0.6286,0.39009 a 8.356079,8.356079 0 0 1 -0.6286,-0.39009 z m 18.35417,0.10545 c -0.006,0.0151 -0.0159,0.0302 -0.0223,0.045 a 15.319479,15.319479 0 0 0 0.0223,-0.045 z m -9.47311,0.26419 a 8.356079,8.356079 0 0 1 -0.60605,0.3137 c 0.2061,-0.0968 0.40846,-0.20031 0.60605,-0.3137 z m -8.07944,0.1149 c 0.18039,0.0968 0.3637,0.18746 0.55124,0.27099 a 8.356079,8.356079 0 0 1 -0.55124,-0.27099 z m -9.40864,0.10734 a 15.319479,15.319479 0 0 0 0.20307,0.36434 c -0.071,-0.11905 -0.13526,-0.24302 -0.20307,-0.36434 z m 16.71118,0.16856 a 8.356079,8.356079 0 0 1 -0.62107,0.24718 c 0.21055,-0.0737 0.41747,-0.15722 0.62107,-0.24718 z m -6.61805,0.0548 c 0.22802,0.0968 0.46102,0.18369 0.69843,0.26003 a 8.356079,8.356079 0 0 1 -0.69843,-0.26003 z m 5.91101,0.22451 a 8.356079,8.356079 0 0 1 -0.70704,0.20107 c 0.23883,-0.0578 0.47508,-0.12246 0.70704,-0.20107 z m -5.0557,0.0816 c 0.19215,0.0578 0.38639,0.10847 0.58348,0.15269 a 8.356079,8.356079 0 0 1 -0.58348,-0.15269 z m 15.37554,0.0892 c -0.0654,0.10507 -0.12669,0.21278 -0.19434,0.31596 a 15.319479,15.319479 0 0 0 0.19434,-0.31596 z m -11.22568,0.0741 a 8.356079,8.356079 0 0 1 -0.5856,0.10545 c 0.19687,-0.0302 0.39211,-0.0635 0.5856,-0.10545 z m -3.36758,0.034 c 0.24359,0.0484 0.48915,0.0907 0.73927,0.11716 0.0159,0.002 0.0329,0.002 0.0496,0.003 a 8.356079,8.356079 0 0 1 -0.0483,-0.003 8.356079,8.356079 0 0 1 -0.74035,-0.11603 z m 2.61325,0.0979 a 8.356079,8.356079 0 0 1 -0.74355,0.0567 c 0.2496,-0.008 0.49769,-0.0265 0.74355,-0.0567 z m -1.50541,0.0442 c 0.21056,0.0113 0.41983,0.0151 0.6286,0.0113 a 8.356079,8.356079 0 0 1 -0.6286,-0.0113 z m -11.9424,0.55661 a 15.319479,15.319479 0 0 0 0.0903,0.13417 c -0.0317,-0.0435 -0.0589,-0.0903 -0.0903,-0.13417 z m 0.97246,1.22925 a 15.319479,15.319479 0 0 0 0.29869,0.31824 c -0.0992,-0.10621 -0.20247,-0.20901 -0.29869,-0.31824 z m 22.46426,0.52653 c -0.0861,0.0888 -0.17817,0.17121 -0.26646,0.25776 a 15.319479,15.319479 0 0 0 0.26646,-0.25776 z m -21.46817,0.49859 a 15.319479,15.319479 0 0 0 0.37395,0.33638 c -0.12575,-0.11074 -0.25194,-0.22148 -0.37395,-0.33638 z m 20.43768,0.46636 c -0.12831,0.10998 -0.25946,0.21581 -0.39112,0.32126 a 15.319479,15.319479 0 0 0 0.39112,-0.32126 z m -19.34595,0.46526 a 15.319479,15.319479 0 0 0 0.40187,0.30614 c -0.13625,-0.099 -0.26906,-0.20258 -0.40187,-0.30614 z m 18.21232,0.41586 c -0.1372,0.0968 -0.27341,0.19427 -0.4137,0.28687 a 15.319479,15.319479 0 0 0 0.4137,-0.28687 z m -16.94973,0.46957 a 15.319479,15.319479 0 0 0 0.31593,0.20107 c -0.10746,-0.0639 -0.21022,-0.13417 -0.31593,-0.20107 z m 15.65061,0.35452 c -0.10957,0.062 -0.21562,0.13001 -0.32666,0.18935 a 15.319479,15.319479 0 0 0 0.32666,-0.18935 z m -14.07427,0.52331 a 15.319479,15.319479 0 0 0 0.11603,0.0495 c -0.038,-0.0189 -0.0782,-0.0302 -0.11603,-0.0495 z m 12.46139,0.28158 c -0.0457,0.0189 -0.0937,0.034 -0.13973,0.0514 a 15.319479,15.319479 0 0 0 0.13973,-0.0514 z m -11.15045,0.26229 a 15.319479,15.319479 0 0 0 0.43517,0.144 c -0.14513,-0.0484 -0.29216,-0.0918 -0.43517,-0.144 z m 9.81802,0.22035 c -0.13943,0.0438 -0.28135,0.0794 -0.42227,0.11906 a 15.319479,15.319479 0 0 0 0.42227,-0.11906 z m -8.27713,0.2555 a 15.319479,15.319479 0 0 0 0.0676,0.0189 c -0.0223,-0.008 -0.0451,-0.0113 -0.0676,-0.0189 z m 6.88239,0.10734 c -0.15466,0.034 -0.31026,0.0627 -0.46635,0.0915 a 15.319479,15.319479 0 0 0 0.46635,-0.0915 z m -5.36945,0.19124 a 15.319479,15.319479 0 0 0 0.58023,0.0752 c -0.19468,-0.0227 -0.38782,-0.0472 -0.58023,-0.0752 z m 3.94245,0.042 c -0.1629,0.0189 -0.32576,0.0401 -0.48995,0.0537 a 15.319479,15.319479 0 0 0 0.48995,-0.0537 z m -1.88256,0.11263 a 15.319479,15.319479 0 0 0 0.11592,0 c -0.0387,0 -0.0772,3e-4 -0.11592,0 z m -18.05974,14.78026 c -0.0317,0.003 -0.062,0.0113 -0.0935,0.0113 0.0344,-0.003 0.0676,-0.0113 0.10208,-0.0113 -0.003,3e-4 -0.006,-2.6e-4 -0.009,0 z m 0.94236,0.008 27.70046,2.92059 c 0.13814,0.0151 0.27375,0.0378 0.40728,0.0631 -0.13402,-0.0265 -0.26899,-0.0499 -0.40728,-0.0646 z m -1.3711,0.0567 c -0.0508,0.0113 -0.1002,0.0265 -0.15043,0.034 0.0503,-0.0113 0.0996,-0.0265 0.15043,-0.034 z m -0.43734,0.10734 c -0.0425,0.0113 -0.0837,0.0302 -0.12574,0.042 0.0421,-0.0113 0.0831,-0.0302 0.12574,-0.042 z m -0.42121,0.14702 c -0.0381,0.0151 -0.0751,0.034 -0.11282,0.0495 0.0378,-0.0151 0.0748,-0.034 0.11282,-0.0495 z m -0.39221,0.18029 c -0.0444,0.0227 -0.0874,0.0488 -0.13111,0.0729 0.0437,-0.0265 0.0866,-0.0499 0.13111,-0.0729 z m -0.36858,0.21392 c -0.0507,0.034 -0.1,0.0665 -0.14936,0.10091 0.0492,-0.034 0.0988,-0.0688 0.14936,-0.10091 z m -0.34386,0.24378 c -0.0532,0.0412 -0.1056,0.0832 -0.15689,0.12661 0.0514,-0.0435 0.10368,-0.0854 0.15689,-0.12661 z m -0.32557,0.27817 c -0.0496,0.0465 -0.0986,0.0933 -0.14615,0.14173 0.0476,-0.0488 0.0966,-0.0952 0.14615,-0.14173 z m -0.30085,0.30917 c -0.0449,0.0506 -0.0895,0.10091 -0.13217,0.15382 0.0425,-0.0525 0.0875,-0.10318 0.13217,-0.15382 z m -0.27723,0.34582 c -0.0385,0.0529 -0.0776,0.10545 -0.11391,0.15988 0.0363,-0.0548 0.0754,-0.10734 0.11391,-0.15988 z m -0.23641,0.35868 c -0.0348,0.059 -0.0697,0.11679 -0.10208,0.17726 0.0325,-0.0605 0.0672,-0.1183 0.10208,-0.17726 z m -0.20307,0.38362 c -0.0306,0.0646 -0.0626,0.12813 -0.0903,0.19427 0.0276,-0.0665 0.0598,-0.13002 0.0903,-0.19427 z m -0.16656,0.40078 c -0.0261,0.0718 -0.0548,0.14249 -0.0774,0.21581 0.0227,-0.0737 0.0514,-0.14437 0.0774,-0.21581 z m -0.13112,0.42339 c -0.0196,0.0763 -0.0422,0.1508 -0.058,0.22904 0.0159,-0.0779 0.0384,-0.1527 0.058,-0.22904 z"
           id="path280"
           inkscape:connector-curvature="0"
           inkscape:export-xdpi="96"
           inkscape:export-ydpi="96" />
        <path
           inkscape:connector-curvature="0"
           style="display:inline;opacity:1;fill:#1a2026;fill-opacity:1;stroke-width:0.92845333"
           d="m -535.33226,184.56013 4.61667,0.48663 c 2.55764,0.2696 4.39966,2.54566 4.13007,5.1033 l -4.37971,41.55022 c -0.2696,2.55765 -2.5457,4.39967 -5.10334,4.13007 l -4.61667,-0.48663 c -2.55765,-0.2696 -4.39966,-2.54569 -4.13007,-5.10334 l 4.37971,-41.55022 c 0.2696,-2.55765 2.54569,-4.39963 5.10334,-4.13003 z"
           id="rect282" />
        <g
           transform="matrix(3.7795276,0,0,3.7795276,-942.89067,-261.66462)"
           aria-label="NECHCI STADION"
           style="font-style:italic;font-variant:normal;font-weight:bold;font-stretch:normal;font-size:15.94422913px;line-height:0.89999998;font-family:'Asap Condensed';-inkscape-font-specification:'Asap Condensed, Bold Italic';letter-spacing:-0.17132173px;word-spacing:0px;display:inline;opacity:1;fill:#1a2026;fill-opacity:1;stroke:none;stroke-width:0.18684646"
           id="text288">
          <path
             inkscape:connector-curvature="0"
             d="m 114.67358,119.28758 q -0.94071,0 -0.86099,-0.51022 l 1.06826,-10.2043 q 0.0478,-0.51022 0.9726,-0.51022 h 0.41455 q 0.30294,0 0.47833,0.0957 0.19133,0.0797 0.30294,0.35077 l 2.28002,5.35726 q 0.22322,0.52616 0.41455,1.24365 l 0.0638,-0.0319 q -0.0319,-0.51021 -0.0319,-0.76532 0,-0.17539 0.0319,-0.49427 l 0.58993,-5.24565 q 0.0478,-0.51022 0.9726,-0.51022 h 0.38266 q 0.92477,0 0.87694,0.51022 l -1.06827,10.2043 q -0.0797,0.51022 -0.98854,0.51022 H 120.27 q -0.31888,0 -0.51021,-0.0957 -0.19133,-0.0957 -0.30294,-0.35077 l -2.42353,-5.58048 q -0.11161,-0.23916 -0.20727,-0.55805 -0.0797,-0.33483 -0.11161,-0.46238 l -0.0957,0.0478 q 0.016,0.12756 0.0319,0.30294 0.016,0.15945 0.016,0.38267 0,0.14349 -0.0319,0.3986 l -0.58994,5.40509 q -0.0478,0.51022 -0.98854,0.51022 z"
             style="font-style:italic;font-variant:normal;font-weight:bold;font-stretch:normal;line-height:0.89999998;font-family:'Asap Condensed';-inkscape-font-specification:'Asap Condensed, Bold Italic';letter-spacing:-0.17132173px;fill:#1a2026;fill-opacity:1;stroke-width:0.18684646"
             id="path2838" />
          <path
             inkscape:connector-curvature="0"
             d="m 123.6677,119.25569 q -0.31889,0 -0.44644,-0.1435 -0.11161,-0.15944 -0.0797,-0.49427 l 1.05231,-9.88542 q 0.0319,-0.33483 0.19134,-0.47833 0.15944,-0.15944 0.46238,-0.15944 h 4.70355 q 0.3986,0 0.3986,0.57399 l -0.0159,0.22322 -0.0478,0.49427 q -0.0638,0.79722 -0.55804,0.79722 h -2.80619 l -0.23916,2.31191 h 2.4873 q 0.3986,0 0.3986,0.57399 l -0.0159,0.22322 -0.0478,0.49427 q -0.0638,0.79721 -0.55805,0.79721 h -2.4873 l -0.27105,2.58297 h 2.82213 q 0.20727,0 0.28699,0.1435 0.0957,0.12755 0.0957,0.41455 l -0.0159,0.23916 -0.0478,0.49427 q -0.0638,0.79721 -0.5421,0.79721 z"
             style="font-style:italic;font-variant:normal;font-weight:bold;font-stretch:normal;line-height:0.89999998;font-family:'Asap Condensed';-inkscape-font-specification:'Asap Condensed, Bold Italic';letter-spacing:-0.17132173px;fill:#1a2026;fill-opacity:1;stroke-width:0.18684646"
             id="path2840" />
          <path
             inkscape:connector-curvature="0"
             d="m 134.08764,119.38325 q -1.9452,0 -2.85402,-1.03638 -0.89287,-1.03637 -0.89287,-3.20479 0,-3.49179 1.27554,-5.32537 1.29148,-1.84953 3.74689,-1.84953 0.73343,0 1.3712,0.17538 0.4305,0.12756 0.4305,0.574 0,0.11161 -0.016,0.15944 -0.0957,0.62182 -0.35077,1.06826 -0.25511,0.4305 -0.55805,0.33483 -0.47833,-0.15944 -0.98854,-0.15944 -1.08421,0 -1.72198,1.25959 -0.62182,1.24365 -0.62182,3.39612 0,1.21176 0.3986,1.83359 0.41455,0.60588 1.27554,0.60588 0.46238,0 1.06827,-0.17539 0.0478,-0.0159 0.15944,-0.0159 0.23916,0 0.36671,0.27105 0.12756,0.25511 0.12756,0.73344 0,0.5421 -0.12756,0.78126 -0.1116,0.22322 -0.43049,0.33483 -0.287,0.0957 -0.73343,0.15944 -0.44644,0.0797 -0.92477,0.0797 z"
             style="font-style:italic;font-variant:normal;font-weight:bold;font-stretch:normal;line-height:0.89999998;font-family:'Asap Condensed';-inkscape-font-specification:'Asap Condensed, Bold Italic';letter-spacing:-0.17132173px;fill:#1a2026;fill-opacity:1;stroke-width:0.18684646"
             id="path2842" />
          <path
             inkscape:connector-curvature="0"
             d="m 138.22101,119.28758 q -0.92476,0 -0.87693,-0.51022 l 1.08421,-10.2043 q 0.0478,-0.51022 0.9726,-0.51022 h 0.66965 q 0.90882,0 0.86099,0.51022 l -0.41455,3.93822 h 2.72647 l 0.41454,-3.93822 q 0.0478,-0.51022 0.9726,-0.51022 h 0.65372 q 0.92476,0 0.87693,0.51022 l -1.08421,10.2043 q -0.0478,0.51022 -0.9726,0.51022 h -0.65371 q -0.92477,0 -0.87693,-0.51022 l 0.44644,-4.16144 h -2.72647 l -0.44644,4.16144 q -0.0478,0.51022 -0.95665,0.51022 z"
             style="font-style:italic;font-variant:normal;font-weight:bold;font-stretch:normal;line-height:0.89999998;font-family:'Asap Condensed';-inkscape-font-specification:'Asap Condensed, Bold Italic';letter-spacing:-0.17132173px;fill:#1a2026;fill-opacity:1;stroke-width:0.18684646"
             id="path2844" />
          <path
             inkscape:connector-curvature="0"
             d="m 150.50171,119.38325 q -1.94519,0 -2.85401,-1.03638 -0.89288,-1.03637 -0.89288,-3.20479 0,-3.49179 1.27554,-5.32537 1.29148,-1.84953 3.74689,-1.84953 0.73344,0 1.37121,0.17538 0.43049,0.12756 0.43049,0.574 0,0.11161 -0.0159,0.15944 -0.0957,0.62182 -0.35078,1.06826 -0.2551,0.4305 -0.55804,0.33483 -0.47833,-0.15944 -0.98855,-0.15944 -1.0842,0 -1.72197,1.25959 -0.62183,1.24365 -0.62183,3.39612 0,1.21176 0.39861,1.83359 0.41455,0.60588 1.27554,0.60588 0.46238,0 1.06826,-0.17539 0.0478,-0.0159 0.15944,-0.0159 0.23916,0 0.36672,0.27105 0.12755,0.25511 0.12755,0.73344 0,0.5421 -0.12755,0.78126 -0.11161,0.22322 -0.4305,0.33483 -0.28699,0.0957 -0.73343,0.15944 -0.44644,0.0797 -0.92477,0.0797 z"
             style="font-style:italic;font-variant:normal;font-weight:bold;font-stretch:normal;line-height:0.89999998;font-family:'Asap Condensed';-inkscape-font-specification:'Asap Condensed, Bold Italic';letter-spacing:-0.17132173px;fill:#1a2026;fill-opacity:1;stroke-width:0.18684646"
             id="path2846" />
          <path
             inkscape:connector-curvature="0"
             d="m 154.55537,119.30352 q -0.92477,0 -0.87694,-0.52616 l 1.08421,-10.2043 q 0.0478,-0.52616 0.9726,-0.52616 h 0.66966 q 0.90882,0 0.86098,0.52616 l -1.0842,10.2043 q -0.0478,0.52616 -0.95666,0.52616 z"
             style="font-style:italic;font-variant:normal;font-weight:bold;font-stretch:normal;line-height:0.89999998;font-family:'Asap Condensed';-inkscape-font-specification:'Asap Condensed, Bold Italic';letter-spacing:-0.17132173px;fill:#1a2026;fill-opacity:1;stroke-width:0.18684646"
             id="path2848" />
          <path
             inkscape:connector-curvature="0"
             d="m 162.29439,119.38325 q -0.86099,0 -1.59442,-0.25511 -0.43049,-0.15944 -0.74938,-0.39861 -0.30294,-0.23916 -0.30294,-0.52616 -0.0159,-0.46238 0.22322,-1.00448 0.23916,-0.54211 0.55805,-0.54211 0.12755,0 0.38266,0.1435 0.25511,0.12755 0.39861,0.20728 0.60588,0.28699 1.16392,0.28699 0.52616,0 0.90882,-0.27105 0.38267,-0.287 0.38267,-0.87693 0,-0.51022 -0.31889,-0.84505 -0.30294,-0.33483 -0.95665,-0.76532 -0.62183,-0.41455 -1.02043,-0.76532 -0.39861,-0.35078 -0.6856,-0.94071 -0.27106,-0.58994 -0.27106,-1.41904 0,-1.02043 0.46239,-1.8017 0.47832,-0.79721 1.29148,-1.21176 0.81315,-0.43049 1.81764,-0.43049 0.51022,0 1.05232,0.12755 0.55805,0.11161 0.90882,0.31889 0.38266,0.22321 0.38266,0.55804 0,0.4305 -0.20727,0.94071 -0.20728,0.49427 -0.51022,0.49427 -0.1435,0 -0.47832,-0.11161 -0.60589,-0.22321 -1.00449,-0.22321 -0.74938,0 -0.98854,0.35077 -0.23917,0.35077 -0.23917,0.73343 0,0.51022 0.287,0.8291 0.287,0.30294 0.65371,0.54211 0.36672,0.22322 0.47833,0.30294 0.94071,0.60588 1.38715,1.27554 0.44644,0.65371 0.44644,1.64225 0,1.69009 -1.03638,2.66269 -1.03637,0.9726 -2.82213,0.9726 z"
             style="font-style:italic;font-variant:normal;font-weight:bold;font-stretch:normal;line-height:0.89999998;font-family:'Asap Condensed';-inkscape-font-specification:'Asap Condensed, Bold Italic';letter-spacing:-0.17132173px;fill:#1a2026;fill-opacity:1;stroke-width:0.18684646"
             id="path2850" />
          <path
             inkscape:connector-curvature="0"
             d="m 169.22623,119.28758 q -0.92477,0 -0.87694,-0.51022 l 0.90882,-8.59393 h -1.76981 q -0.20727,0 -0.30294,-0.12756 -0.0957,-0.12755 -0.0957,-0.41455 0,-0.15944 0.0159,-0.25511 l 0.0638,-0.49427 q 0.0478,-0.41455 0.17539,-0.60588 0.12755,-0.19133 0.36671,-0.19133 h 6.05881 q 0.22322,0 0.31889,0.12755 0.0957,0.12756 0.0957,0.41455 0,0.15945 -0.0159,0.25511 l -0.0638,0.49427 q -0.0478,0.41455 -0.17539,0.60588 -0.12755,0.19134 -0.38266,0.19134 h -1.78575 l -0.90882,8.59393 q -0.0478,0.51022 -0.9726,0.51022 z"
             style="font-style:italic;font-variant:normal;font-weight:bold;font-stretch:normal;line-height:0.89999998;font-family:'Asap Condensed';-inkscape-font-specification:'Asap Condensed, Bold Italic';letter-spacing:-0.17132173px;fill:#1a2026;fill-opacity:1;stroke-width:0.18684646"
             id="path2852" />
          <path
             inkscape:connector-curvature="0"
             d="m 173.40344,119.28758 q -0.73343,0 -0.73343,-0.35077 0,-0.0478 0.0478,-0.17539 0.0478,-0.12755 0.0797,-0.23916 l 3.52368,-10.01298 q 0.15944,-0.44644 1.02043,-0.44644 h 0.89287 q 0.87694,0 0.94071,0.44644 l 1.48282,10.14053 q 0.0159,0.0478 0.0159,0.15944 0,0.0797 -0.0159,0.12756 -0.0319,0.35077 -0.71749,0.35077 h -0.78127 q -0.74938,0 -0.81316,-0.33483 l -0.20727,-1.94519 h -2.4873 l -0.63777,1.94519 q -0.0797,0.33483 -0.78127,0.33483 z m 4.60788,-4.22522 -0.33483,-3.38018 q -0.0638,-0.79721 -0.0638,-1.21176 h -0.0797 q -0.20728,0.86099 -0.31889,1.21176 l -1.08421,3.38018 z"
             style="font-style:italic;font-variant:normal;font-weight:bold;font-stretch:normal;line-height:0.89999998;font-family:'Asap Condensed';-inkscape-font-specification:'Asap Condensed, Bold Italic';letter-spacing:-0.17132173px;fill:#1a2026;fill-opacity:1;stroke-width:0.18684646"
             id="path2854" />
          <path
             inkscape:connector-curvature="0"
             d="m 182.15864,119.25569 q -0.31888,0 -0.44643,-0.1435 -0.11161,-0.15944 -0.0797,-0.49427 l 1.05232,-9.88542 q 0.0319,-0.33483 0.19133,-0.47833 0.15945,-0.15944 0.46239,-0.15944 h 2.71052 q 2.02491,0 2.93373,1.14799 0.90883,1.14798 0.90883,3.68311 0,2.82213 -1.16393,4.576 -1.14799,1.75386 -3.53962,1.75386 z m 3.17291,-2.08869 q 1.06826,0 1.54659,-1.27554 0.47832,-1.29148 0.47832,-2.98157 0,-1.05232 -0.15944,-1.64226 -0.15944,-0.58993 -0.51021,-0.8291 -0.35078,-0.2551 -0.94071,-0.2551 h -0.70155 l -0.73343,6.98357 z"
             style="font-style:italic;font-variant:normal;font-weight:bold;font-stretch:normal;line-height:0.89999998;font-family:'Asap Condensed';-inkscape-font-specification:'Asap Condensed, Bold Italic';letter-spacing:-0.17132173px;fill:#1a2026;fill-opacity:1;stroke-width:0.18684646"
             id="path2856" />
          <path
             inkscape:connector-curvature="0"
             d="m 191.26961,119.30352 q -0.92477,0 -0.87694,-0.52616 l 1.08421,-10.2043 q 0.0478,-0.52616 0.9726,-0.52616 h 0.66966 q 0.90882,0 0.86099,0.52616 l -1.08421,10.2043 q -0.0478,0.52616 -0.95666,0.52616 z"
             style="font-style:italic;font-variant:normal;font-weight:bold;font-stretch:normal;line-height:0.89999998;font-family:'Asap Condensed';-inkscape-font-specification:'Asap Condensed, Bold Italic';letter-spacing:-0.17132173px;fill:#1a2026;fill-opacity:1;stroke-width:0.18684646"
             id="path2858" />
          <path
             inkscape:connector-curvature="0"
             d="m 198.22087,119.38325 q -3.6034,0 -3.6034,-4.63978 0,-1.92925 0.52616,-3.45989 0.52616,-1.53065 1.62631,-2.42353 1.1161,-0.89287 2.7743,-0.89287 3.6034,0 3.6034,4.62382 0,1.92926 -0.52616,3.47585 -0.52616,1.53064 -1.64226,2.42352 -1.10015,0.89288 -2.75835,0.89288 z m 0.27105,-2.0887 q 1.13204,0 1.64226,-1.38715 0.51021,-1.40309 0.51021,-3.33234 0,-1.33932 -0.33483,-1.91331 -0.31888,-0.58993 -0.98854,-0.58993 -1.14798,0 -1.67414,1.38714 -0.51022,1.37121 -0.51022,3.28451 0,1.37121 0.33483,1.96114 0.33483,0.58994 1.02043,0.58994 z"
             style="font-style:italic;font-variant:normal;font-weight:bold;font-stretch:normal;line-height:0.89999998;font-family:'Asap Condensed';-inkscape-font-specification:'Asap Condensed, Bold Italic';letter-spacing:-0.17132173px;fill:#1a2026;fill-opacity:1;stroke-width:0.18684646"
             id="path2860" />
          <path
             inkscape:connector-curvature="0"
             d="m 204.64423,119.28758 q -0.94071,0 -0.86098,-0.51022 l 1.06826,-10.2043 q 0.0478,-0.51022 0.9726,-0.51022 h 0.41455 q 0.30294,0 0.47832,0.0957 0.19133,0.0797 0.30294,0.35077 l 2.28003,5.35726 q 0.22322,0.52616 0.41455,1.24365 l 0.0638,-0.0319 q -0.0319,-0.51021 -0.0319,-0.76532 0,-0.17539 0.0319,-0.49427 l 0.58993,-5.24565 q 0.0478,-0.51022 0.9726,-0.51022 h 0.38266 q 0.92477,0 0.87693,0.51022 l -1.06826,10.2043 q -0.0797,0.51022 -0.98854,0.51022 h -0.30294 q -0.31889,0 -0.51022,-0.0957 -0.19133,-0.0957 -0.30294,-0.35077 l -2.42352,-5.58048 q -0.11161,-0.23916 -0.20728,-0.55805 -0.0797,-0.33483 -0.1116,-0.46238 l -0.0957,0.0478 q 0.0159,0.12756 0.0319,0.30294 0.0159,0.15945 0.0159,0.38267 0,0.14349 -0.0319,0.3986 l -0.58993,5.40509 q -0.0478,0.51022 -0.98854,0.51022 z"
             style="font-style:italic;font-variant:normal;font-weight:bold;font-stretch:normal;line-height:0.89999998;font-family:'Asap Condensed';-inkscape-font-specification:'Asap Condensed, Bold Italic';letter-spacing:-0.17132173px;fill:#1a2026;fill-opacity:1;stroke-width:0.18684646"
             id="path2862" />
        </g>
        <g
           transform="matrix(3.7795276,0,0,3.7795276,-942.89067,-261.66462)"
           aria-label="NA DLUH!"
           style="font-style:italic;font-variant:normal;font-weight:bold;font-stretch:normal;font-size:27.98316765px;line-height:0.89999998;font-family:'Asap Condensed';-inkscape-font-specification:'Asap Condensed, Bold Italic';letter-spacing:-0.30068088px;word-spacing:0px;display:inline;opacity:1;fill:#ed3b38;fill-opacity:1;stroke:none;stroke-width:0.32792777"
           id="text292">
          <path
             inkscape:connector-curvature="0"
             d="m 113.06,141.64978 q -1.65101,0 -1.51109,-0.89546 l 1.87487,-17.90923 q 0.084,-0.89546 1.70698,-0.89546 h 0.72756 q 0.53168,0 0.83949,0.1679 0.3358,0.13991 0.53168,0.61563 l 4.0016,9.40234 q 0.39176,0.92344 0.72756,2.18269 l 0.11193,-0.056 q -0.056,-0.89546 -0.056,-1.34319 0,-0.30782 0.056,-0.86748 l 1.03538,-9.20646 q 0.084,-0.89546 1.70697,-0.89546 h 0.6716 q 1.62302,0 1.53907,0.89546 l -1.87487,17.90923 q -0.13992,0.89546 -1.73496,0.89546 h -0.53168 q -0.55966,0 -0.89546,-0.1679 -0.3358,-0.1679 -0.53168,-0.61563 l -4.25344,-9.79411 q -0.19588,-0.41975 -0.36378,-0.97941 -0.13992,-0.58765 -0.19588,-0.81151 l -0.1679,0.084 q 0.028,0.22386 0.056,0.53168 0.028,0.27983 0.028,0.67159 0,0.25185 -0.056,0.69958 l -1.03538,9.4863 q -0.084,0.89546 -1.73495,0.89546 z"
             style="fill:#1a2026;fill-opacity:1;stroke-width:0.32792777"
             id="path2865" />
          <path
             inkscape:connector-curvature="0"
             d="m 127.61401,141.64978 q -1.28722,0 -1.28722,-0.61563 0,-0.084 0.0839,-0.30782 0.084,-0.22386 0.13992,-0.41974 l 6.18428,-17.57343 q 0.27983,-0.78353 1.79092,-0.78353 h 1.56706 q 1.53907,0 1.65101,0.78353 l 2.60243,17.79729 q 0.028,0.0839 0.028,0.27983 0,0.13992 -0.028,0.22387 -0.056,0.61563 -1.25924,0.61563 h -1.37118 q -1.3152,0 -1.42714,-0.58765 l -0.36378,-3.41395 h -4.36537 l -1.11933,3.41395 q -0.13992,0.58765 -1.37117,0.58765 z m 8.08714,-7.41554 -0.58765,-5.93243 q -0.11193,-1.39916 -0.11193,-2.12672 h -0.13992 q -0.36378,1.51109 -0.55966,2.12672 l -1.90286,5.93243 z"
             style="fill:#1a2026;fill-opacity:1;stroke-width:0.32792777"
             id="path2867" />
          <path
             inkscape:connector-curvature="0"
             d="m 147.1049,141.59381 q -0.55967,0 -0.78353,-0.25185 -0.19589,-0.27983 -0.13992,-0.86748 l 1.84689,-17.34956 q 0.056,-0.58765 0.3358,-0.83949 0.27983,-0.27984 0.81151,-0.27984 h 4.75714 q 3.55386,0 5.1489,2.01479 1.59504,2.01479 1.59504,6.46411 0,4.95302 -2.04277,8.03117 -2.01479,3.07815 -6.21226,3.07815 z m 5.56865,-3.66579 q 1.87487,0 2.71436,-2.23866 0.8395,-2.26663 0.8395,-5.23285 0,-1.84689 -0.27983,-2.88227 -0.27984,-1.03537 -0.89546,-1.45512 -0.61563,-0.44773 -1.65101,-0.44773 h -1.23126 l -1.28723,12.25663 z"
             style="font-style:italic;font-variant:normal;font-weight:bold;font-stretch:normal;line-height:0.89999998;font-family:'Asap Condensed';-inkscape-font-specification:'Asap Condensed, Bold Italic';letter-spacing:-0.30068088px;fill:#ed3b38;fill-opacity:1;stroke-width:0.32792777"
             id="path2869" />
          <path
             inkscape:connector-curvature="0"
             d="m 162.6475,141.59381 q -0.55967,0 -0.78353,-0.25185 -0.19588,-0.27983 -0.13992,-0.86748 l 1.87487,-17.62939 q 0.084,-0.89546 1.70698,-0.89546 h 1.11932 q 1.62303,0 1.53908,0.89546 l -1.59504,15.08293 h 4.16949 q 0.39176,0 0.55966,0.25184 0.1679,0.22387 0.1679,0.75555 l -0.028,0.39176 -0.11193,0.86748 q -0.056,0.72757 -0.30782,1.06336 -0.22386,0.3358 -0.67159,0.3358 z"
             style="font-style:italic;font-variant:normal;font-weight:bold;font-stretch:normal;line-height:0.89999998;font-family:'Asap Condensed';-inkscape-font-specification:'Asap Condensed, Bold Italic';letter-spacing:-0.30068088px;fill:#ed3b38;fill-opacity:1;stroke-width:0.32792777"
             id="path2871" />
          <path
             inkscape:connector-curvature="0"
             d="m 179.07207,141.81768 q -2.93823,0 -4.56125,-1.3432 -1.62303,-1.34319 -1.62303,-3.80571 0,-0.25184 0.056,-0.81151 l 1.37117,-13.01217 q 0.0839,-0.89546 1.70698,-0.89546 h 1.11932 q 1.62303,0 1.53908,0.89546 l -1.34319,12.73234 q -0.028,0.13992 -0.028,0.39176 0,0.97942 0.55967,1.59504 0.58764,0.58765 1.56705,0.58765 1.14731,0 1.81891,-0.64361 0.69958,-0.64361 0.8395,-1.93084 l 1.34319,-12.73234 q 0.0839,-0.89546 1.70697,-0.89546 h 1.09134 q 1.62303,0 1.53908,0.89546 l -1.37118,13.01217 q -0.27983,2.8263 -2.23865,4.39336 -1.95882,1.56706 -5.09294,1.56706 z"
             style="font-style:italic;font-variant:normal;font-weight:bold;font-stretch:normal;line-height:0.89999998;font-family:'Asap Condensed';-inkscape-font-specification:'Asap Condensed, Bold Italic';letter-spacing:-0.30068088px;fill:#ed3b38;fill-opacity:1;stroke-width:0.32792777"
             id="path2873" />
          <path
             inkscape:connector-curvature="0"
             d="m 190.18809,141.64978 q -1.62302,0 -1.53907,-0.89546 l 1.90285,-17.90923 q 0.0839,-0.89546 1.70697,-0.89546 h 1.1753 q 1.59504,0 1.51109,0.89546 l -0.72756,6.91184 h 4.78512 l 0.72756,-6.91184 q 0.084,-0.89546 1.70697,-0.89546 h 1.14731 q 1.62303,0 1.53908,0.89546 l -1.90286,17.90923 q -0.084,0.89546 -1.70697,0.89546 h -1.14731 q -1.62303,0 -1.53908,-0.89546 l 0.78353,-7.30361 h -4.78512 l -0.78353,7.30361 q -0.084,0.89546 -1.67899,0.89546 z"
             style="font-style:italic;font-variant:normal;font-weight:bold;font-stretch:normal;line-height:0.89999998;font-family:'Asap Condensed';-inkscape-font-specification:'Asap Condensed, Bold Italic';letter-spacing:-0.30068088px;fill:#ed3b38;fill-opacity:1;stroke-width:0.32792777"
             id="path2875" />
          <path
             inkscape:connector-curvature="0"
             d="m 207.16876,135.38155 q -0.86747,0 -1.14731,-0.19588 -0.27983,-0.22387 -0.22386,-0.69958 l 1.23126,-11.58503 q 0.056,-0.47572 0.44773,-0.69958 0.41975,-0.25185 1.25924,-0.25185 h 1.28723 q 0.78353,0 1.20327,0.22386 0.41975,0.22387 0.30782,0.6716 l -2.63042,11.641 q -0.11193,0.50369 -0.39176,0.69958 -0.27984,0.19588 -1.11933,0.19588 z m -1.06336,6.26823 q -1.651,0 -1.51109,-0.89546 l 0.25185,-2.57446 q 0.056,-0.44773 0.47571,-0.67159 0.41975,-0.22387 1.25925,-0.22387 h 0.92344 q 1.65101,0 1.51109,0.89546 l -0.25185,2.57446 q -0.056,0.44773 -0.47571,0.67159 -0.41975,0.22387 -1.25924,0.22387 z"
             style="fill:#1a2026;fill-opacity:1;stroke-width:0.32792777"
             id="path2877" />
        </g>
        <path
           style="display:inline;opacity:1;fill:#ffffff;stroke:none;stroke-width:0.25484198"
           d="m -615.98317,155.02705 c -0.36707,3.34587 -0.71178,6.69517 -1.06486,10.04262 -0.26944,2.55765 1.57173,4.83334 4.12944,5.10297 l 27.70047,2.92055 c 2.55765,0.26911 4.83346,-1.57292 5.10298,-4.13053 l 0.97351,-9.23346 0.0956,-0.82205 z m -19.08592,48.16823 17.57727,1.85246 c 0.90916,7.02962 6.52203,12.51764 13.57033,13.26841 7.04931,0.73413 13.68191,-3.46303 16.03638,-10.14796 l 17.4494,1.83855 0.73067,-6.92859 -17.41609,-1.8353 c -0.85364,-7.08771 -6.48975,-12.64626 -13.58857,-13.40168 -7.09857,-0.73893 -13.76702,3.52177 -16.07937,10.27371 l -17.55148,-1.85039 z m 32.38762,-8.46202 c 0.27851,-0.0113 0.55756,-0.0113 0.83597,0.003 0.13561,0.0113 0.27088,0.0189 0.40618,0.034 3.27012,0.34998 6.03092,2.58531 7.05328,5.71116 l -15.14776,-1.59677 c 1.42868,-2.45979 4.01058,-4.0238 6.85233,-4.15094 z m -7.52177,11.08278 15.02848,1.58389 c -1.67347,2.7713 -4.7971,4.32665 -8.01711,3.99193 -3.2201,-0.34318 -5.9521,-2.51565 -7.01137,-5.57582 z m -9.832,27.33834 c -2.35844,-0.0113 -4.37421,1.75968 -4.62696,4.15737 l -0.97352,9.2335 -0.0913,0.8199 36.91892,3.88017 0.10639,-0.80806 0.97352,-9.2324 c 0.26929,-2.55769 -1.57293,-4.83353 -4.13052,-5.10297 l -27.70047,-2.9206 c -0.15988,-0.0151 -0.31881,-0.0265 -0.47602,-0.0265 z m -17.07976,9.61282 c 0.32764,0.49527 0.70261,0.95807 1.11859,1.38187 -0.41598,-0.4238 -0.79095,-0.8866 -1.11859,-1.38187 z m 3.25155,3.00227 c 1.05618,0.58257 2.24564,0.96861 3.52448,1.10354 -1.27884,-0.13493 -2.4683,-0.52097 -3.52448,-1.10354 z"
           id="path337"
           inkscape:connector-curvature="0"
           sodipodi:nodetypes="ccccccccccccccccccccccccccccccccccccccccccaca"
           inkscape:export-xdpi="96"
           inkscape:export-ydpi="96" />
      </g>
      <text
         xml:space="preserve"
         style="font-style:italic;font-variant:normal;font-weight:normal;font-stretch:normal;font-size:41.66171646px;line-height:1.25;font-family:'Asap Condensed';-inkscape-font-specification:'Asap Condensed,  Italic';text-align:center;letter-spacing:0px;word-spacing:0px;text-anchor:middle;fill:#1a2026;fill-opacity:1;stroke:none;stroke-width:0.48822322"
         x="601.77716"
         y="1021.8311"
         id="text1445"><tspan
           sodipodi:role="line"
           id="tspan1443"
           x="601.77716"
           y="1021.8311"
           style="font-style:italic;font-variant:normal;font-weight:normal;font-stretch:normal;font-family:'Asap Condensed';-inkscape-font-specification:'Asap Condensed,  Italic';text-align:center;text-anchor:middle;fill:#1a2026;fill-opacity:1;stroke-width:0.48822322">nechcistadionnadluh.cz</tspan></text>
    </g>
    <text
       xml:space="preserve"
       style="font-style:italic;font-variant:normal;font-weight:bold;font-stretch:normal;font-size:85.33333588px;line-height:1.29999995;font-family:'Asap Condensed';-inkscape-font-specification:'Asap Condensed, Bold Italic';text-align:start;letter-spacing:0px;word-spacing:0px;text-anchor:start;fill:#1a2026;fill-opacity:1;stroke:none;stroke-width:1.15313065"
       x="300.66318"
       y="182.24026"
       id="text634"><tspan
         sodipodi:role="line"
         x="300.66318"
         y="182.24026"
         style="font-style:italic;font-variant:normal;font-weight:bold;font-stretch:normal;font-size:85.33333588px;line-height:1.29999995;font-family:'Asap Condensed';-inkscape-font-specification:'Asap Condensed, Bold Italic';text-align:start;text-anchor:start;fill:#1a2026;fill-opacity:1;stroke-width:1.15313065"
         id="tspan1488">Stovky milionů</tspan></text>
    <text
       id="text1524"
       y="288.14056"
       x="108.3907"
       style="font-style:italic;font-variant:normal;font-weight:normal;font-stretch:normal;font-size:48px;line-height:1.29999995;font-family:'Asap Condensed';-inkscape-font-specification:'Asap Condensed, Italic';text-align:start;letter-spacing:0px;word-spacing:0px;text-anchor:start;fill:#1a2026;fill-opacity:1;stroke:none;stroke-width:1.15313065"
       xml:space="preserve"><tspan
         style="font-style:italic;font-variant:normal;font-weight:normal;font-stretch:normal;font-size:48px;line-height:1.29999995;font-family:'Asap Condensed';-inkscape-font-specification:'Asap Condensed, Italic';text-align:start;text-anchor:start;fill:#1a2026;fill-opacity:1;stroke-width:1.15313065"
         y="288.14056"
         x="108.3907"
         sodipodi:role="line"
         id="tspan1526">Za stavbu fotbalového stadionu mají Pardubice</tspan><tspan
         style="font-style:italic;font-variant:normal;font-weight:normal;font-stretch:normal;font-size:48px;line-height:1.29999995;font-family:'Asap Condensed';-inkscape-font-specification:'Asap Condensed, Italic';text-align:start;text-anchor:start;fill:#1a2026;fill-opacity:1;stroke-width:1.15313065"
         y="350.54056"
         x="108.3907"
         sodipodi:role="line"
         id="tspan1530">z vlastního rozpočtu zaplatit <tspan
   style="font-weight:bold"
   id="tspan1576">stovky milionů</tspan>—</tspan><tspan
         style="font-style:italic;font-variant:normal;font-weight:normal;font-stretch:normal;font-size:48px;line-height:1.29999995;font-family:'Asap Condensed';-inkscape-font-specification:'Asap Condensed, Italic';text-align:start;text-anchor:start;fill:#1a2026;fill-opacity:1;stroke-width:1.15313065"
         y="412.94055"
         x="108.3907"
         sodipodi:role="line"
         id="tspan1532">15x více než za novou třídu Míru, 20x více než za</tspan><tspan
         style="font-style:italic;font-variant:normal;font-weight:normal;font-stretch:normal;font-size:48px;line-height:1.29999995;font-family:'Asap Condensed';-inkscape-font-specification:'Asap Condensed, Italic';text-align:start;text-anchor:start;fill:#1a2026;fill-opacity:1;stroke-width:1.15313065"
         y="475.34055"
         x="108.3907"
         sodipodi:role="line"
         id="tspan1534">rekonstrukci Tyršových sadů. <tspan
   style="font-weight:bold"
   id="tspan1586">Šance získat dotaci</tspan></tspan><tspan
         style="font-style:italic;font-variant:normal;font-weight:bold;font-stretch:normal;font-size:48px;line-height:1.29999995;font-family:'Asap Condensed';-inkscape-font-specification:'Asap Condensed, Italic';text-align:start;text-anchor:start;fill:#1a2026;fill-opacity:1;stroke-width:1.15313065"
         y="537.74054"
         x="108.3907"
         sodipodi:role="line"
         id="tspan1536">je minimální.</tspan><tspan
         style="font-style:italic;font-variant:normal;font-weight:normal;font-stretch:normal;font-size:48px;line-height:1.29999995;font-family:'Asap Condensed';-inkscape-font-specification:'Asap Condensed, Italic';text-align:start;text-anchor:start;fill:#1a2026;fill-opacity:1;stroke-width:1.15313065"
         y="600.14056"
         x="108.3907"
         sodipodi:role="line"
         id="tspan1538" /><tspan
         style="font-style:italic;font-variant:normal;font-weight:normal;font-stretch:normal;font-size:48px;line-height:1.29999995;font-family:'Asap Condensed';-inkscape-font-specification:'Asap Condensed, Italic';text-align:start;text-anchor:start;fill:#1a2026;fill-opacity:1;stroke-width:1.15313065"
         y="662.54053"
         x="108.3907"
         sodipodi:role="line"
         id="tspan1540">Město na stavbu stadionu <tspan
   style="font-weight:bold"
   id="tspan1584">nemá peníze.</tspan></tspan><tspan
         style="font-style:italic;font-variant:normal;font-weight:normal;font-stretch:normal;font-size:48px;line-height:1.29999995;font-family:'Asap Condensed';-inkscape-font-specification:'Asap Condensed, Italic';text-align:start;text-anchor:start;fill:#1a2026;fill-opacity:1;stroke-width:1.15313065"
         y="724.94055"
         x="108.3907"
         sodipodi:role="line"
         id="tspan1544">Proto se plánuje zadlužit a vzít si obří úvěr</tspan><tspan
         style="font-style:italic;font-variant:normal;font-weight:normal;font-stretch:normal;font-size:48px;line-height:1.29999995;font-family:'Asap Condensed';-inkscape-font-specification:'Asap Condensed, Italic';text-align:start;text-anchor:start;fill:#1a2026;fill-opacity:1;stroke-width:1.15313065"
         y="787.34058"
         x="108.3907"
         sodipodi:role="line"
         id="tspan1546">—až půl miliardy korun.</tspan><tspan
         style="font-style:italic;font-variant:normal;font-weight:normal;font-stretch:normal;font-size:48px;line-height:1.29999995;font-family:'Asap Condensed';-inkscape-font-specification:'Asap Condensed, Italic';text-align:start;text-anchor:start;fill:#1a2026;fill-opacity:1;stroke-width:1.15313065"
         y="849.74054"
         x="108.3907"
         sodipodi:role="line"
         id="tspan1542" /></text>
  </g>
</svg>
